<?xml version="1.0" encoding="utf-8"?>
<!-- Generator: Adobe Illustrator 21.0.0, SVG Export Plug-In . SVG Version: 6.00 Build 0)  -->
<svg version="1.1" id="Слой_1" xmlns="http://www.w3.org/2000/svg" xmlns:xlink="http://www.w3.org/1999/xlink" x="0px" y="0px"
	 viewBox="0 0 260 44.931" enable-background="new 0 0 260 44.931" xml:space="preserve" width="261" height="45">
<path fill="#fff" d="M41.115,13.214l-9.4-9.399c-5.087-5.087-13.412-5.087-18.5,0l-9.4,9.399
	c-5.087,5.088-5.087,13.413,0.001,18.501l9.399,9.401c5.088,5.087,13.413,5.087,18.5,0l9.4-9.401
	C46.203,26.628,46.203,18.302,41.115,13.214z M16.95,36.27c-0.019,0.002-0.04,0.002-0.059,0.002c-0.747,0-1.357-0.585-1.388-1.332
	c-0.015-0.371,0.115-0.726,0.366-1c0.252-0.273,0.594-0.432,0.965-0.448c0.765-0.035,1.414,0.565,1.447,1.332
	C18.313,35.591,17.715,36.239,16.95,36.27z M33.648,30.467c-1.906,3.032-4.424,5.161-6.734,5.695
	c-0.007,0.003-0.032,0.009-0.057,0.014c-0.424,0.077-0.84,0.117-1.237,0.117c-1.49,0-2.54-0.568-3.29-1.062
	c-0.74-0.49-1.431-1.144-2.055-1.942c-3.974-5.103-4.246-14.67-4.263-15.744c-0.043-2.546,0.323-5.995,2.312-7.969
	c0.971-0.962,2.186-1.45,3.614-1.45h0.232c1.432,0,2.648,0.488,3.619,1.45c1.988,1.974,2.354,5.423,2.312,7.969
	c-0.046,2.652-0.532,7.79-3.282,12.396c-0.224,0.374-0.635,0.607-1.072,0.607c-0.225,0-0.446-0.061-0.637-0.176
	c-0.59-0.352-0.783-1.119-0.432-1.71c1.925-3.224,2.855-6.77,2.928-11.16c0.05-2.911-0.509-5.098-1.575-6.156
	c-0.494-0.492-1.104-0.729-1.864-0.729h-0.219c-0.762,0-1.373,0.239-1.867,0.729c-1.066,1.059-1.625,3.246-1.576,6.156
	c0.061,3.588,0.915,10.628,3.737,14.254c0.457,0.586,0.95,1.055,1.462,1.394c0.497,0.328,1.054,0.649,1.925,0.649
	c0.236,0,0.49-0.025,0.754-0.072c1.618-0.388,3.646-2.189,5.154-4.587c0.23-0.365,0.625-0.584,1.056-0.584
	c0.234,0,0.463,0.066,0.663,0.191c0.281,0.178,0.478,0.454,0.551,0.779C33.882,29.851,33.825,30.185,33.648,30.467z"/>
<g>
	<path fill="#fff" d="M80.383,14.159c-6.159,0-9.844,3.811-9.844,8.509c0,4.698,3.685,8.508,9.844,8.508
		c6.165,0,9.859-3.81,9.859-8.508C90.241,17.97,86.548,14.159,80.383,14.159z M80.383,29.345c-2.947,0-5.193-2.995-5.193-6.678
		c0-3.69,2.246-6.676,5.193-6.676c2.959,0,5.201,2.986,5.201,6.676C85.583,26.35,83.341,29.345,80.383,29.345z"/>
	<polygon fill="#fff" points="91.086,16.671 97.566,16.671 97.566,30.464 102.45,30.464 102.45,16.671 107.929,16.671 
		107.929,14.788 91.086,14.788 	"/>
	<polygon fill="#fff" points="109.707,16.671 115.177,16.671 115.177,30.464 120.059,30.464 120.059,16.671 126.556,16.671 
		126.556,14.788 109.707,14.788 	"/>
	<path fill="#fff" d="M60.803,27.649V14.788h-4.687v13.811c0,1.032,0.836,1.865,1.869,1.865h11.987v-1.883H61.74
		C61.231,28.582,60.803,28.172,60.803,27.649z"/>
	<path fill="#fff" d="M129.211,16.651v11.948c0,1.032,0.842,1.865,1.872,1.865h12.778v-1.849h-9.016
		c-0.524,0-0.944-0.42-0.944-0.937v-4.615h9.822v-1.84H133.9v-3.655c0-0.512,0.42-0.932,0.944-0.932h9.016v-1.848h-12.783
		C130.052,14.788,129.211,15.618,129.211,16.651z"/>
</g>
<path fill="#fff" d="M165.166,30.597l-5.243-6.557l-1.3,1.121v5.436h-4.816V14.861h4.816v6.789l7.394-6.789h3.943l-6.734,6.366
	l7.522,9.37H165.166z"/>
<path fill="#fff" d="M213.369,30.597c-0.057-0.211-0.114-0.43-0.17-0.656c-0.057-0.226-0.114-0.476-0.17-0.75
	c-0.058-0.276-0.111-0.582-0.16-0.921c-0.051-0.338-0.097-0.74-0.139-1.205c-0.072-0.607-0.26-1.1-0.565-1.481
	c-0.306-0.381-0.686-0.68-1.14-0.899c-0.455-0.219-0.956-0.366-1.502-0.444c-0.548-0.077-1.091-0.116-1.631-0.116h-2.387v6.472
	h-4.858v-13.43c0-0.507,0.063-0.916,0.191-1.227c0.128-0.31,0.295-0.542,0.5-0.698c0.206-0.154,0.444-0.257,0.715-0.306
	c0.269-0.049,0.546-0.075,0.83-0.075h8.205c1.548,0,2.802,0.138,3.762,0.413c0.958,0.276,1.701,0.624,2.226,1.047
	c0.526,0.423,0.878,0.892,1.055,1.406c0.177,0.515,0.267,1.005,0.267,1.47c0,1.1-0.348,2.023-1.044,2.771
	c-0.696,0.747-1.833,1.213-3.409,1.396c0.695,0.071,1.264,0.208,1.705,0.413c0.44,0.204,0.795,0.472,1.066,0.804
	c0.269,0.331,0.465,0.712,0.586,1.142c0.119,0.43,0.209,0.899,0.266,1.406c0.085,0.719,0.181,1.379,0.287,1.977
	c0.107,0.599,0.26,1.096,0.458,1.491H213.369z M208.596,22.243c1.676,0,2.923-0.211,3.739-0.635
	c0.817-0.423,1.225-1.163,1.225-2.221c0-0.367-0.063-0.708-0.191-1.026c-0.128-0.317-0.348-0.595-0.661-0.835
	c-0.313-0.24-0.724-0.43-1.236-0.571c-0.512-0.14-1.151-0.212-1.918-0.212h-2.707c-0.269,0-0.493,0.018-0.671,0.053
	c-0.178,0.035-0.319,0.11-0.427,0.222c-0.106,0.113-0.181,0.269-0.224,0.465c-0.043,0.197-0.064,0.452-0.064,0.762v3.997H208.596z"
	/>
<path fill="#fff" d="M226.283,14.861v10.385c0,0.691,0.103,1.294,0.309,1.808c0.206,0.514,0.487,0.944,0.842,1.29
	c0.355,0.346,0.771,0.602,1.246,0.772c0.476,0.169,0.984,0.254,1.524,0.254c0.555,0,1.073-0.084,1.555-0.254
	c0.483-0.169,0.899-0.426,1.247-0.772c0.348-0.346,0.625-0.776,0.831-1.29c0.205-0.514,0.309-1.117,0.309-1.808V14.861h4.816v9.751
	c0,1.002-0.203,1.911-0.607,2.728c-0.405,0.818-0.987,1.516-1.748,2.094c-0.76,0.578-1.68,1.025-2.76,1.343
	c-1.08,0.317-2.294,0.476-3.644,0.476c-1.35,0-2.565-0.159-3.644-0.476c-1.08-0.318-1.996-0.765-2.749-1.343
	c-0.753-0.578-1.332-1.276-1.736-2.094c-0.405-0.817-0.607-1.727-0.607-2.728v-9.751H226.283z"/>
<path fill="#fff" d="M255.095,18.816c-0.029-0.465-0.156-0.852-0.384-1.163c-0.227-0.31-0.5-0.567-0.82-0.772
	c-0.32-0.205-0.671-0.363-1.055-0.477c-0.384-0.112-0.746-0.193-1.087-0.243c-0.341-0.049-0.647-0.077-0.916-0.084
	c-0.27-0.007-0.448-0.011-0.533-0.011c-0.127,0-0.394,0.028-0.8,0.084c-0.405,0.057-0.823,0.169-1.257,0.339
	c-0.434,0.169-0.817,0.406-1.151,0.708c-0.334,0.304-0.501,0.708-0.501,1.217c0,0.352,0.093,0.645,0.277,0.878
	c0.184,0.233,0.5,0.434,0.948,0.602c0.448,0.169,1.048,0.318,1.801,0.444c0.753,0.127,1.69,0.262,2.813,0.402
	c1.165,0.155,2.213,0.356,3.143,0.603c0.93,0.247,1.719,0.564,2.366,0.951c0.647,0.388,1.144,0.846,1.491,1.375
	c0.348,0.529,0.536,1.139,0.565,1.83c0.014,0.353-0.011,0.736-0.075,1.153c-0.064,0.416-0.203,0.836-0.415,1.259
	c-0.214,0.423-0.509,0.829-0.885,1.216c-0.377,0.388-0.871,0.737-1.482,1.047c-0.611,0.311-1.353,0.564-2.226,0.762
	c-0.874,0.197-1.908,0.31-3.101,0.338c-0.612,0.014-1.268,0-1.971-0.042c-0.703-0.042-1.41-0.131-2.121-0.264
	c-0.71-0.134-1.396-0.328-2.057-0.582c-0.66-0.254-1.257-0.589-1.79-1.005c-0.533-0.415-0.98-0.92-1.342-1.511
	c-0.363-0.592-0.593-1.304-0.693-2.136h4.39c0.113,0.677,0.344,1.248,0.692,1.713c0.348,0.465,0.771,0.846,1.269,1.142
	c0.497,0.296,1.044,0.507,1.64,0.635c0.596,0.126,1.193,0.183,1.79,0.169c0.711-0.014,1.318-0.089,1.822-0.222
	c0.504-0.134,0.92-0.3,1.246-0.498c0.326-0.197,0.565-0.426,0.714-0.687c0.149-0.261,0.223-0.532,0.223-0.815
	c0-0.549-0.188-0.997-0.563-1.343c-0.377-0.345-0.85-0.616-1.418-0.814c-0.568-0.197-1.186-0.342-1.854-0.434
	c-0.667-0.092-1.285-0.173-1.854-0.243c-0.384-0.043-0.842-0.099-1.374-0.169c-0.532-0.07-1.083-0.173-1.652-0.307
	c-0.568-0.133-1.136-0.306-1.705-0.518c-0.569-0.211-1.08-0.483-1.534-0.814c-0.455-0.331-0.828-0.729-1.118-1.195
	c-0.291-0.465-0.451-1.016-0.479-1.65c-0.03-0.973,0.195-1.805,0.671-2.495c0.476-0.691,1.101-1.259,1.875-1.703
	c0.774-0.444,1.652-0.772,2.632-0.983c0.98-0.211,1.96-0.318,2.941-0.318c0.525,0,1.108,0.018,1.747,0.054
	c0.64,0.035,1.286,0.112,1.94,0.233c0.653,0.119,1.296,0.289,1.928,0.507c0.632,0.219,1.207,0.5,1.727,0.846
	c0.518,0.346,0.955,0.761,1.31,1.247c0.355,0.487,0.589,1.068,0.703,1.745H255.095z"/>
<g>
	<path fill="#fff" d="M165.184,30.624l-5.236-6.578l-1.298,1.124v5.453h-4.81V14.837h4.81v6.811l7.385-6.811h3.938l-6.725,6.387
		l7.512,9.4H165.184z"/>
	<path fill="#fff" d="M177.762,21.288h10.045v1.867h-10.045v7.469h-4.81V17.171c0-0.509,0.06-0.919,0.181-1.231
		c0.121-0.311,0.28-0.548,0.479-0.711c0.199-0.162,0.433-0.269,0.703-0.318c0.269-0.05,0.546-0.075,0.83-0.075h12.812v1.889h-8.769
		c-0.27,0-0.497,0.011-0.681,0.032c-0.184,0.021-0.33,0.071-0.436,0.148c-0.107,0.078-0.185,0.202-0.234,0.371
		c-0.05,0.169-0.075,0.403-0.075,0.7V21.288z"/>
</g>
</svg>
