<?xml version="1.0" encoding="utf-8"?>
<!-- Generator: Adobe Illustrator 19.0.1, SVG Export Plug-In . SVG Version: 6.00 Build 0)  -->
<svg version="1.1" id="Слой_1" xmlns="http://www.w3.org/2000/svg" xmlns:xlink="http://www.w3.org/1999/xlink" x="0px" y="0px"
	 viewBox="0 0 207.5 75.2" style="enable-background:new 0 0 207.5 75.2;" xml:space="preserve">
<style type="text/css">
	.st0{fill:#C2A26B;}
	.st1{fill:#E60004;}
	.st2{fill:#FFFFFF;}
</style>
<path class="st0" d="M203.1,24.6c0.1,0.1,0.2,0.3,0.3,0.4C203.6,25.5,203.1,24.6,203.1,24.6z M204,25.9c-0.2-0.3-0.4-0.6-0.6-0.9
	c-0.1-0.1-0.2-0.3-0.3-0.5c-0.8-1.2-1.9-0.6-2.8-1.4c-0.3-0.4-0.6-0.9-1-1.3c-0.1-0.2-0.3-0.3-0.4-0.5c-0.4-0.4-0.7-0.9-1.1-1.3
	c-0.3-0.3-1.3-1.2-2.2-1.6c-0.9-0.4-2.4-0.6-3.1-0.7c-1.8-0.2-4.5-0.4-7.9-0.7l-71.1-7c0,0-8-0.9-9.7-0.9c-1.8,0-3.3,0.2-8.2,0.6
	c-19.7,1.8-69.6,6.5-81.8,7.7c-0.8,0.1-2.2,0.3-3.1,0.7c-0.9,0.4-1.9,1.3-2.2,1.6C3,25.7,0,33.3,0,41.5c0,7.7,2.8,15.1,7.7,20.9
	c0.8,0.9,2,2.2,3,2.7c1,0.5,1.8,0.6,3.5,0.7c0.8,0.1,1.6,0.2,2.2,0.3c0.6,0.1,0.9,0.6,1.1,0.8c0.2,0.3,0.8,0.9,2.2,1.1
	c1.4,0.1,2.5,0.2,2.5,0.2L96.7,75c0,0,4.6,0.3,6.3,0.3c1.8,0,5.1-0.2,5.5-0.2c16.7-1.6,73.7-6.6,82-7.5c7.8-0.9,11.1-6.6,12.7-9.6
	c3.1-6,4-11.6,4.2-15C207.7,38.9,206.9,31.2,204,25.9z"/>
<path class="st1" d="M194.8,23.2c5.5,3.4,8.1,12.8,8.1,18.9c0,6-2.7,14.1-7.8,17.8c-9.8,7.1-50.6,9.6-91.9,9.6
	c-41.3,0-80.2-1.8-91.9-9.5c-5.3-3.5-7.8-12.1-7.8-17.9c0-5.7,2.4-15.1,7.7-18.5c6-3.7,50.6-10.8,92-10.8
	C144.3,12.9,189.2,19.8,194.8,23.2z"/>
<g>
	<path class="st2" d="M169.8,1.9c-3.3,1.3-9.8,2.9-14.7,3c-0.9,0-1.7,0-2.5,0c-2.2-0.2-4.8-1-7.6-1.8l-1.6-0.5l-0.7-0.2
		c-3-0.9-6.2-1.8-9-2.2C131.8,0,130.1,0,128.5,0c-6.4,0.3-11,2.4-11.2,2.6h0L117,2.8l-0.1,0.1l-0.2,0.3L115.5,5
		c-1.7,2.8-10.3,19.8-10.3,19.8l1.6,0c0,0,0.1,0,0.2,0c0.6,0,1.2-0.2,2.4-0.6l0.9-0.3c2.7-1,6.5-3.4,12.6-3.7c1.6-0.1,3.1,0,4.6,0.3
		c1.7,0.3,4.5,1.3,6.3,1.9l0.5,0.2l3,1.1c3.6,1.4,7.5,2.8,12.9,2.7c0.4,0,0.8,0,1.2,0l0,0c3.8-0.2,7.9-0.9,12.2-4l0.2-0.2l2.6-2.1
		l-3.4-1.2c-0.9-0.3-4.1-1.6-5.7-3.6c0.9-0.9,3.7-3,6.4-5c3-2.2,6.1-4.2,6.7-4.6c1.4-0.9,2.3-1.6,2.3-1.6l0.2-0.1l0.2-3.3L169.8,1.9
		z M117.5,2.9L117.5,2.9L117.5,2.9L117.5,2.9z"/>
	<path class="st0" d="M170.6,3.5L170.6,3.5c-4.2,1.7-12.8,3.7-18.2,3.3c-2.9-0.2-6.1-1.3-9.6-2.4c-3.3-1-6.5-2-9.3-2.3
		c-9-1.1-15.1,2-15.1,2l0,0l0,0c0,0.1-0.4,0.6-1.1,1.8c-2.3,3.9-9,17.1-9,17.1s0.7-0.3,1.4-0.6c2.8-1.1,10.1-5.3,18.3-3.7
		c2,0.4,5.3,1.5,7.1,2.1c5,1.7,8.8,3.8,15.2,3.7c3.7,0,7.8-0.5,12.2-3.6l0.2-0.2l-0.3-0.1c-0.9-0.3-4.6-1.7-6.5-4.2
		c-0.2-0.3-0.6-0.6-0.6-1.4c0.1-1.8,15.8-12,15.7-11.5c0,0-0.1-0.2-0.1-0.2L170.6,3.5z"/>
</g>
<g>
	<path class="st2" d="M77.8,37.5c-9.1,0-17.1,5.2-18.2,11.8c-0.6,3.6,2.1,5.9,7.1,5.9c9,0,16.7-6.1,17.8-12.5
		C85.1,39.2,82.5,37.5,77.8,37.5z M78,43c-0.5,2.9-4.5,10-9.5,10c-2.5,0-2.7-1.9-2.4-3.3c0.5-2.8,4.7-10.1,9.6-10.1
		C78.1,39.6,78.2,41.6,78,43z"/>
	<g>
		<g>
			<path class="st2" d="M106.4,37.5c-3.2,0-7.4,1.3-11.5,4.7c1.4-2.6,5.2-8.7,6.5-12c0.9-2.2-1.3-2.8-7.3-0.7
				c0.7,0.8,0.8,2.1,0.2,3.6c-1.1,2.9-5.8,10.8-10,17.8c-1.2,2-0.8,2.5-0.2,2.9c1.3,0.9,3.6,1.3,7.6,1.3c8.7,0,18-7.1,19-13.1
				C111,39.9,110.2,37.5,106.4,37.5z M104,43.3c-1.7,5.3-7.2,9.4-11.5,9.8c-1.7,0.2-3.6,0-2.9-1.4c2-3.8,8.8-11.4,12.8-11.4
				C104.1,40.3,104.7,41.3,104,43.3z"/>
		</g>
	</g>
	<path class="st2" d="M128.6,37.5c-6.7,0-15.5,5-17.2,11.1c-1.2,4.4,1.9,6.5,7.5,6.5c4.6,0,8.2-1,11.4-2.9c0.7-0.4,0.9-0.6,1.2-2.2
		c0.2-0.9,0-1-0.4-0.7c-4.1,2.6-7.2,3.4-10.4,3.3c-3.6-0.2-3.5-2.9-2.6-4.9c6.9,0.7,14.9-2.4,15.7-7.3
		C134.1,38.4,132.7,37.5,128.6,37.5z M127.6,41.5c-0.7,2.1-4.4,5.1-8.8,4.7c2-3.9,4.9-6.7,7.5-6.7C127.5,39.5,128.1,40.1,127.6,41.5
		z"/>
	<path class="st2" d="M55.3,20.5c-0.5,0-9.5,0.4-18,2.4c-13,3-18.2,7.1-19.1,10.6c0,0.1-0.1,0.3-0.1,0.4c-0.4,2.9,2.7,4.2,6.2,4.8
		c1.4,0.3,2,0,1.7-0.9c-0.3-0.7-0.5-1.8-0.4-2.6c0,0,0-0.1,0-0.1c0.6-3.4,5.3-8.1,20.9-10.6C40.7,33.7,35,42.1,31.7,48
		c-2.2,4-1.2,6.1,4,7.5c0.5,0.1,1.3,0,1.2-0.8c-0.4-2.4,1.7-6.3,3.5-9.5c1.1-2,2.3-4,3.7-6.1c0.4,0.7,0.9,1.4,0.9,1.4
		c1.5,0,2.7-0.1,4.1-0.2c19.6-1.2,26.2-7.7,26.8-12.7C76.5,22.2,71.1,19.5,55.3,20.5z M68.3,28.8c-0.4,3.6-6.9,7.5-16.9,8.1
		c-2.3,0.1-4,0.1-5.6-0.2c2.3-3.8,3.6-5.4,6.1-9.3c1.2-1.9,1.4-2.6,0.8-3.7C60,23.3,68.8,24.2,68.3,28.8z"/>
	<path class="st2" d="M166.5,31.8c1.1-2.2,0.7-3.5-1.5-3.5c-1.3,0-3.2,0.4-5.1,1c0.9,1,0.6,2.4-0.1,3.8c-0.8,1.6-1.7,3.2-2.8,5.1
		c-1.2-0.5-2.1-0.7-3.7-0.7c-8.7,0-17.6,7.5-18.6,13.4c-0.4,2.4,0.6,4.2,3.9,4.2c3.3,0,7.9-1.6,12-5c-1,2.9,0.1,5,3,5
		c3.3,0,5.2-3.4,3.6-3.3c-0.9,0-1.2-0.5-0.6-1.6C159.5,44.7,163.2,38.5,166.5,31.8z M155.1,41.9c-2.5,4.5-9.1,10.5-12.3,10.5
		c-1.7,0-1.9-1-1.3-3.1c1.8-5.2,7.5-9.8,11.3-9.8C154.3,39.5,156.1,40.1,155.1,41.9z"/>
	<path class="st2" d="M190.5,38.1c-1.9-1.1-4.7-1.1-6.5,0.1c-0.8-0.7-2.4-0.9-4.3-0.8c-7.3,0.4-15.8,7-17.4,13.4
		c-0.5,1.9,0.1,4.2,2.9,4.4c2.7,0.3,7.3-1.2,11.6-4.8c-0.1,0.2-0.1,0.4-0.2,0.6c-1,3.2,1,4.8,3.2,4.8c2.7,0,4.3-3,2.9-2.9
		c-0.5,0-1.5-0.3-1.6-1.2c0,0,0,0.1,0,0c0-0.2,0.1-0.5,0.1-0.7c0,0,0,0,0,0h0c0.1-0.3,0.2-0.6,0.3-0.8
		C183.2,47,188.1,39.4,190.5,38.1z M169.4,52.4c-1.5,0.1-2.1-1.3-1.3-3.3c2-4.8,7.7-9,11.1-9.4c1.7-0.2,3,0.5,2.3,2
		C179.2,46.6,172.7,52.1,169.4,52.4z"/>
</g>
<g>
	<path class="st0" d="M55.7,65h-1.1L53,60.2h1.3l0.6,2.1c0.1,0.2,0.1,0.4,0.2,0.8h0c0.1-0.4,0.2-0.7,0.3-0.9l0.7-1.9h1.3L55.7,65z"
		/>
	<path class="st0" d="M59.4,65v-4.8h1.3V65H59.4z"/>
	<path class="st0" d="M65.9,61.4c-0.2-0.2-0.5-0.3-0.7-0.3c-0.3,0-0.4,0.1-0.5,0.2c-0.3,0.3-0.3,0.8-0.3,1c0,0.8,0,1.1,0.2,1.4
		c0.2,0.3,0.5,0.3,0.6,0.3c0.1,0,0.5,0,0.8-0.3l0.5,0.8c-0.3,0.2-0.7,0.5-1.5,0.5c-0.5,0-1.1-0.1-1.6-0.7c-0.4-0.5-0.5-1.1-0.5-1.7
		c0-0.6,0.1-1,0.3-1.5c0.5-0.9,1.3-1.1,1.9-1.1c0.8,0,1.1,0.2,1.2,0.3L65.9,61.4z"/>
	<path class="st0" d="M71.8,61.3h-1.1V65h-1.2v-3.8h-1.1v-1h3.6L71.8,61.3z"/>
	<path class="st0" d="M77.3,64.4c-0.2,0.3-0.6,0.7-1.6,0.7c-0.8,0-1.3-0.3-1.7-0.7c-0.2-0.3-0.5-0.8-0.5-1.6c0-0.8,0.2-1.5,0.7-2
		c0.4-0.4,0.9-0.6,1.5-0.6c0.6,0,1.2,0.2,1.7,0.8c0.3,0.5,0.4,1,0.4,1.5C77.8,63.2,77.7,63.8,77.3,64.4z M76.2,61.3
		c-0.1-0.1-0.2-0.2-0.5-0.2c-0.2,0-0.4,0-0.6,0.3c0,0.1-0.2,0.4-0.2,1.2c0,0.9,0.2,1.2,0.3,1.3c0.1,0.1,0.3,0.2,0.5,0.2
		c0.2,0,0.4-0.1,0.5-0.2c0.2-0.2,0.3-0.6,0.3-1.3C76.5,61.8,76.4,61.5,76.2,61.3z"/>
	<path class="st0" d="M82.4,65l-0.5-1.3c0-0.1-0.1-0.2-0.2-0.4c-0.1-0.1-0.1-0.2-0.4-0.2V65h-1.2v-4.8h1.6c0.3,0,1.1,0,1.6,0.5
		c0.3,0.3,0.3,0.6,0.3,0.9c0,0.5-0.1,0.8-0.3,0.9c-0.1,0.1-0.3,0.3-0.7,0.4c0.1,0.1,0.3,0.2,0.5,0.5l0.2,0.3
		c0.2,0.5,0.3,0.6,0.6,1.2H82.4z M81.7,62.2c0,0,0.3,0,0.4-0.1c0.1-0.1,0.2-0.3,0.2-0.4c0-0.1,0-0.2-0.1-0.3
		c-0.1-0.1-0.3-0.1-0.5-0.1h-0.3v1H81.7z"/>
	<path class="st0" d="M88.1,63v2h-1.3v-2l-1.5-2.8h1.5l0.4,1c0.2,0.5,0,0.1,0.2,0.7l0.7-1.7h1.5L88.1,63z"/>
	<path class="st0" d="M98.3,64.4c-0.2,0.3-0.6,0.7-1.6,0.7c-0.8,0-1.3-0.3-1.7-0.7c-0.2-0.3-0.5-0.8-0.5-1.6c0-0.8,0.2-1.5,0.7-2
		c0.4-0.4,0.9-0.6,1.5-0.6c0.6,0,1.2,0.2,1.7,0.8c0.3,0.5,0.4,1,0.4,1.5C98.8,63.2,98.7,63.8,98.3,64.4z M97.1,61.3
		c-0.1-0.1-0.2-0.2-0.5-0.2c-0.2,0-0.4,0-0.6,0.3c0,0.1-0.2,0.4-0.2,1.2c0,0.9,0.2,1.2,0.3,1.3c0.1,0.1,0.3,0.2,0.5,0.2
		c0.2,0,0.4-0.1,0.5-0.2c0.2-0.2,0.3-0.6,0.3-1.3C97.4,61.8,97.3,61.5,97.1,61.3z"/>
	<path class="st0" d="M103.6,61.3h-1.3v0.8h1.1v1h-1.1v2h-1.2v-4.8h2.6L103.6,61.3z"/>
	<path class="st0" d="M111.9,61.3h-1.1V65h-1.2v-3.8h-1.1v-1h3.6L111.9,61.3z"/>
	<path class="st0" d="M116.3,65v-2h-1v2h-1.2v-4.8h1.2V62h1v-1.8h1.2V65H116.3z"/>
	<path class="st0" d="M120,65v-4.8h2.8l-0.1,1h-1.5v0.8h1.2v1h-1.2v1h1.6v1H120z"/>
	<path class="st0" d="M131.3,61.3h-1.1V65h-1.2v-3.8h-1.1v-1h3.6L131.3,61.3z"/>
	<path class="st0" d="M135.5,65l-0.2-0.9h-1.1l-0.3,0.9h-1.3l1.5-4.8h1.3l1.4,4.8H135.5z M134.8,62.3c0-0.1-0.1-0.3-0.1-0.7
		c0,0.3-0.1,0.5-0.1,0.8l-0.2,0.8h0.6L134.8,62.3z"/>
	<path class="st0" d="M141.8,61.5c-0.2-0.1-0.4-0.2-0.5-0.2c-0.3-0.1-0.4-0.1-0.5-0.1c-0.1,0-0.2,0-0.3,0.1
		c-0.1,0.1-0.1,0.2-0.1,0.3c0,0.1,0,0.2,0.1,0.2c0.1,0.1,0.3,0.2,0.4,0.2l0.5,0.1c0.5,0.1,1.3,0.4,1.3,1.3c0,0.4-0.1,0.9-0.6,1.3
		c-0.3,0.2-0.8,0.5-1.6,0.5c-0.3,0-0.6,0-1-0.1c-0.3-0.1-0.5-0.2-0.7-0.3l0.4-1c0.2,0.1,0.4,0.2,0.6,0.3c0.3,0.1,0.6,0.1,0.7,0.1
		c0.2,0,0.4,0,0.5-0.1c0.1-0.1,0.1-0.2,0.1-0.3c0-0.1,0-0.2-0.1-0.3c-0.1-0.1-0.3-0.1-0.3-0.1l-0.6-0.1c-0.3-0.1-1.2-0.3-1.2-1.4
		c0-0.4,0.1-0.8,0.5-1.1c0.2-0.2,0.7-0.5,1.4-0.5c0.4,0,0.7,0.1,1,0.2c0.3,0.1,0.5,0.2,0.7,0.3L141.8,61.5z"/>
	<path class="st0" d="M147.8,61.3h-1.1V65h-1.2v-3.8h-1.1v-1h3.6L147.8,61.3z"/>
	<path class="st0" d="M149.9,65v-4.8h2.8l-0.1,1h-1.5v0.8h1.2v1h-1.2v1h1.6v1H149.9z"/>
</g>
</svg>
