<?xml version="1.0" encoding="utf-8"?>
<!-- Generator: Adobe Illustrator 19.2.1, SVG Export Plug-In . SVG Version: 6.00 Build 0)  -->
<svg version="1.1" id="Слой_1" xmlns="http://www.w3.org/2000/svg" xmlns:xlink="http://www.w3.org/1999/xlink" x="0px" y="0px"
	 viewBox="0 0 75 42.8" style="enable-background:new 0 0 75 42.8;" xml:space="preserve">
<style type="text/css">
	.st0{fill:none;stroke:#141515;stroke-width:0.1984;stroke-miterlimit:10;}
	.st1{fill-rule:evenodd;clip-rule:evenodd;fill:#494949;}
	.st2{fill-rule:evenodd;clip-rule:evenodd;fill:#D8D9D9;}
	.st3{fill:#494949;}
	.st4{fill-rule:evenodd;clip-rule:evenodd;fill:#2374B7;}
</style>
<g>
	<path class="st0" d="M37.4,42c20.3,0,36.9-9.3,36.9-20.6S57.7,0.8,37.4,0.8S0.5,10,0.5,21.4S17.1,42,37.4,42L37.4,42z"/>
	<path class="st1" d="M22,9.7L22,9.7l-0.9,0.4l0,0l0.1,0c0,0,0.1,0,0.1-0.1c0,0,0,0,0-0.1c0,0,0-0.1-0.1-0.2l-0.5-1
		c0-0.1-0.1-0.1-0.1-0.1c0,0,0,0-0.1,0c0,0-0.1,0-0.1,0l-0.1,0l0,0l0.9-0.4l0,0l-0.1,0c0,0-0.1,0-0.1,0.1c0,0,0,0,0,0.1
		c0,0,0,0.1,0.1,0.2l0.5,1c0,0.1,0.1,0.1,0.1,0.1c0,0,0,0,0.1,0C21.9,9.7,21.9,9.7,22,9.7L22,9.7z M23.8,8.4l0.1-1.2L24.7,7l0,0
		l-0.1,0c-0.1,0-0.1,0-0.1,0.1c0,0,0,0,0,0.1c0,0,0,0.1,0,0.2l0.4,1.1c0,0.1,0.1,0.1,0.1,0.2c0,0,0,0,0.1,0c0,0,0.1,0,0.1,0l0.1,0
		l0,0l-0.9,0.3l0,0l0.1,0c0.1,0,0.1,0,0.1-0.1c0,0,0,0,0-0.1c0,0,0-0.1,0-0.2L24,7.4l-0.2,1.7l0,0l-1.2-1.3L23,8.9
		c0,0.1,0,0.1,0.1,0.1c0,0,0.1,0.1,0.1,0.1c0,0,0.1,0,0.2,0l0,0l-0.6,0.2l0,0l0,0c0,0,0.1,0,0.1-0.1c0,0,0,0,0.1-0.1
		c0,0,0-0.1,0-0.1c0,0,0-0.1,0-0.1l-0.4-1c0-0.1-0.1-0.1-0.1-0.2c0,0,0,0-0.1,0c0,0-0.1,0-0.1,0l-0.1,0l0,0L23,7.5L23.8,8.4z
		 M26.5,7.5L26.6,8c0,0.1,0,0.1,0.1,0.2c0,0,0,0,0.1,0c0,0,0.1,0,0.2,0l0,0L26,8.4l0,0c0.1,0,0.1,0,0.2-0.1c0,0,0,0,0-0.1
		c0,0,0-0.1,0-0.2L25.9,7c0-0.1,0-0.1-0.1-0.2c0,0,0,0-0.1,0c0,0-0.1,0-0.2,0l0,0l0.8-0.2c0.3-0.1,0.5-0.1,0.6,0
		c0.1,0.1,0.2,0.2,0.3,0.3c0,0.1,0,0.2,0,0.3c-0.1,0.1-0.1,0.2-0.3,0.2C26.9,7.4,26.7,7.5,26.5,7.5L26.5,7.5z M26.3,6.7l0.2,0.7
		c0,0,0.1,0,0.1,0c0.1,0,0.2-0.1,0.2-0.1c0-0.1,0-0.2,0-0.3c0-0.1-0.1-0.2-0.2-0.3C26.6,6.7,26.5,6.7,26.3,6.7L26.3,6.7z M28.9,6
		c0.3-0.1,0.5,0,0.8,0.1c0.2,0.1,0.3,0.3,0.4,0.6c0,0.2,0,0.4-0.1,0.6c-0.1,0.2-0.4,0.4-0.7,0.4s-0.6,0-0.8-0.2
		c-0.2-0.1-0.3-0.3-0.3-0.5c0-0.3,0-0.5,0.2-0.7C28.4,6.2,28.6,6.1,28.9,6L28.9,6z M28.9,6.1c-0.2,0-0.3,0.1-0.3,0.3
		c0,0.1,0,0.3,0,0.6c0.1,0.3,0.2,0.5,0.3,0.6c0.1,0.1,0.2,0.1,0.4,0.1c0.1,0,0.2,0,0.2-0.1c0.1-0.1,0.1-0.2,0.1-0.3
		c0-0.1,0-0.3,0-0.5c0-0.2-0.1-0.4-0.2-0.5c-0.1-0.1-0.1-0.2-0.2-0.2C29.1,6.1,29,6.1,28.9,6.1L28.9,6.1z M31.7,6.6l0.1,0.5
		c0,0.1,0,0.1,0,0.2c0,0,0,0,0.1,0.1c0,0,0.1,0,0.2,0l0,0l-0.9,0.1l0,0c0.1,0,0.1,0,0.2,0c0,0,0,0,0.1-0.1c0,0,0-0.1,0-0.2L31.2,6
		c0-0.1,0-0.1,0-0.2c0,0,0,0-0.1,0c0,0-0.1,0-0.2,0l0,0l0.9-0.1c0.2,0,0.4,0,0.5,0c0.1,0,0.2,0.1,0.3,0.1c0.1,0.1,0.1,0.2,0.1,0.3
		c0,0.1,0,0.2-0.1,0.3c-0.1,0.1-0.1,0.1-0.2,0.1l0.5,0.5c0.1,0.1,0.1,0.1,0.1,0.1c0,0,0.1,0,0.1,0l0,0l-0.6,0.1l-0.7-0.7L31.7,6.6z
		 M31.6,5.8l0.1,0.7l0.1,0c0.1,0,0.2,0,0.3-0.1c0.1,0,0.1-0.1,0.1-0.1c0-0.1,0-0.1,0-0.2c0-0.1-0.1-0.2-0.1-0.3
		c-0.1-0.1-0.2-0.1-0.3-0.1L31.6,5.8z M35.4,5.3l0,0.5l0,0c0-0.1-0.1-0.2-0.1-0.2c0,0-0.1-0.1-0.2-0.1c0,0-0.1,0-0.2,0l-0.1,0
		l0.1,1.3c0,0.1,0,0.1,0,0.2c0,0,0,0,0.1,0.1c0,0,0.1,0,0.1,0l0.1,0l0,0l-1,0l0,0l0.1,0c0.1,0,0.1,0,0.1,0c0,0,0,0,0.1-0.1
		c0,0,0-0.1,0-0.2l-0.1-1.3l-0.1,0c-0.1,0-0.2,0-0.3,0.1c-0.1,0.1-0.1,0.2-0.1,0.3l-0.1,0l0-0.5L35.4,5.3z M38.6,6h0.6v0
		c-0.1,0-0.1,0-0.2,0.1c0,0-0.1,0.1-0.1,0.2c-0.1,0.1-0.1,0.2-0.2,0.3c0.1,0.1,0.2,0.1,0.2,0.2c0,0,0.1,0,0.1,0c0.1,0,0.1,0,0.2-0.1
		l0.1,0C39.1,6.8,39,6.9,38.9,7c-0.1,0-0.1,0.1-0.2,0.1c-0.1,0-0.1,0-0.2,0c-0.1,0-0.1-0.1-0.2-0.2C38.2,6.9,38,7,37.9,7
		c-0.1,0-0.2,0-0.3,0c-0.2,0-0.3,0-0.4-0.1c-0.1-0.1-0.2-0.2-0.2-0.3c0-0.1,0-0.2,0.1-0.3c0.1-0.1,0.2-0.2,0.4-0.2
		c0-0.1,0-0.1-0.1-0.2c0-0.1,0-0.1,0-0.2c0-0.1,0.1-0.2,0.2-0.3c0.1-0.1,0.2-0.1,0.4-0.1c0.1,0,0.2,0,0.3,0.1
		c0.1,0.1,0.1,0.1,0.1,0.2c0,0.1,0,0.2-0.1,0.2c-0.1,0.1-0.2,0.1-0.4,0.2c0.1,0.2,0.3,0.3,0.5,0.5c0.1-0.1,0.2-0.3,0.2-0.4
		c0,0,0-0.1,0-0.1C38.6,6.1,38.6,6,38.6,6L38.6,6z M38,5.9c0.1,0,0.2-0.1,0.2-0.1c0,0,0-0.1,0-0.1c0-0.1,0-0.2-0.1-0.2
		c0,0-0.1-0.1-0.1-0.1c0,0-0.1,0-0.1,0c0,0,0,0.1,0,0.1c0,0,0,0.1,0,0.1C37.9,5.7,37.9,5.8,38,5.9L38,5.9z M37.7,6.1
		c-0.1,0-0.1,0.1-0.2,0.1c0,0-0.1,0.1-0.1,0.2c0,0.1,0,0.2,0.1,0.2c0,0.1,0.1,0.1,0.2,0.2c0.1,0,0.1,0.1,0.2,0.1c0,0,0.1,0,0.1,0
		c0,0,0.1,0,0.1-0.1C38,6.6,37.8,6.4,37.7,6.1L37.7,6.1z M41.6,5.4l0,0.7l0,0c0.1,0,0.2,0,0.3-0.1c0.1-0.1,0.1-0.2,0.1-0.3l0.1,0
		l-0.1,0.9l-0.1,0c0-0.1,0-0.2-0.1-0.2c0-0.1-0.1-0.1-0.1-0.1c0,0-0.1,0-0.2,0l0,0.5c0,0.1,0,0.2,0,0.2c0,0,0,0,0,0.1
		c0,0,0.1,0,0.1,0l0.1,0c0.2,0,0.3,0,0.4-0.1c0.1-0.1,0.2-0.2,0.2-0.3l0.1,0l-0.1,0.5L40.8,7l0,0l0.1,0c0.1,0,0.1,0,0.1,0
		c0,0,0,0,0.1-0.1c0,0,0-0.1,0-0.2l0.1-1.1c0-0.1,0-0.1,0-0.1c0,0,0-0.1,0-0.1c0,0-0.1,0-0.1,0l-0.1,0l0,0l1.6,0.1l0,0.5l-0.1,0
		c0-0.1-0.1-0.2-0.1-0.3c0-0.1-0.1-0.1-0.2-0.1c0,0-0.1,0-0.3,0L41.6,5.4z M44.6,6.3L45,7.1c0.1,0.1,0.1,0.2,0.1,0.2
		c0,0,0.1,0.1,0.1,0.1l0,0l-0.9-0.1l0,0c0.1,0,0.1,0,0.1,0c0,0,0,0,0-0.1c0,0,0,0,0,0c0,0,0-0.1-0.1-0.2l-0.2-0.4L44,6.9
		C43.9,7,43.8,7,43.8,7.1c0,0,0,0,0,0.1c0,0,0,0,0.1,0.1c0,0,0.1,0,0.1,0l0,0l-0.7-0.1l0,0c0.1,0,0.1,0,0.2,0c0.1,0,0.2-0.1,0.3-0.2
		l0.4-0.4l-0.4-0.7c-0.1-0.1-0.1-0.2-0.1-0.2c0,0,0-0.1-0.1-0.1c0,0-0.1,0-0.1,0l0,0l0.9,0.1l0,0l0,0c-0.1,0-0.1,0-0.1,0
		c0,0,0,0,0,0.1c0,0,0,0,0,0l0.1,0.1L44.6,6.3l0.2-0.3C44.9,6,45,5.9,45,5.8c0,0,0,0,0-0.1c0,0,0,0-0.1-0.1c0,0-0.1,0-0.1,0l0,0
		l0.7,0.1l0,0c-0.1,0-0.1,0-0.1,0c0,0-0.1,0-0.1,0c0,0-0.1,0.1-0.2,0.2L44.6,6.3z M46.9,6.9l-0.1,0.5c0,0.1,0,0.2,0,0.2
		c0,0,0,0,0.1,0.1c0,0,0.1,0,0.2,0l0,0l-0.9-0.1l0,0c0.1,0,0.1,0,0.2,0c0,0,0.1,0,0.1,0c0,0,0-0.1,0-0.2l0.2-1.1c0-0.1,0-0.2,0-0.2
		c0,0,0,0-0.1-0.1c0,0-0.1,0-0.2,0l0,0L47.2,6c0.3,0,0.4,0.1,0.5,0.2c0.1,0.1,0.1,0.2,0.1,0.4c0,0.1-0.1,0.2-0.2,0.3
		c-0.1,0.1-0.2,0.1-0.3,0.1C47.3,6.9,47.1,6.9,46.9,6.9L46.9,6.9z M47,6.1l-0.1,0.7c0,0,0.1,0,0.1,0c0.1,0,0.2,0,0.3-0.1
		c0.1-0.1,0.1-0.1,0.1-0.3c0-0.1,0-0.2,0-0.3C47.3,6.1,47.2,6.1,47,6.1L47,6.1z M49.7,6.4c0.3,0,0.5,0.2,0.7,0.4
		c0.1,0.2,0.2,0.4,0.1,0.7c0,0.2-0.2,0.4-0.3,0.5c-0.2,0.2-0.5,0.2-0.8,0.2c-0.3-0.1-0.6-0.2-0.7-0.5c-0.1-0.2-0.1-0.4-0.1-0.6
		c0.1-0.2,0.2-0.4,0.4-0.6C49.2,6.4,49.4,6.3,49.7,6.4L49.7,6.4z M49.7,6.5c-0.2,0-0.3,0-0.4,0.2c-0.1,0.1-0.2,0.3-0.2,0.5
		c-0.1,0.3-0.1,0.5,0,0.7C49.1,8,49.2,8,49.3,8.1c0.1,0,0.2,0,0.2,0c0.1,0,0.2-0.1,0.2-0.2c0.1-0.1,0.1-0.3,0.2-0.4
		C50,7.2,50,7,50,6.9c0-0.1-0.1-0.2-0.1-0.3C49.9,6.5,49.8,6.5,49.7,6.5L49.7,6.5z M52,8l-0.1,0.5c0,0.1,0,0.1,0,0.2
		c0,0,0,0.1,0,0.1c0,0,0.1,0,0.2,0.1l0,0l-0.9-0.2l0,0c0.1,0,0.1,0,0.2,0c0,0,0.1,0,0.1,0c0,0,0-0.1,0.1-0.2l0.3-1.1
		c0-0.1,0-0.1,0-0.2c0,0,0-0.1,0-0.1c0,0-0.1,0-0.2-0.1l0,0l0.8,0.2c0.2,0.1,0.4,0.1,0.5,0.2c0.1,0.1,0.2,0.1,0.2,0.2
		c0,0.1,0,0.2,0,0.3C53.1,8,53,8,52.9,8.1c-0.1,0-0.2,0-0.3,0l0.3,0.7c0,0.1,0.1,0.1,0.1,0.2C53,9,53,9,53,9.1l0,0L52.5,9L52.1,8
		L52,8z M52.3,7.2L52,7.9l0.1,0c0.1,0,0.2,0,0.3,0c0.1,0,0.1,0,0.2-0.1c0.1,0,0.1-0.1,0.1-0.2c0-0.1,0-0.2,0-0.3
		c0-0.1-0.1-0.1-0.3-0.2L52.3,7.2z M55.9,8.4l-0.2,0.4l0,0c0-0.1,0-0.2,0-0.2c0-0.1,0-0.1-0.1-0.2c0,0-0.1-0.1-0.2-0.1l-0.1,0
		l-0.5,1.2c0,0.1-0.1,0.1-0.1,0.2c0,0,0,0,0,0.1c0,0,0.1,0,0.1,0.1l0.1,0l0,0L54,9.5l0,0l0.1,0c0,0,0.1,0,0.1,0c0,0,0.1,0,0.1,0
		c0,0,0-0.1,0.1-0.1l0.5-1.2l-0.1,0c-0.1,0-0.2-0.1-0.3,0c-0.1,0-0.2,0.1-0.3,0.2l0,0l0.2-0.4L55.9,8.4z"/>
	<path class="st1" d="M40.6,35.4l-1.1,1.8l0.4,0c0.2,0,0.3,0,0.4-0.1c0.1,0,0.2-0.1,0.3-0.2c0.1-0.1,0.1-0.2,0.2-0.4l0.1,0l0,0.7
		l-1.9,0.1l1.1-1.8l-0.3,0c-0.1,0-0.2,0-0.2,0c-0.1,0-0.1,0-0.2,0.1c-0.1,0-0.1,0.1-0.1,0.1c0,0.1-0.1,0.1-0.1,0.2l-0.1,0l0-0.5
		L40.6,35.4z M42.3,35.4l0.1,0.7l0,0c0.1,0,0.2-0.1,0.3-0.1c0.1-0.1,0.1-0.2,0.1-0.3l0.1,0l0.1,0.9l-0.1,0c0-0.1-0.1-0.2-0.1-0.2
		c0-0.1-0.1-0.1-0.1-0.1c-0.1,0-0.1,0-0.2,0l0.1,0.5c0,0.1,0,0.2,0,0.2c0,0,0,0,0.1,0c0,0,0.1,0,0.1,0l0.1,0c0.2,0,0.3-0.1,0.4-0.2
		c0.1-0.1,0.2-0.2,0.2-0.4l0.1,0l0,0.6l-1.8,0.1l0,0l0.1,0c0.1,0,0.1,0,0.1,0c0,0,0,0,0.1-0.1c0,0,0-0.1,0-0.2l-0.1-1.2
		c0-0.1,0-0.1,0-0.1c0,0,0-0.1-0.1-0.1c0,0-0.1,0-0.2,0l-0.1,0l0,0l1.7-0.1l0.1,0.5l-0.1,0c0-0.1-0.1-0.2-0.2-0.3
		c-0.1-0.1-0.1-0.1-0.2-0.1c-0.1,0-0.2,0-0.3,0L42.3,35.4z M45.1,36l0.1,0.5c0,0.1,0,0.2,0.1,0.2c0,0,0,0,0.1,0.1c0,0,0.1,0,0.2,0
		l0,0l-1,0.1l0,0c0.1,0,0.2,0,0.2,0c0,0,0,0,0.1-0.1c0,0,0-0.1,0-0.2l-0.2-1.2c0-0.1,0-0.2-0.1-0.2c0,0,0,0-0.1,0c0,0-0.1,0-0.2,0
		l0,0l0.9-0.1c0.2,0,0.4,0,0.5,0c0.1,0,0.2,0.1,0.3,0.1c0.1,0.1,0.1,0.2,0.2,0.3c0,0.1,0,0.2-0.1,0.3c-0.1,0.1-0.1,0.1-0.3,0.2
		l0.6,0.5c0.1,0.1,0.1,0.1,0.2,0.1c0,0,0.1,0,0.1,0l0,0l-0.6,0.1l-0.8-0.7L45.1,36z M45,35.1l0.1,0.8l0.1,0c0.1,0,0.2,0,0.3-0.1
		c0.1,0,0.1-0.1,0.1-0.1c0-0.1,0-0.1,0-0.2c0-0.1-0.1-0.2-0.2-0.3s-0.2-0.1-0.4,0L45,35.1z M48.6,35.2c0.2,0,0.3,0,0.4,0.1
		c0.1,0.1,0.2,0.1,0.2,0.3c0,0.1,0,0.3-0.1,0.4c-0.1,0.1-0.3,0.2-0.6,0.3l-1,0.2l0,0c0.1,0,0.2,0,0.2-0.1c0,0,0,0,0.1-0.1
		c0,0,0-0.1,0-0.2l-0.3-1.1c0-0.1,0-0.2-0.1-0.2c0,0,0,0-0.1,0c0,0-0.1,0-0.2,0l0,0l1-0.2c0.2,0,0.4-0.1,0.5,0
		c0.1,0,0.2,0.1,0.3,0.1c0.1,0.1,0.1,0.1,0.1,0.2c0,0.1,0,0.2,0,0.2S48.7,35.2,48.6,35.2L48.6,35.2z M48,35.3c0.1,0,0.2-0.1,0.3-0.1
		c0.1,0,0.1-0.1,0.1-0.1c0-0.1,0-0.1,0-0.2s-0.1-0.1-0.1-0.2s-0.1-0.1-0.2-0.1c-0.1,0-0.2,0-0.3,0L48,35.3z M48,35.4l0.1,0.6l0,0.1
		c0,0,0,0.1,0.1,0.1s0.1,0,0.1,0c0.1,0,0.1,0,0.2-0.1c0.1,0,0.1-0.1,0.1-0.2c0-0.1,0-0.1,0-0.2c0-0.1-0.1-0.2-0.1-0.2
		c-0.1-0.1-0.1-0.1-0.2-0.1C48.3,35.4,48.2,35.4,48,35.4L48,35.4z M51.1,35.1l-0.7,0.2l0,0.2c0,0.1,0,0.1,0,0.1c0,0,0,0.1,0.1,0.1
		c0,0,0.1,0,0.2,0l0,0l-0.7,0.2l0,0c0.1,0,0.1-0.1,0.1-0.1c0-0.1,0.1-0.2,0.1-0.3l0.3-1.6l0,0l1.2,1.2c0.1,0.1,0.2,0.2,0.3,0.2
		c0,0,0.1,0,0.2,0l0,0l-1,0.2l0,0l0,0c0.1,0,0.1,0,0.2-0.1c0,0,0,0,0-0.1c0,0,0,0,0,0c0,0,0,0-0.1-0.1L51.1,35.1z M51.1,35l-0.5-0.5
		l-0.1,0.7L51.1,35z M53.8,34.8L53.8,34.8l-1,0.3l0,0l0.1,0c0.1,0,0.1,0,0.1-0.1c0,0,0,0,0-0.1c0,0,0-0.1,0-0.2l-0.4-1.1
		c0-0.1-0.1-0.1-0.1-0.2c0,0,0,0-0.1,0c0,0-0.1,0-0.1,0l-0.1,0l0,0l1-0.3l0,0l-0.1,0c-0.1,0-0.1,0-0.1,0.1c0,0,0,0,0,0.1
		c0,0,0,0.1,0,0.2l0.4,1.1c0,0.1,0.1,0.1,0.1,0.2c0,0,0,0,0.1,0C53.7,34.8,53.7,34.8,53.8,34.8L53.8,34.8z M54.2,32.8L54.2,32.8
		l1-0.4l0,0l-0.1,0c-0.1,0-0.1,0-0.1,0.1c0,0,0,0,0,0.1c0,0,0,0.1,0.1,0.2l0.4,0.8c0.1,0.2,0.1,0.3,0.1,0.4c0,0.1,0,0.2-0.1,0.3
		c-0.1,0.1-0.2,0.2-0.3,0.2c-0.2,0.1-0.3,0.1-0.4,0c-0.1,0-0.2-0.1-0.3-0.2c0-0.1,0-0.1,0-0.2c0-0.1,0.1-0.1,0.1-0.1
		c0.1,0,0.1,0,0.2,0c0.1,0,0.1,0,0.1,0.1c0,0,0,0,0,0.1c0,0,0,0,0,0.1c0,0,0,0.1,0,0.1c0,0,0,0,0.1,0c0,0,0.1,0,0.2,0
		c0,0,0.1,0,0.1-0.1c0,0,0-0.1,0-0.1c0,0-0.1-0.1-0.1-0.3L54.6,33c0-0.1-0.1-0.1-0.1-0.2c0,0-0.1,0-0.1,0
		C54.4,32.8,54.3,32.8,54.2,32.8L54.2,32.8z M57.5,32.9l-0.6,0.3l0,0.2c0,0.1,0,0.1,0,0.1c0,0,0.1,0.1,0.1,0.1c0,0,0.1,0,0.2-0.1
		l0,0l-0.6,0.3l0,0c0.1,0,0.1-0.1,0.1-0.1c0-0.1,0-0.2,0-0.3l-0.1-1.6l0,0l1.4,1c0.1,0.1,0.2,0.2,0.3,0.2c0,0,0.1,0,0.2,0l0,0
		l-0.9,0.4l0,0l0,0c0.1,0,0.1-0.1,0.1-0.1c0,0,0,0,0-0.1c0,0,0,0,0,0c0,0,0,0-0.1-0.1L57.5,32.9z M57.4,32.8l-0.6-0.4l0,0.7
		L57.4,32.8z M58.7,30.9l1.5,0.5l-0.5-0.6c-0.1-0.1-0.1-0.1-0.2-0.2c-0.1,0-0.2,0-0.3,0.1l0,0l0.6-0.3l0,0c-0.1,0-0.1,0.1-0.1,0.1
		c0,0,0,0.1,0,0.1c0,0,0,0.1,0.1,0.2l0.9,1.3l0,0l-2.1-0.6l0.7,1c0.1,0.1,0.1,0.1,0.2,0.1c0.1,0,0.1,0,0.2,0l0,0l0,0l-0.6,0.3l0,0
		c0.1-0.1,0.1-0.1,0.2-0.2c0-0.1,0-0.1-0.1-0.2l-0.8-1.1l-0.1,0c-0.1,0-0.1,0-0.2,0c0,0-0.1,0-0.1,0l0,0L58.7,30.9z"/>
	<path class="st2" d="M37.5,7.6c12.5,0,22.7,6.1,22.7,13.5c0,7.4-10.2,13.5-22.7,13.5s-22.7-6.1-22.7-13.5
		C14.7,13.7,25,7.6,37.5,7.6L37.5,7.6z"/>
	<path class="st3" d="M18.9,27.6L18.9,27.6 M27.4,9.9L27.4,9.9 M44.5,10.5L44.5,10.5 M47.7,10L47.7,10 M32,10.9L32,10.9 M21,14.2
		L21,14.2 M45.4,15.3L45.4,15.3 M49.3,26.7L49.3,26.7 M18.1,27.8L18.1,27.8L18.1,27.8L18.1,27.8l0.4-0.1l0,0l0,0l0.4-0.1l0,0
		l0.6-0.1h0.1v0l0,0h0l0,0l0,0l0.6-0.1l0,0h0l0.9-0.2l0,0l0,0l0,0l0.5-0.1l0.1,0l0.5-0.1l0,0l0,0l0,0l0.5-0.1l0,0h0l0.3,0
		c-0.6-1.1-1-2.2-1.3-3.4l0.6,0.9c0.3,0.9,0.6,1.7,1.1,2.5l0.4-0.1l0,0l0,0l0.1,0l0.2,0.4l-0.3,0l-0.1,0l-0.2,0
		c0.7,1.2,1.7,2.3,2.8,3.2c0,0,0.1,0.1,0.1,0.1l-0.1,0.4c-0.1-0.1-0.2-0.2-0.3-0.2c-1.2-1-2.2-2.2-2.9-3.4l-0.5,0.1l0,0l-0.5,0.1
		l0,0l-0.5,0.1l0,0h0l-0.5,0.1h0l-0.9,0.2l0,0l-0.6,0.1L19,28l0,0l-0.4,0.1l0,0l-0.1,0c0.9,0.9,2,1.7,3.2,2.4
		c1.1,0.7,2.3,1.3,3.7,1.8l0,0L26,32l0,0l0.3-0.1l-0.1,0.4l-0.1,0l0,0l-0.4,0.1c0.1,0,0.2,0.1,0.4,0.1l-0.1,0.3
		c-1.7-0.6-3.2-1.3-4.6-2.1c-1.3-0.8-2.4-1.6-3.4-2.6l0,0l0-0.1c-0.2-0.2-0.5-0.5-0.7-0.7h0.5C17.9,27.6,18,27.7,18.1,27.8
		L18.1,27.8z M27.3,31.1c0.2,0.1,0.4,0.3,0.6,0.4l0,0l0,0l0.3-0.1l0,0l0.4-0.1l0,0l0.4-0.1l0,0l0.3-0.1l0,0l0.3-0.1l0,0L30,31l0,0
		l0.3,0l0.4-0.1l0,0l0.3,0l0,0l0.3-0.1l0,0l0.3,0h0l0.2,0c0-0.1-0.1-0.1-0.1-0.2h0.4c0,0,0,0.1,0.1,0.1l0.1,0l0,0l0.3,0h0l0.3,0
		L33,31h0v0l-0.3,0l0,0l-0.2,0c0.3,0.4,0.6,0.8,0.9,1.2l0.2,0.7c-0.5-0.5-1-1.1-1.5-1.8l0,0l0,0l-0.3,0l0,0l-0.3,0v0l-0.3,0.1l0,0
		l-0.3,0l-0.4,0.1l0,0l-0.3,0l0,0l-0.3,0.1l0,0l-0.3,0.1l0,0l-0.3,0.1v0l-0.4,0.1h0l-0.4,0.1l0,0l0,0c1.6,1,3.5,1.8,5.5,2.2l0.2,0.7
		c-2.5-0.2-5-0.7-7.1-1.4l0.1-0.3c2,0.6,4.2,1.1,6.6,1.4c-2.1-0.5-4-1.3-5.7-2.4l-0.3,0.1L27.2,32l0,0l-0.1,0l0.1-0.4l0.3-0.1
		c-0.1,0-0.1-0.1-0.2-0.2L27.3,31.1z M31.2,29.4c-0.4-0.9-0.7-1.8-1-2.8l-0.2,0l-0.4,0l0,0l-0.5,0l0,0l-0.5,0h0l-0.2,0l0.1-0.4l0,0
		l0,0l0.5,0h0l0.5,0h0l0.4,0l0.1,0c-0.3-1.3-0.5-2.7-0.6-4.2l0.3-1.4c0,0.1,0,0.1,0,0.2h0.8l0.1,0.4h-0.9c0,1.8,0.2,3.5,0.6,5l0.5,0
		l0,0l0.5,0h0l0.5,0l0.1,0.4l-0.5,0h0l-0.5,0l0,0l-0.4,0c0.3,1,0.6,2,1,2.8H31.2z M27.5,26.8L27.5,26.8l-0.5,0l-0.1,0l-0.3,0l0,0
		l0,0l-0.5,0l-0.1,0l-0.3,0l0,0l-0.2,0v-0.4l0.1,0l0,0h0l0.4,0l0,0l0.1,0l0.5,0l0.1,0l0.3,0l0,0l0,0l0.5,0l0.1,0l0.1,0L27.5,26.8z
		 M28.9,21.2h-3.4v-0.4H29L28.9,21.2z M29.8,17.3c0.1-0.5,0.2-1.1,0.3-1.6l-0.1,0l-0.1,0l0,0l-0.4,0l-0.1,0l-0.5,0h0l-0.5,0l0,0l0,0
		l-0.5,0l0,0h0l0,0l-0.5-0.1l-0.1,0v-0.2H26l-0.4-0.1l0,0L25,15.2h0l0,0l-0.5-0.1l0,0h0L23.9,15l0,0l0,0c-0.1,0.1-0.1,0.2-0.2,0.3
		h-0.4c0.1-0.1,0.2-0.3,0.2-0.4l-0.2,0l0,0l0,0l-0.5-0.1h0l0,0L22,14.6l0,0l0,0l-0.5-0.1h0l0,0l-0.5-0.1l0,0l0,0l-0.6-0.1l0,0
		l-0.5-0.1h0h0l0,0l-1-0.3c-0.5,0.5-1,0.9-1.4,1.4h-0.5c1.2-1.5,2.8-2.8,4.5-3.8c1.3-0.8,2.8-1.5,4.4-2l0-0.1l0.1,0
		c3.4-1.2,7.3-1.9,11.5-1.9l0,0l0,0c4.2,0,8.1,0.7,11.4,1.9l0.1,0l0,0.1c1.6,0.6,3.1,1.3,4.5,2.1c1,0.6,1.8,1.2,2.6,1.8l0,0l0.1,0.1
		c0.7,0.6,1.3,1.2,1.8,1.9h-0.5c-0.4-0.5-0.9-1-1.5-1.5l-0.2,0.1l0,0L55.3,14v0l0,0l0,0l-0.5,0.1l0,0l-0.5,0.1l0,0h0l0,0l-0.5,0.1
		l0,0l-0.6,0.1l0,0h0l-0.6,0.1l0,0h0l0,0l-0.7,0.1l0,0l0,0l0,0l-0.5,0.1c0.1,0.1,0.2,0.3,0.2,0.4h-0.3h-0.1C51,15.2,51,15.1,50.9,15
		l-0.3,0l0,0h0l-0.4,0.1l0,0l-0.6,0.1l0,0h0L49,15.3l0,0l-0.6,0.1l0,0l-0.3,0v-0.1h-2.7v0h0l0.6,0l0,0l0.5-0.1l0,0h0l0.6-0.1l0,0
		l0.7-0.1l0,0l0.5-0.1l0,0l0,0l0.6-0.1l0,0l0.5-0.1l0,0l0.6-0.1l0,0h0l0.4-0.1l0,0l0.1,0c-0.7-1-1.5-1.9-2.4-2.7
		c-0.6-0.5-1.2-0.9-1.8-1.4l-0.1,0l0,0l-0.3,0.1l-0.1,0l-0.3,0.1l0,0h0l-0.2,0l0,0l-0.3,0.1l0,0l0,0l0,0l-0.3,0.1l0,0h0l0,0l-0.3,0
		l0,0l-0.3,0l0,0h0l-0.4,0l0,0l0,0l-0.4,0l0,0l-0.3,0l0,0h0v0l-0.2,0c0.1,0.2,0.2,0.3,0.3,0.5c0.6,1.1,1.1,2.3,1.5,3.6H44
		c-0.4-1.3-0.9-2.5-1.4-3.5c-0.1-0.2-0.3-0.5-0.4-0.7l-0.2,0l0,0h0l-0.4,0l0,0l0,0l-0.4,0l-0.4,0h0l-0.3,0h0l-0.4,0h0l-0.4,0h0
		l-0.3,0h0l-0.3,0l-0.3,0l0,0l-0.4,0l0,0l-0.3,0h0l0,0h-0.3h-0.2l0,3.9h-0.4l0-3.9l-0.1,0h0h0h0l-0.4,0l-0.4,0h0l-0.3,0h0l-0.3,0
		l-0.3,0h0l-0.3,0h0l-0.3,0h0l-0.3,0h0l-0.3,0l0,0l-0.3,0h0l-0.4,0l0,0l0,0l-0.3,0h0l0,0l-0.3,0l0,0l-0.1,0
		c-0.1,0.2-0.3,0.4-0.4,0.7c-0.6,1-1.1,2.2-1.4,3.4h-0.3L29.8,17.3z M59,16.7c0.8,1.4,1.3,2.9,1.3,4.5l0,0l0,0c0,2-0.7,3.9-2,5.6
		c-0.2,0-0.3,0-0.4,0c1.3-1.7,2.1-3.5,2.1-5.5h-3.8v-0.4h3.8c-0.1-1.6-0.6-3.1-1.5-4.5C58.5,16.4,58.8,16.5,59,16.7L59,16.7z
		 M57.6,27.5c-0.1,0.1-0.2,0.2-0.3,0.4l0,0l0,0L57,28.1c-1,1-2.2,1.9-3.5,2.7c-4.1,2.4-9.8,4-16,4l0,0l0,0c-0.5,0-1,0-1.5,0L35.8,34
		c0.4,0.1,0.8,0.2,1.2,0.3l0-3.4l-0.1,0l-0.4,0l-0.4,0l0,0l-0.4,0l0,0l-0.3,0l0,0l-0.3,0l0,0l-0.1,0l-0.1-0.3l0.2,0h0l0.3,0h0l0.3,0
		h0l0.4,0h0l0.4,0l0.4,0h0l0.1,0l0-3h0.4l0,3h0.3H38h0l0.3,0l0.4,0l0.3,0l0.3,0h0l0.3,0h0l0.4,0l0,0l0.4,0h0l0.4,0h0l0.4,0l0.4,0
		l0,0l0.5,0h0l0.2,0c0.1-0.1,0.1-0.2,0.2-0.3c0.6-1.1,1.2-2.5,1.6-3.9l-0.5,0l-0.6,0l0,0l-0.5,0l0,0l-0.6,0h0l-0.6,0h0l-0.5,0l0,0
		l-0.5,0l-0.5,0h0l-0.6,0h0l-0.5,0h-0.5h0c0,0,0,0,0,0c-0.1-0.1-0.1-0.2-0.2-0.4h0.2h0.5l0,0h0l0.5,0h0l0.6,0l0,0l0.5,0l0.5,0h0
		l0.5,0h0l0.6,0h0l0.6,0h0l0.5,0h0l0.6,0l0.5,0l0.3,0.5c-0.4,1.5-0.9,2.8-1.6,4c0,0.1-0.1,0.1-0.1,0.2l0.2,0h0l0.4,0.1l0,0l0.4,0.1
		h0l0.4,0.1l0,0l0.3,0.1l0,0l0.4,0.1l0,0l0.3,0.1l0,0l0.4,0.1v0l0.3,0.1l0,0l0.3,0.1l0,0l0.4,0.1l0,0l0.1,0c0.5-0.3,1-0.7,1.4-1.1
		c1.1-1,2.1-2.1,2.8-3.3l-0.2,0h0l0,0L50.3,27l0,0l-0.4,0h0l0,0l-0.5-0.1l0,0l-0.4,0l-0.1,0l-0.5,0h0l-0.5,0l0,0l-0.6,0l0,0l-0.6,0
		h0l-0.5,0v-0.4l0.5,0l0,0l0.6,0h0l0.7,0h0l0.5,0l0,0l0.5,0l0,0l0,0l0.5,0h0l0,0l0.5,0.1l0,0l0.4,0h0l0,0l0.5,0.1l0,0l0.3,0
		c0.9-1.7,1.4-3.5,1.5-5.5h-6.6v-0.4h6.6c0-1.5-0.4-2.9-1-4.3c0.1-0.1,0.2-0.1,0.3-0.2c0.6,1.4,1,2.9,1,4.4h1.5v0.4h-1.5
		c0,2-0.5,3.9-1.4,5.6l0.5,0.1l0,0l0.1,0v0.4l-0.1,0l0,0l-0.6-0.1l0,0c-0.8,1.3-1.8,2.5-3,3.5c-0.4,0.3-0.8,0.6-1.2,0.9l0.2,0.1l0,0
		l0.4,0.1l0,0l0.4,0.1l0,0l0.3,0.1l0,0l0.4,0.1h0l0.3,0.1l0,0l0.3,0.1l0,0c1.4-0.5,2.7-1.1,3.8-1.8c1.3-0.7,2.4-1.6,3.3-2.5L56.4,28
		l0,0l-0.2-0.1l0,0l-0.3-0.1l0,0l-0.3-0.1l0,0l-0.3,0l0,0l0,0l-0.4-0.1l0,0l-0.5-0.1h2.1l0.1,0l0,0l0.4,0.1l0,0l0.1,0
		c0,0,0.1-0.1,0.1-0.1H57.6z M36.9,26.4l-0.4,0l-0.6,0l-0.5,0l0,0l-0.5,0l-0.5,0l0,0l-0.5,0h0l-0.1,0L33.7,26l0.2,0l0,0l0.5,0h0
		l0.5,0l0.5,0h0h0l0.5,0l0.6,0l0.6,0l0-4.8h-4.6l-0.1-0.4h4.7l0-4.1c0.1,0.2,0.1,0.5,0.1,0.8v0v7.5C37.2,25.8,37.1,26.2,36.9,26.4
		C36.9,26.4,36.9,26.4,36.9,26.4L36.9,26.4z M35.1,16l-0.3,0h0l-0.5,0h0l-0.5,0h0l-0.5,0h0l-0.5,0h0l-0.5,0h0l-0.5,0l0,0l-0.5,0h0
		l-0.2,0L31,15.4l0.3,0h0l0.5,0h0l0.5,0h0l0.5,0l0,0l0.5,0h0l0.5,0h0l0.5,0v0l0.5,0h0l0.3,0V16z M20.4,21.2h-2.7v-0.4h2.5L20.4,21.2
		z M16.9,21.2h-1.8c0,1.8,0.6,3.4,1.7,5c0,0.1-0.1,0.1-0.1,0.2c0,0-0.1,0.1-0.1,0.1c-1.1-1.6-1.8-3.4-1.8-5.3l0,0l0,0
		c0-1.8,0.6-3.5,1.5-4.9c0.2,0,0.3,0.1,0.3,0.1c-0.9,1.4-1.4,2.9-1.5,4.5h1.8V21.2z M37.5,8l0,3h0.2H38l0.3,0l0,0l0.4,0l0,0l0.3,0
		l0.3,0h0l0.3,0l0,0l0.4,0h0l0.4,0l0,0l0.3,0l0,0l0.4,0l0.4,0l0.1,0l0.4,0C40.7,9.1,39.1,8.1,37.5,8L37.5,8z M38.8,15.6l0.1,0l0.6,0
		l0.5,0l0.5,0l0,0l0.5,0h0l0.6,0h0l0.6,0l0,0l0.5,0h0l0.4,0v0.4l-0.3,0h0l-0.6,0h0l-0.6,0l0,0l-0.6,0h0l-0.5,0h0L40,16l-0.5,0L39,16
		L38.8,15.6z M38,20.8h2.6l0.2,0.4H38V20.8z M42.3,20.8h2.4c0-1.6-0.2-3.2-0.6-4.7c0.1,0,0.1,0,0.2,0c0.1,0,0.1,0,0.2,0
		c0.3,1.4,0.5,3,0.5,4.6h0.1v0.4h-0.1c0,1.2-0.1,2.3-0.3,3.4l-0.3-0.4c0.1-0.9,0.2-1.9,0.2-3h-2.2L42.3,20.8z M37.4,30.8l0,3.4
		c1.8,0,3.5-1.2,4.8-3.2l-0.1,0l0,0l-0.4,0v0l-0.4,0l-0.4,0l0,0l-0.4,0l0,0l-0.4,0h0l-0.4,0l0,0l-0.3,0l0,0l-0.3,0l-0.3,0l-0.4,0
		l-0.3,0h-0.3H37.4z M37.1,11l0-3c-1.6,0.1-3.1,1.1-4.4,2.8l0.2,0l0,0l0.3,0l0,0l0.4,0l0,0l0.3,0h0l0.3,0h0l0.3,0l0,0l0.3,0h0l0.3,0
		l0,0l0.3,0l0.3,0l0,0l0.3,0h0l0.4,0l0.4,0L37.1,11z M39.4,8.2c1.1,0.5,2.1,1.4,2.9,2.6h0l0,0h0l0.3,0l0,0l0.3,0l0,0l0.4,0l0.1,0
		l0.3,0l0,0l0.3,0l0,0h0l0.3,0l0.3-0.1h0l0.3-0.1l0,0h0l0.2,0l0,0l0.3-0.1l0,0h0l0.1,0C43.9,9.2,41.7,8.4,39.4,8.2L39.4,8.2z
		 M44.9,15.3l0.5,0l0,0l0,0H44.9z M42.6,31.1c-0.9,1.4-2,2.5-3.2,3c2.6-0.3,5-1.1,7-2.4l-0.2,0h0l-0.3-0.1l0,0l-0.3-0.1l0,0
		l-0.4-0.1l0,0l-0.3-0.1l-0.4-0.1l0,0l-0.3-0.1l0,0l-0.4-0.1v0l-0.4-0.1h0l-0.4-0.1l0,0L42.6,31.1z M24.7,21.2h-2.6l-0.5-0.7
		c0.1-1.5,0.5-3,1.1-4.3c0.1,0,0.3,0,0.4,0c-0.7,1.5-1.1,3-1.2,4.7h2.7V21.2z M30.3,15.4c0.4-1.4,0.9-2.6,1.5-3.7
		c0.1-0.2,0.2-0.4,0.3-0.5l-0.1,0h0l0,0l-0.3,0h0h0h0l-0.3,0L31,11h0l0,0h0L30.7,11l0,0l-0.3,0l0,0l0,0l-0.3,0l0,0l-0.3,0l0,0l0,0
		l-0.3-0.1l0,0l-0.4-0.1l0,0l-0.3-0.1h0l0,0l-0.3-0.1l0,0l0,0l0,0c-0.7,0.4-1.3,0.9-1.9,1.4c-0.9,0.8-1.8,1.7-2.4,2.7l0.5,0.1l0,0
		l0.5,0.1l0,0l0.5,0.1h0l0,0l0.5,0.1l0.5,0.1l0,0l0.6,0.1l0,0l0.5,0h0h0h0l0.5,0.1h0l0.4,0l0.1,0l0.5,0l0,0l0.5,0l0,0l0,0l0.3,0l0,0
		l0.2,0L30.3,15.4z M32.3,10.8c0.8-1.2,1.8-2.1,2.9-2.6c-2.3,0.3-4.5,1-6.4,2.1l0.3,0.1h0l0,0l0.4,0.1l0,0l0.3,0.1h0l0.3,0l0,0v0
		l0.3,0h0l0.3,0l0,0h0l0,0l0.3,0.1l0.3,0h0l0,0h0l0.3,0l0.3,0l0,0L32.3,10.8L32.3,10.8L32.3,10.8z M41.2,8.1c1.9,0.4,3.6,1.1,5.1,2
		l0.2,0l0,0l0.3-0.1l0,0l0.3-0.1l0,0l0,0l0.3-0.1l0,0l0.3-0.1l0,0l0,0l0.4-0.1l0,0l0,0C46.2,8.9,43.8,8.4,41.2,8.1L41.2,8.1z
		 M46.8,10.4c0.6,0.4,1.1,0.8,1.6,1.2c1,0.9,1.9,1.8,2.6,2.9l0.1,0l0,0h0l0.6-0.1l0,0l0.7-0.1l0,0l0.6-0.1l0,0l0.6-0.1l0,0h0
		l0.5-0.1l0,0l0.5-0.1l0,0h0l0.6-0.1l0,0l0.5-0.1c-0.7-0.6-1.5-1.1-2.4-1.7c-1.3-0.8-2.8-1.5-4.3-2l0,0l-0.2,0.1l0,0h0L48.4,10l0,0
		l0,0L48,10.1l-0.1,0l-0.2,0.1l0,0l-0.3,0.1l-0.1,0L47,10.4l0,0h0L46.8,10.4z M46.9,31.8c-1.7,1.1-3.7,2-5.9,2.4
		c2.9-0.3,5.7-0.9,8.1-1.8l-0.2-0.1l0,0l-0.4-0.1h0l-0.3-0.1l0,0l-0.4-0.1h0L47.4,32v0L47,31.9l0,0L46.9,31.8z M23.7,14.6
		c0.7-1.1,1.6-2.1,2.6-2.9c0.5-0.4,1-0.8,1.6-1.2l-0.2-0.1h0l0,0l-0.3-0.1l0,0h0l0,0L27,10.2l0,0l-0.3-0.1l0,0l0,0l-0.7-0.2l0,0
		c-1.6,0.6-3,1.2-4.3,2c-0.9,0.5-1.7,1.1-2.4,1.7l0.7,0.2l0.5,0.1h0l0,0L21,14l0,0l0.5,0.1l0,0l0.5,0.1l0,0l0.7,0.1l0,0l0.5,0.1l0,0
		L23.7,14.6z M28.3,10.1c1.5-0.9,3.1-1.6,4.9-2c-2.4,0.3-4.7,0.8-6.7,1.5l0.2,0.1l0,0l0.3,0.1l0,0l0.3,0.1l0.3,0.1l0.1,0l0.3,0.1
		l0,0L28.3,10.1z"/>
	<path class="st4" d="M14.9,15.3h3.3l6.2,9.4h0.2v-7.1v0c0-0.6-0.1-1-0.2-1.2c-0.1-0.1-0.3-0.2-0.6-0.2c-0.3-0.1-0.7-0.1-1.1-0.1
		v-0.8h4.7v0.8c-0.9,0-1.5,0.1-1.7,0.3c-0.2,0.1-0.2,0.5-0.2,1.2v0v9.8h-1l-6.6-10.1h-0.3v7.8c0,0.7,0.1,1.1,0.2,1.2
		c0.1,0.1,0.3,0.2,0.5,0.2c0.3,0.1,0.6,0.1,1,0.1h0.1h0.1v0.8h-4.7v-0.8H15h0.1c0.8,0,1.3-0.1,1.5-0.3c0.2-0.1,0.3-0.6,0.3-1.2v-7.5
		v0c0-0.6-0.1-1-0.2-1.2c-0.1-0.1-0.3-0.2-0.6-0.2c-0.3-0.1-0.7-0.1-1.1-0.1V15.3z"/>
	<path class="st4" d="M37.4,4.1c18.2,0,33.1,7.7,33.1,17.2S55.7,38.4,37.4,38.4c-0.1,0-0.3,0-0.4,0l-0.1,0l-6-23.2h-0.6l-4.6,19
		c-0.2,1-0.5,2.3-0.7,2.9C12.9,34.6,4.3,28.4,4.3,21.2C4.3,11.8,19.2,4.1,37.4,4.1L37.4,4.1z M34.9,38.4L34.9,38.4L34.9,38.4
		l0.2,0.9l0,0l0.2,0.9l0,0c0,0,0,0.1,0,0l0,0c0.6,0,1.3,0,2,0c18.6,0,33.8-8.5,33.8-18.9C71.2,11,56,2.5,37.4,2.5
		C18.8,2.5,3.6,11,3.6,21.4c0,8.1,8.9,15,21.8,17.7l0.3-1.2c0.2-0.7,0.3-1.4,0.5-2.3c0.2-0.9,0.4-1.8,0.5-2.2l0.7-2.8h5.5L34.9,38.4
		z M30.2,19.1l-2.5,10.3h5L30.2,19.1z"/>
	<path class="st4" d="M35.1,15.3h3.4l6.4,9.4h0.3v-7.1v0c0-0.6-0.1-1-0.3-1.2c-0.1-0.1-0.3-0.2-0.6-0.2c-0.3-0.1-0.7-0.1-1.2-0.1
		v-0.8h4.9v0.8c-1,0-1.6,0.1-1.8,0.3c-0.2,0.1-0.3,0.5-0.3,1.2v0v9.8h-1l-6.8-10.1H38v7.8c0,0.7,0.1,1.1,0.3,1.2
		c0.1,0.1,0.3,0.2,0.6,0.2c0.3,0.1,0.6,0.1,1,0.1h0.1H40v0.8h-4.9v-0.8h0.1h0.1c0.8,0,1.4-0.1,1.6-0.3c0.2-0.1,0.3-0.6,0.3-1.2v-7.5
		v0c0-0.6-0.1-1-0.3-1.2c-0.1-0.1-0.3-0.2-0.6-0.2c-0.3-0.1-0.7-0.1-1.2-0.1V15.3z"/>
	<path class="st4" d="M52.2,26.7h0.1h0.1c0.7,0,1.2,0,1.6-0.1c0.4-0.1,0.5-0.4,0.5-1v-8.4c0-0.5-0.1-0.8-0.3-0.9
		c-0.2-0.1-0.4-0.1-0.8-0.1h-0.1h-0.2h-0.1c-0.6,0-1.2,0.3-1.8,0.8c-0.3,0.2-0.5,0.6-0.7,1c-0.2,0.5-0.3,1-0.3,1.7h-0.6v-4.4
		l0.3,0.1l0.2,0c0.2,0,0.4,0,0.5,0h0.5h8.2h0.5c0.2,0,0.4,0,0.5,0l0.2,0l0.3-0.1v4.4h-0.6c-0.1-1.3-0.4-2.2-0.9-2.6
		c-0.5-0.5-1.1-0.7-1.7-0.8h-0.3h-0.2c-0.5,0-0.8,0-0.9,0.1c-0.1,0.1-0.2,0.4-0.2,0.9v8.4c0,0.4,0.1,0.7,0.3,0.9
		c0.3,0.2,0.9,0.2,2,0.2v0.8h-6.2V26.7z"/>
</g>
</svg>
