<?xml version="1.0" encoding="utf-8"?>
<!-- Generator: Adobe Illustrator 19.2.1, SVG Export Plug-In . SVG Version: 6.00 Build 0)  -->
<svg version="1.1" id="Слой_1" xmlns="http://www.w3.org/2000/svg" xmlns:xlink="http://www.w3.org/1999/xlink" x="0px" y="0px"
	 viewBox="0 0 172 80" style="enable-background:new 0 0 172 80;" xml:space="preserve">
<style type="text/css">
	.st0{clip-path:url(#SVGID_2_);}
	.st1{clip-path:url(#SVGID_4_);fill:#005BAA;}
	.st2{clip-path:url(#SVGID_4_);fill:#EC008C;}
	.st3{clip-path:url(#SVGID_4_);fill:#8C189B;}
	.st4{clip-path:url(#SVGID_4_);fill:#FFFFFF;}
</style>
<g>
	<g>
		<defs>
			<rect id="SVGID_1_" x="-27.3" y="-12" width="212.7" height="107.7"/>
		</defs>
		<clipPath id="SVGID_2_">
			<use xlink:href="#SVGID_1_"  style="overflow:visible;"/>
		</clipPath>
		<g class="st0">
			<defs>
				<rect id="SVGID_3_" x="-27.3" y="-12" width="212.7" height="107.7"/>
			</defs>
			<clipPath id="SVGID_4_">
				<use xlink:href="#SVGID_3_"  style="overflow:visible;"/>
			</clipPath>
			<path class="st1" d="M51.1,30.9C62,19.6,89.9,10.6,111.3,13.5c-3.3-5.9-8.5-9.6-16.1-9.4c-22.4,0.6-48.3,8.4-56.6,23.1
				c-10.1,18,12.1,51.1,12.1,51.1S36.8,45.8,51.1,30.9"/>
			<path class="st2" d="M116.2,14.4c-1.6-0.4-3.2-0.7-4.8-0.9c5.5,9.9,5.4,25.8,2.7,38.5C111,66.4,50.7,78.3,50.7,78.3
				c8.8-0.3,62.5-2.7,68.3-14.1C128.5,45.8,130.7,18,116.2,14.4"/>
			<path class="st3" d="M114.1,52c2.7-12.7,2.8-28.6-2.7-38.5c-21.4-3-49.4,6-60.2,17.4c-14.3,14.9-0.3,47.4-0.3,47.4
				S111,66.4,114.1,52"/>
			<path class="st4" d="M70.7,42.1c0.2,0.3,0.9,0.7,1.9,1.1l0,0c0,0,0,0,0.1,0c0,0,0.1,0,0.1,0c0.5,0.1,1,0.1,1.5-0.1v0
				c0,0,0.1,0,0.1,0c0,0,0.1,0,0.1,0c1.3-0.6,5.9-3.3,7.4-4.4c0.1,0,0.1-0.1,0.2-0.1h0c0.3-0.3,0.3-0.5-0.1-0.6h0c0,0-0.1,0-0.2,0
				c-1.1-0.2-5.2-0.4-6.6-0.3c0,0-0.1,0-0.1,0c0,0-0.1,0-0.1,0c0,0,0,0,0,0c-0.5,0.1-1,0.3-1.4,0.5c-0.9,0.5-2.5,2.2-2.9,2.8
				c0,0,0,0,0,0C70.4,41.3,70.4,41.7,70.7,42.1L70.7,42.1z"/>
			<path class="st4" d="M92,35c0,0-3.6,1.3-6.7,2.8l0,0c0,0,0,0-0.1,0c0,0,0,0,0,0C85,37.9,85,38,85.3,38.1c1.6,0.5,4.7,0.9,5.4,1
				l0,0c0,0,0.1,0,0.1,0c0,0,0,0,0,0h0c0.3,0,0.8-0.1,1-0.2c1.4-0.8,2.2-1.7,2.2-1.7c0.2-0.2,0.3-0.6,0.1-0.8
				c-0.3-0.6-1.4-1.3-1.4-1.3C92.6,34.9,92.3,34.9,92,35"/>
			<path class="st4" d="M84.8,36.8c0,0-0.1,0.1-0.1,0.1l0,0c-0.1,0.2,0,0.3,0.3,0l0.1-0.1c3-1.8,5.2-3.3,6.4-4.1l0.5-0.3
				c0.1-0.1,0.2-0.2,0.3-0.3l0,0c0.3-0.2,0.3-0.3,0.4-0.5c0,0,0.1-0.1,0.1-0.2l0,0c0.2-0.3,0.5-1.5,0.5-2.1c0.1-0.3-0.1-0.6-0.5-0.6
				h0c0,0,0,0,0,0c-0.1,0-0.2,0-0.3,0l0,0c-0.8-0.1-1.6,0-2,0.1l0,0c-0.3,0.1-0.5,0.2-0.7,0.4l0,0c0,0,0,0-0.1,0.1
				c-0.9,1-2.9,4-5,7.3L84.8,36.8z"/>
			<path class="st4" d="M83.5,36.3c0,0.1,0,0.1,0,0.2c0,0,0,0,0,0c0.1,0.3,0.2,0.3,0.3,0.1c0,0,0,0,0,0c0-0.1,0.1-0.1,0.1-0.2
				l0.1-0.2c1.6-3.2,3-6.5,3.4-7.6l0,0c0-0.1,0.1-0.2,0.1-0.3c0,0,0,0,0-0.1v0c0.1-0.4,0.1-0.9-0.1-1.2c-0.2-0.6-0.7-1.4-1-1.8h0
				c-0.2-0.3-0.6-0.3-1-0.1c0,0,0,0,0,0c-0.6,0.4-1.5,1.2-2,1.8l0,0c0,0,0,0,0,0c0,0-0.1,0.1-0.1,0.1c-0.2,0.3-0.4,0.8-0.4,1.2h0
				c0.1,2.6,0.3,5,0.6,7.8L83.5,36.3z"/>
			<path class="st4" d="M74,33c0,0.5,0.3,0.9,0.7,1.2v0c0,0,0,0,0,0c0.1,0.1,0.2,0.1,0.3,0.1l0,0c1.3,0.6,5.1,2.1,6.8,2.7l0.1,0
				c0,0,0.1,0,0.1,0c0,0,0,0,0,0v0c0.4,0.1,0.6-0.1,0.5-0.4h0c0,0,0,0,0,0c0-0.1,0-0.1-0.1-0.2l0-0.1c-0.9-2.3-1.9-4.5-2.9-6.4h0
				c-0.2-0.5-0.8-0.8-1.3-0.9l0,0c-0.1,0-0.1,0-0.2,0c-1-0.1-2.5-0.1-3.2,0c0,0,0,0,0,0c0,0,0,0,0,0c-0.1,0-0.1,0-0.1,0
				c-0.3,0.1-0.5,0.4-0.6,0.7c0,0,0,0,0,0c0,0.1-0.1,0.2-0.1,0.2C73.9,30.8,73.8,32.2,74,33C74,33,74,33,74,33"/>
			<path class="st4" d="M106,35.7c0.6-0.1,1.6-1.1,1.9-1.7c0.2-0.5-1.6,0-2.2,0.3C104.3,34.9,105.4,35.8,106,35.7"/>
			<path class="st4" d="M108.6,38.8c-0.7,0.6-0.9,0.7-1.6,1.3c-0.7,0.6-1.2,0.8-1.5,0.9c-0.2,0.1-0.3,0-0.4-0.1
				c0-0.1,0.6-1.7,0.9-2.5c0.1-0.3,0.7-1.3,0.1-1.2c-0.4,0.1-0.9,0.3-1.2,0.5c-1,0.5-1.3,1.3-1.8,2.6c-0.4,1-0.8,2.2-0.9,2.9
				c-0.2,1.5,1.3,0.9,1.7,0.7c1-0.4,2.2-1.1,3.7-2.5c1.3-1.2,1.6-1.8,1.7-2C110.8,37,108.9,38.5,108.6,38.8"/>
			<path class="st4" d="M100.5,42.8c-2.2,1.7-2.1,1.1-2,0c0.2-1.3,0.6-2.2,1.1-3.4c0.1-0.2,0.2-0.4,0.3-0.6c0.1,0,0.1-0.1,0.2-0.1
				c0.8-0.4,3-1.4,3.4-2.4c0.6-1.5,0.1-1.1-0.8-0.8c-0.4,0.1-1.1,0.4-1.8,0.7c0.5-1,1.1-1.8,1.6-2.8c1.8-3.6,2.8-5.7,2.8-6.4
				c0-0.5-0.4-0.6-0.9-0.3c-0.3,0.2-0.6,0.4-0.9,0.9c0,0,0,0,0,0c0,0,0,0,0,0c-0.1,0.2-0.3,0.3-0.5,0.5c-1.5,2-3.3,5.5-4.7,9.1
				c-1,0.4-1.2,0.5-2,1.3c0,0-0.9,0.9-0.9,1.2c0,0.5,0.9,0.4,1.9,0.1c-0.1,0.2-0.2,0.4-0.3,0.6c-0.2,0.3-0.6,0.9-1.1,1.6
				c-1.7,2.4-3.4,4.4-4.2,4.7c-0.3,0.1-0.4,0.2-0.5,0.1C91,46.7,91,46.5,91,46.2c0-0.1,0.1-0.5,0.4-1.3c0.1-0.3,0.1-0.4,0.2-0.5
				c0-0.5-0.1-0.6-0.4-0.8c-0.3-0.2-0.8-0.2-1.4,0.2c-2.4,1.3-6.3,5.7-6.6,5.9c0-0.3,0.8-3.9,1.2-5.2c0.2-0.5,0-1-0.2-1.2
				c-0.4-0.2-1.7,0.2-2,0.6c-0.3,0.4-0.6,0.9-0.8,1.4c-1.3,3.8-1.9,7.2-1.9,7.8c0,0.5,0.1,0.9,0.4,1.2c0.3,0.2,0.7,0.3,1.3,0
				c0.6-0.3,1.1-0.7,1.9-1.4c0,0,1.2-1.7,2.3-3c0.6-0.7,1.1-1.3,1.7-1.8c0.5-0.5,0.8-0.8,1-0.9c0.2-0.1,0.3-0.1,0.3,0
				c0,0.1-0.1,0.7-0.2,1.2c-0.1,0.6-0.1,1.4,0.1,1.6c0.5,0.6,1.2,0.3,2.1-0.2c0.8-0.4,2.8-1.5,5.8-5.8c0,0.4-0.1,0.7-0.1,1
				c-0.1,1.1,0.1,3.1,2.3,1.3C101.5,43.8,101.6,41.9,100.5,42.8"/>
			<path class="st4" d="M76.5,47.5c-1.9-1.2-5,0.3-6.7,3.2c0,0,0,0,0,0c0,0,0,0,0,0.1c-0.1,0.2-0.2,0.3-0.2,0.4
				c-1.3,2.7,0.8,4.5,2.5,3.6c0.2-0.1,0.3-0.2,0.3-0.4c0.1-0.5-0.1-1.3,0.5-2.8c0.8-1.8,2-3.1,2.8-2.7c0.7,0.3,0.7,2.1-0.1,3.9
				c-0.3,0.6-0.6,1.1-0.9,1.5l0,0c-0.1,0.1-0.2,0.3-0.3,0.4c-2,2.3-3.8,1.5-4.6,1.2c0,0,0,0,0,0l0,0c-0.1,0-0.2-0.1-0.3,0l-0.1,0
				c-0.3,0-0.6,0.2-0.8,0.5c-2.6,4.1-4.5,3.5-5.4,2.4c-0.6-0.7-0.9-1.9-0.8-3.2c0.2-1.4,0.7-3.1,1.8-4.6c0.6-0.7,3.1-3.4,4.6-4.3
				c0.6-0.3,1.7-0.9,1.3-1.5c-0.4-0.5-2.1-1.2-2.7-0.9c-1.6,0.6-3.7,4-5.1,6c-2.6,2.6-5.5,7.6-6.3,9.1c1.4-6.1,4.2-14.2,6.8-19
				c0.2-0.3,0.8-1.8,0.4-3.5c-0.5-2.3-1-2.3-1.2-2.2c0,0,0,0,0,0c0,0,0,0-0.1,0c-0.3,0.1-0.5,0.4-0.7,0.9C56,47.5,52.3,65.2,51.8,68
				c0,0.1,0,0.2,0,0.3c0,0.4,0.6,1.8,1.1,1.6c0,0,0,0,0,0c0,0,0,0,0.1,0c1.3-0.9,2.9-8,6.6-13.2c-0.3,1.6,0,3.1,1,4
				c1.8,1.8,5.3,1.2,8-1.2v0c0.4-0.4,0.9-0.6,1.3-0.6c0.7-0.1,1.9-0.1,3.1-0.6c1.2-0.6,2.6-1.5,3.7-3c0.2-0.3,0.4-0.5,0.5-0.8
				c0,0,0,0,0,0c0,0,0,0,0-0.1c0-0.1,0.1-0.2,0.1-0.2C78.6,51.5,78.3,48.6,76.5,47.5"/>
		</g>
	</g>
</g>
</svg>
