<?xml version="1.0" encoding="utf-8"?>
<!-- Generator: Adobe Illustrator 19.2.1, SVG Export Plug-In . SVG Version: 6.00 Build 0)  -->
<svg version="1.1" id="Слой_1" xmlns="http://www.w3.org/2000/svg" xmlns:xlink="http://www.w3.org/1999/xlink" x="0px" y="0px"
	 viewBox="0 0 172 80" style="enable-background:new 0 0 172 80;" xml:space="preserve">
<style type="text/css">
	.st0{fill:#DD2E27;}
	.st1{fill-rule:evenodd;clip-rule:evenodd;fill:#DD2E27;}
</style>
<g>
	<path class="st0" d="M123.9,38c0.3,0.3,0.6,0.6,0.8,1c-1.4,1.2-2.7,2-4.1,2.6c-1.3,0.6-2.7,0.9-4,0.9c-1.1,0-2-0.2-2.7-0.6
		c-0.7-0.4-1.2-0.9-1.6-1.7c-0.3-0.7-0.5-1.5-0.5-2.4c0-0.9,0.2-1.9,0.6-2.9c0.4-1.2,0.9-2.2,1.6-3.2c0.7-0.9,1.5-1.8,2.5-2.5
		c1-0.7,1.9-1.3,2.9-1.7c1-0.4,2-0.7,3-0.8c0.8-0.1,1.5-0.1,2.1,0c0.6,0.1,1.1,0.3,1.5,0.6c0.8,0.6,1.1,1.4,0.8,2.3
		c-0.2,0.6-0.5,1.1-1,1.4c-0.5,0.4-1,0.5-1.6,0.6c-1.4,0.1-2-0.6-1.6-2.2c0.2-0.9-0.1-1.4-0.9-1.3c-1,0.1-1.8,0.7-2.4,1.8
		c-0.3,0.6-0.6,1.2-0.9,2c-0.3,0.8-0.6,1.6-1,2.6c-0.2,0.6-0.4,1.2-0.6,1.8c-0.4,1.2-0.4,2.2-0.1,2.8c0.4,0.7,1,1,2,1
		c0.7,0,1.5-0.2,2.3-0.6C122,39.2,122.9,38.7,123.9,38L123.9,38z"/>
	<path class="st0" d="M113.5,28.4c-0.1,0.4-0.2,0.9-0.3,1.3c-0.5,0-1,0.3-1.6,0.7c-0.5,0.5-1.3,1.3-2.2,2.6
		c-0.9,1.2-1.8,2.5-2.7,3.8c-0.9,1.3-1.8,2.6-2.7,3.8c-0.9,1.3-1.8,2.6-2.8,3.9c-0.9,1.3-1.9,2.6-2.8,4c-1.2,1.6-2.1,2.8-2.9,3.6
		c-0.8,0.8-1.8,1.3-2.9,1.5c-1,0.2-1.7,0.1-2.2-0.3c-0.4-0.4-0.6-1-0.3-1.8c0.5-1.7,2.9-3.2,4.4-2.1c0.4,0.3,0.8,0.4,1.2,0.3
		c0.8-0.1,2.4-3.6,3-4.4c-0.3-1.7-0.5-3.4-0.6-5.2c-0.1-1.8-0.3-3.6-0.6-5.4c-0.2-1.3-0.9-1.9-1.9-1.8c0.1-0.4,0.2-0.9,0.4-1.3
		c1.5-0.3,3.1-0.5,4.6-0.8c0.8-0.1,1.5-0.3,2.3-0.4c0.8-0.1,1.5-0.3,2.3-0.4c-0.1,0.4-0.2,0.9-0.3,1.3c-1,0.1-1.6,0.6-1.8,1.3
		c0,0,0.1,1.6,0.2,3.2c0.1,1.6,0.2,3.2,0.2,3.3c0.7-0.1,4.1-5.1,4.7-6c0.4-0.6,0.7-1.2,0.9-1.7c0.1-0.2,0-0.4-0.2-0.6
		c-0.2-0.1-0.6-0.1-1.1,0c0.1-0.4,0.2-0.9,0.3-1.3c0.9-0.2,1.9-0.3,2.8-0.5C111.7,28.7,112.6,28.5,113.5,28.4L113.5,28.4z"/>
	<path class="st0" d="M77.8,34.1c1.3-0.2,2.6-0.4,3.9-0.6c1.3-0.2,2.6-0.4,3.9-0.6c-0.1,0.4-0.2,0.9-0.3,1.3
		c-0.5,0.1-0.9,0.4-1.2,0.8c-0.3,0.4-0.6,0.9-0.7,1.5c-0.2,0.9-0.5,1.8-0.7,2.8c0.9-0.1,1.7-0.4,2.4-1.1c0.7-0.6,1.4-1.5,2-2.5
		c1-1.6,2.1-2.8,3.2-3.4c1.1-0.7,2.2-0.9,3.3-0.6c-0.2,0.8-0.4,1.6-0.6,2.4c-0.2,0.8-0.4,1.6-0.6,2.4c-0.5,0.1-0.9,0.1-1.4,0.2
		c0.1-0.4,0.1-0.7-0.1-1c-0.2-0.3-0.5-0.4-0.9-0.3c-0.5,0.1-0.9,0.3-1.2,0.5c-0.3,0.3-0.7,0.7-1.2,1.3c-0.8,1-1.7,1.8-2.6,2.4
		c0,0.1,0,0.1,0,0.2c0.8-0.1,1.5-0.1,2.2,0c0.7,0.1,1.3,0.4,1.7,0.8c0.5,0.4,0.7,0.9,0.8,1.5c0.1,0.4,0.1,0.9,0.1,1.6
		c0,0.6,0.1,1.1,0.2,1.4c0.1,0.3,0.4,0.5,0.9,0.5c-0.1,0.4-0.2,0.9-0.3,1.3c-1,0.2-1.8,0.2-2.5,0.3c-3.2,0.3-4-0.5-4-1.7
		c-0.1-1.2,0.5-2.8,0.1-4.1c-0.1-0.5-0.9-0.5-2-0.2c-0.3,1.2-0.6,2.4-0.9,3.7c-0.3,1.2,0,1.8,0.9,1.9c-0.1,0.4-0.2,0.9-0.3,1.3
		c-1.3,0.2-2.6,0.4-3.9,0.6c-1.3,0.2-2.6,0.4-3.9,0.6c0.1-0.4,0.2-0.9,0.3-1.3c1-0.4,1.7-1.1,2-2.3c0.3-1.3,0.7-2.7,1-4
		c0.3-1.3,0.7-2.7,1-4c0.1-0.6,0.1-1.1,0-1.4c-0.2-0.3-0.5-0.5-0.9-0.4C77.5,35,77.7,34.5,77.8,34.1L77.8,34.1z"/>
	<path class="st0" d="M109.3,48.9c0.1,2.3,0.4,4.6,0.6,6.9c0,0,0,0,0,0c0,0,0,0,0,0c0.8-1.3,1.8-2.7,2.7-4c0.8-1.3,1.6-2.6,2.4-3.9
		c1.2-0.1,2.4-0.3,3.6-0.4c1.2-0.1,2.4-0.3,3.6-0.4c-0.1,0.4-0.2,0.9-0.3,1.3c-1,0.2-1.6,1-1.9,2.2c-0.3,1.3-0.7,2.6-1,3.9
		c-0.4,1.3-0.7,2.7-1.1,4c-0.3,1.2,0,1.9,0.9,2c-0.1,0.5-0.2,0.9-0.4,1.4c-1.3,0.2-2.6,0.3-3.9,0.5c-1.3,0.2-2.6,0.3-3.9,0.5
		c0.1-0.5,0.3-0.9,0.4-1.4c1-0.4,1.7-1.2,2-2.3c0.2-0.8,0.4-1.5,0.6-2.3c0.2-0.8,0.4-1.5,0.6-2.2c0.2-0.7,0.4-1.5,0.6-2.2
		c0.2-0.7,0.4-1.5,0.6-2.2c-0.1,0-0.1,0-0.2,0c-0.6,1.1-1.3,2.1-1.9,3.2c-0.7,1.1-1.3,2.1-2,3.2c-0.7,1.1-1.3,2.2-2,3.3
		c-0.7,1.1-1.3,2.2-2,3.3c-0.6,0.1-1.2,0.2-1.9,0.2c0-1-0.1-2-0.1-3c0-1-0.1-2-0.1-3c0-1-0.1-2-0.1-3c0-1-0.1-2-0.1-2.9
		c-0.1,0-0.1,0-0.2,0c-0.2,0.8-0.5,1.5-0.7,2.3c-0.2,0.8-0.5,1.5-0.7,2.3c-0.2,0.8-0.5,1.5-0.7,2.3c-0.2,0.8-0.5,1.6-0.7,2.3
		c-0.3,1.1-0.1,2.1,0.8,2.1l-0.3,1.5l-4.5,0c0.1-0.5,0.3-0.9,0.4-1.4c0.8,0.3,1.4-0.2,1.8-1.4c0-0.2,0.2-0.4,0.2-0.6
		c0.2-0.8,0.5-1.5,0.7-2.3c0.2-0.8,0.5-1.5,0.7-2.3c0.2-0.8,0.5-1.5,0.7-2.2c0.2-0.7,0.4-1.5,0.7-2.2c0.2-0.8-0.1-1.2-1-1.2
		c0.1-0.4,0.3-0.9,0.4-1.3C104.8,49.1,107,49.2,109.3,48.9L109.3,48.9z"/>
	<path class="st0" d="M137,56.5c-0.1,0.5-0.2,0.9-0.3,1.3c-0.9,0.8-1.9,1.3-3,1.5c-1.4,0.2-2.2-0.3-2.6-1.7c-0.1,0-0.1,0-0.2,0
		c-0.9,0.8-1.8,1.5-2.7,2c-0.9,0.5-1.9,0.8-2.8,1c-1.7,0.3-2.7,0-3.1-0.7c-0.4-0.7-0.5-1.5-0.3-2.4c0.5-1.9,1.6-3.4,3.3-4.6
		c1.7-1.2,3.9-2.1,6.8-2.6c0.1-0.4,0.2-0.7,0.3-1.1c0.3-1.3,0.4-2.2,0.2-2.6c-0.2-0.4-0.6-0.5-1.2-0.4c-0.7,0.1-1.5,0.7-2.4,1.7
		c-0.4,0.4-0.7,0.8-1,1.1c-0.3,0.3-0.7,0.5-1.1,0.5c-0.4,0.1-0.7,0-0.9-0.2c-0.2-0.2-0.3-0.5-0.2-0.9c0.2-0.8,0.9-1.5,2-2.3
		c0.6-0.4,1.2-0.7,1.9-0.9c0.7-0.3,1.5-0.5,2.4-0.6c2-0.4,3.5-0.1,4.2,0.8c0.8,0.9,0.9,2.4,0.3,4.6c-0.2,0.8-0.4,1.6-0.6,2.4
		c-0.2,0.8-0.4,1.6-0.6,2.5c-0.1,0.3-0.1,0.6-0.1,0.9c0,0.3,0.1,0.5,0.3,0.6C136,56.7,136.4,56.7,137,56.5L137,56.5z M131.7,51.9
		c-1,0.2-2,0.7-2.8,1.5c-0.9,0.8-1.4,1.8-1.7,2.8c-0.4,1.4,0,2,1.1,1.9c1.3-0.2,2.3-1.4,2.8-3.5C131.3,53.7,131.5,52.8,131.7,51.9
		L131.7,51.9z"/>
	<path class="st0" d="M158.1,41c-0.1,0.5-0.3,0.9-0.4,1.4c-1,0.3-1.7,1.1-2.1,2.3c-0.4,1.4-0.8,2.7-1.1,4.1c-0.4,1.3-0.8,2.7-1.1,4
		c-0.3,1.1,0,1.8,0.8,1.9c-0.1,0.4-0.3,0.9-0.4,1.3c-1.3,0.2-2.6,0.4-3.9,0.5c-1.3,0.2-2.6,0.4-3.8,0.5c0.1-0.4,0.2-0.9,0.4-1.3
		c1-0.3,1.7-1.1,2-2.3c0.3-0.9,0.5-1.9,0.8-2.9c-1.3,0.1-2.2,0.4-2.7,1c-0.5,0.5-1.1,1.3-1.6,2.3c-0.7,1.3-1.5,2.3-2.5,3.1
		c-1,0.7-2.1,1.2-3.4,1.4c-0.4,0-0.9,0.1-1.7,0.1c0.1-0.4,0.2-0.9,0.4-1.3c0.4-0.1,0.8-0.3,0.9-0.5c0.2-0.3,0.4-0.7,0.8-1.4
		c0.6-1.3,1.4-2.3,2.4-3s2-1.2,3-1.4c0-0.1,0-0.1,0.1-0.2c-1.7,0.1-2.8-0.1-3.5-0.6c-0.7-0.5-0.8-1.4-0.5-2.6c0.5-1.8,1.5-3,2.9-3.6
		c0.7-0.3,1.6-0.6,2.6-0.8c1-0.2,2.1-0.5,3.3-0.7c1.4-0.2,2.7-0.4,4.1-0.6C155.3,41.4,156.7,41.2,158.1,41L158.1,41z M151.2,43.5
		c-0.2,0-0.3,0-0.5,0.1c-1,0.2-1.9,0.4-2.8,0.9c-0.9,0.4-1.5,1.3-1.9,2.5c-0.3,1.1-0.1,1.8,0.5,2c0.6,0.3,1.7,0.3,3.2,0.1
		c0.3-0.9,0.5-1.8,0.8-2.8C150.7,45.4,151,44.4,151.2,43.5L151.2,43.5z"/>
	<path class="st1" d="M42.9,18.5L42.9,18.5v-0.7c0-16.1-25.2-15.3-32.2-3.1C7,21,10,27.2,18.8,27.1c3.4,0,7.6-0.5,12.5-2.9
		C29.1,28,9.7,32.1,6,24.5C2.5,16.9,8.9,9.9,15.8,6.8c9.4-4.3,30-4.1,32.6,8.7c1,8.1-5.1,19.7-11.6,29.2c-2.5,3.6-4.3,5.9-7.9,8.8
		c-0.5,0.4-1.1,0.9-1.6,1.3c-1.8,1.4-3,2.3-3.5,2.3C24.3,44.8,33.3,27.2,42.9,18.5L42.9,18.5z M29.9,49.3c-0.5-9,5.6-21.9,12.5-27.6
		C42.9,33.9,30.4,52,29.9,49.3L29.9,49.3z"/>
	<path class="st1" d="M42.8,21c-0.1,0.5,0.2-2,0.1-2.5c5.4-4.2,15.5-14.5,28-15.6c4.9-0.4,6.9,3.8,5,7.7c-3.9,7.9-15.7,17-18.4,18
		c-0.2,0.1,0.6-1.2,0.5-1.2c-6.6,0.2-14,8.6-14.3,12.4c3.3-1.6,10.9-6.6,13.9-10c0.1-0.2,0.6-0.7,1.2-0.8c0.5-0.1,1.4,0.1,1.6,0
		c0.3-0.4-2.9,0-2.9-0.4c-0.3-1.1,11.3-11.7,13.3-16.1c0.8-1.9,0.2-5.2-2.4-5.7C58.8,4.8,42.9,20.7,42.8,21L42.8,21z"/>
	<path class="st1" d="M61,35.6c-3.5,2.3-7.7,6.5-10.3,9.6c-6.1,8.1-7.5,20.3,4.4,17.7c10-2.3,20.1-16.3,18-26.3
		c-1.3-6-6.6-10.2-13.4-8.8c-0.9,0.2-1.6,0.5-2,1l-0.2-0.2c0.2,0.2,0.4,0.5,0.8,0.5c1.7,0,5,0,7,2.5c3.8,4.8,0.7,13-2.1,17.7
		c-2.5,4.1-6.4,7.5-11.1,7.9c-4.6,0.4-4.7-4-3.4-7.3C51.2,43.2,61.2,35.3,61,35.6L61,35.6z"/>
	<path class="st1" d="M58.6,27.6c0.2,0.2,0.2,0.7-0.1,1.1c-0.3,0.3-0.8,0.4-1,0.1c-0.3-0.2-0.2-0.7,0.1-1
		C57.9,27.4,58.4,27.3,58.6,27.6L58.6,27.6z"/>
	<path class="st0" d="M144.9,39.3c0.1-20.6-26-21.3-41.1-19.4c-10.3,0.9-19.7,3.9-28.7,7.7c17.5-9.2,42-13.8,61.4-9.7
		c9.6,2,23.1,8.3,21,20.2L144.9,39.3z"/>
	<path class="st0" d="M124.1,63.2c-9.8,7.2-24.8,11.5-41.5,14.8c19.8-1.4,38.1-6.3,54.4-16.4L124.1,63.2z"/>
	<path class="st1" d="M149.3,19.2c0.6-1.7,3.2-5.2,4.5-6.4c0.8-0.8,3-2.5,4.5-3.6c3.5-2.4,9.2-2.2,6.4,2.5c-0.8,1.4-1.8,1.6-2.3,2.3
		c-0.5,0.6-0.1,1.1,0.4,1.6c0.9,1.1,1.6,1.6,0.2,2.7c-1.4,1-4.3,1.6-7,2c-1.9,0.2-3.5,0.1-4.8,0.1c0.2-0.4,1.7-0.3,4-0.8
		c3.9-0.7,8.9-1.9,7.5-3c-0.6-0.5-1.7-1.2-1-3.2c0.4-1.2,3.2-1.6,2.7-4c-0.2-0.8-1.7-0.7-3.1-0.3c-3.1,1-6.9,4.5-9.2,6.9
		C151.6,16.5,149.7,19.3,149.3,19.2L149.3,19.2z"/>
	<path class="st1" d="M148.4,18.8c-0.6-3.1-1.4-17.7,4.4-15.7c2,0.7,1.2,3.8,1.3,5.1c0.1,0.6,0.3,0.6,0.7,0.9
		c0.9,0.7,0.7,2.3,0.1,2.3c-0.3-1.9-0.4-1.2-1.2-1.7c-0.4-0.3-0.6-0.5-0.7-1c-0.2-1.6,0.9-4.6-0.8-4.8c-1-0.1-1.3,0.4-1.7,1.2
		C148,10.1,148.5,19,148.4,18.8L148.4,18.8z"/>
	<path class="st1" d="M154.9,24.4c-0.2-0.5-4.2-3.5-4.9-3.9c-1.2-0.7-2.4-1.4-3.8-1.7c-0.7-0.2-0.8-0.1-0.6,0.6
		c0.2,0.5,0.5,0.8,0.7,0.8c0,0,0-0.1,0-0.1c0-0.7-0.5-0.8,0.4-0.6c0.7,0.2,4.1,1.9,4.5,2.4c0,0,0.7,0.6,0.8,0.6c0,0-0.1,0-0.3-0.1
		c-1-0.4-4.3-1.5-4.9-1.6c0,0.4,3.1,1.5,5.3,2.3c1.1,0.4,1.9,0.9,2.1,1.1C154.4,24.3,154.9,24.5,154.9,24.4L154.9,24.4z"/>
	<path class="st0" d="M145.4,18.3c-0.1-0.3-1.3-1.3-1-1.5C144.8,16.5,145.3,18.1,145.4,18.3L145.4,18.3z"/>
	<path class="st0" d="M145,18.7c-0.3-0.1-1.2-1.3-1.4-1.1C143.2,18,144.8,18.6,145,18.7L145,18.7z"/>
</g>
</svg>
