<?xml version="1.0" encoding="utf-8"?>
<!-- Generator: Adobe Illustrator 19.2.1, SVG Export Plug-In . SVG Version: 6.00 Build 0)  -->
<svg version="1.1" id="Слой_1" xmlns="http://www.w3.org/2000/svg" xmlns:xlink="http://www.w3.org/1999/xlink" x="0px" y="0px"
	 viewBox="0 0 172 80" style="enable-background:new 0 0 172 80;" xml:space="preserve">
<style type="text/css">
	.st0{filter:url(#Adobe_OpacityMaskFilter);}
	.st1{mask:url(#SVGID_1_);}
	.st2{fill:#962F34;}
	.st3{fill:url(#SVGID_2_);}
	.st4{fill:url(#SVGID_3_);}
	.st5{fill-rule:evenodd;clip-rule:evenodd;fill:#DA2128;}
	.st6{fill-rule:evenodd;clip-rule:evenodd;fill:#D1D3D4;}
	
		.st7{fill-rule:evenodd;clip-rule:evenodd;fill:#CEA40A;stroke:#CEA40A;stroke-width:0.6176;stroke-linecap:round;stroke-linejoin:round;}
	.st8{fill-rule:evenodd;clip-rule:evenodd;fill:#FFFFFF;}
	.st9{fill-rule:evenodd;clip-rule:evenodd;fill:#B8292F;}
	.st10{fill-rule:evenodd;clip-rule:evenodd;fill:#A54686;}
	.st11{fill-rule:evenodd;clip-rule:evenodd;fill:#2E3192;}
	.st12{fill-rule:evenodd;clip-rule:evenodd;fill:#00AEEF;}
	.st13{fill-rule:evenodd;clip-rule:evenodd;fill:#00A651;}
	.st14{fill-rule:evenodd;clip-rule:evenodd;fill:#FFF200;}
	.st15{fill-rule:evenodd;clip-rule:evenodd;fill:#F58220;}
</style>
<g>
	<g>
		<defs>
			<filter id="Adobe_OpacityMaskFilter" filterUnits="userSpaceOnUse" x="0" y="9.2" width="172" height="63.8">
				<feFlood  style="flood-color:white;flood-opacity:1" result="back"/>
				<feBlend  in="SourceGraphic" in2="back" mode="normal"/>
			</filter>
		</defs>
		<mask maskUnits="userSpaceOnUse" x="0" y="9.2" width="172" height="63.8" id="SVGID_1_">
			<g class="st0">
				
					<image style="overflow:visible;" width="734" height="283" xlink:href="24E8EADD.jpg"  transform="matrix(0.24 0 0 0.24 -2 7.2202)">
				</image>
			</g>
		</mask>
		<g class="st1">
			<path class="st2" d="M39.9,9.2c-9.6,2.3-21.2,10-23.5,33.5C14.5,61.5,7.3,69.7,0,73h132.1c7.3-3.3,14.5-11.4,16.4-30.2
				c2.3-23.6,14-31.3,23.6-33.5H39.9z"/>
		</g>
	</g>
	
		<linearGradient id="SVGID_2_" gradientUnits="userSpaceOnUse" x1="-436.2534" y1="-1181.1055" x2="-436.2534" y2="-1243.7115" gradientTransform="matrix(-1 0 0 -1 -353.0049 -1173.0986)">
		<stop  offset="0.4045" style="stop-color:#FFFFFF"/>
		<stop  offset="0.5761" style="stop-color:#FFFDFB"/>
		<stop  offset="0.6609" style="stop-color:#FFF8F1"/>
		<stop  offset="0.7267" style="stop-color:#FFF2E4"/>
		<stop  offset="0.7827" style="stop-color:#FFEAD3"/>
		<stop  offset="0.8325" style="stop-color:#FFDFBD"/>
		<stop  offset="0.8771" style="stop-color:#FED3A4"/>
		<stop  offset="0.9157" style="stop-color:#FDC689"/>
	</linearGradient>
	<path class="st3" d="M39.5,8.2c-9.1,2.2-20.1,9.6-22.3,32.1c-1.8,18.1-8.6,25.8-15.6,29H127c6.9-3.2,13.8-11,15.5-29
		c2.2-22.6,13.3-30,22.4-32.1H39.5z"/>
	
		<linearGradient id="SVGID_3_" gradientUnits="userSpaceOnUse" x1="77.3616" y1="186.448" x2="77.3616" y2="123.1764" gradientTransform="matrix(1 0 0 1 5.8289 -115.3897)">
		<stop  offset="0" style="stop-color:#A46F2E"/>
		<stop  offset="0.5393" style="stop-color:#FFF200"/>
		<stop  offset="0.8233" style="stop-color:#C99C2D"/>
		<stop  offset="1" style="stop-color:#A46F2E"/>
	</linearGradient>
	<path class="st4" d="M19.4,40.4c-1.8,18.1-8.6,25.8-15.6,29h1.8c6.9-3.2,13.8-11,15.6-29c2.2-22.6,13.3-30,22.4-32.1h-1.8
		C32.7,10.4,21.6,17.8,19.4,40.4z M161.1,8.2c-9.1,2.2-20.1,9.5-22.4,32.1c-1.8,18-8.6,25.8-15.6,29l1.5,0c6.9-3.2,13.8-11,15.5-29
		c2.2-22.6,13.3-30,22.4-32.1H161.1z"/>
	<path class="st5" d="M129,38.5c-0.2-0.3-0.4-0.5-0.7-0.7c-0.3-0.2-0.6-0.2-0.9-0.2c-0.3,0-0.6,0.1-0.9,0.2
		c-0.3,0.2-0.5,0.4-0.7,0.7c-0.2,0.3-0.3,0.6-0.3,1c0,0.3,0.1,0.6,0.3,0.9c0.2,0.3,0.4,0.5,0.7,0.7c0.3,0.2,0.6,0.2,0.9,0.2
		c0.3,0,0.6-0.1,0.9-0.2c0.3-0.2,0.5-0.4,0.7-0.7c0.2-0.3,0.2-0.6,0.3-0.9C129.3,39.1,129.2,38.8,129,38.5z M128.7,40.2
		c-0.1,0.2-0.3,0.4-0.5,0.5c-0.2,0.1-0.5,0.2-0.8,0.2c-0.3,0-0.5-0.1-0.8-0.2c-0.2-0.1-0.4-0.3-0.6-0.5c-0.1-0.2-0.2-0.5-0.2-0.8
		c0-0.3,0.1-0.5,0.2-0.8c0.1-0.2,0.3-0.4,0.6-0.6c0.2-0.1,0.5-0.2,0.7-0.2c0.3,0,0.5,0.1,0.7,0.2c0.2,0.1,0.4,0.3,0.6,0.6
		c0.1,0.2,0.2,0.5,0.2,0.8C128.9,39.7,128.8,40,128.7,40.2z M127.9,39.8c-0.1-0.1-0.1-0.1-0.1-0.2c0,0-0.1-0.1-0.1-0.1
		c0.2,0,0.3-0.1,0.4-0.2c0.1-0.1,0.1-0.2,0.1-0.4c0-0.1,0-0.2-0.1-0.3c-0.1-0.1-0.1-0.1-0.2-0.2c-0.1,0-0.2-0.1-0.3-0.1
		c-0.1,0-0.3,0-0.6,0h-0.4v2h0.4l0-0.8l0.1,0c0.1,0,0.2,0,0.3,0.1c0.1,0.1,0.2,0.2,0.3,0.4l0.2,0.3h0.5l-0.2-0.4
		C128,39.9,128,39.8,127.9,39.8z M127.6,39.3c-0.1,0-0.2,0-0.4,0H127v-0.5h0.2c0.2,0,0.4,0,0.4,0c0.1,0,0.1,0,0.1,0.1
		c0,0,0,0.1,0,0.1c0,0.1,0,0.1-0.1,0.1C127.7,39.2,127.6,39.2,127.6,39.3z"/>
	<path class="st6" d="M128.1,51.5l-0.2-0.6l-0.4-1.8c0.3-1.8,0.7-4.1-2.5-5.2c-2.6-0.4-4.9-0.7-7.2,1.3l-0.4,0.4l0.2,1.5
		c0,0,0.5,0.7,0.6,0.9c-0.2,0.2-0.5,0.3-0.6,0.6c-0.8-1.3-1.7-2.6-2.9-3.6l-0.9-0.7l-0.5,0.7l-3.2,4.6c0,0-0.2,0.3-0.3,0.5
		c-0.1-0.5-0.3-1.2-0.3-1.2c0.1-0.6,0.2-1.2,0.2-1.8c0-1.3-0.5-2.7-2.7-3.4c-2.6-0.4-4.9-0.7-7.2,1.3l-0.4,0.4l0.2,1.5
		c0,0,0.5,0.7,0.6,0.9c-0.2,0.2-0.6,0.4-0.7,0.6c-0.1,0.1,0,0.2-0.1,0.4c-0.2-0.2-0.5-0.7-0.5-0.7l-1-1.6c-1.1-1.8-1.6-2.6-2.4-2.8
		l-0.4-0.1L94.8,44c-1.9,1.1-2.8,2.8-3.7,4.4c0,0-0.8,1.4-1.2,1.9c-0.1,0-0.2,0-0.2,0c-0.1,0-0.2,0.1-0.3,0.1
		c-0.1-0.1-0.2-0.1-0.2-0.2c0,0,0.9-1.6,0.9-1.6c0-0.1,0-0.2,0-0.3c0-1.1-0.4-2-1.2-2.8c-1.4-1.4-3.8-1.7-5-1.5l-0.1,0
		c-1,0.2-2.3,1.4-3.1,2.9c-1.2-1.7-3.8-2.4-5.7-2.5c-0.4,0-1.5,0-2.1,0.5l-0.4,0.5c0.1-0.2,0.2-0.4,0.4-0.5c-0.8,0.5-1.4,1.2-1.8,2
		c-0.3-0.5-0.8-1.1-1.8-1.6c0.8,0.2,1.5-0.1,2.3-0.6l0,0l0.6-0.4l0.6-0.4l2.3-1.3l0.2,0c0.2,0,0.4,0,0.5,0.1l3.5,2.7l-0.6-2.7
		l-0.1-0.5c0,0-0.1-0.3-0.2-0.6c0,0,0.2,0.1,0.5,0.3v0l0.1,0c0.9,0.6,2.6,1.6,2.6,1.6l-0.3-0.8l0.6,0l0.5-0.1l0.3-0.1l0.3-0.1
		l1.8,0.4l2.4-0.1c0,0,0.1-0.7,0.2-1c0.1-0.1,0.5-0.4,0.5-0.4l0.3-0.4l0-0.4l1.6,0.9l0,0l2,1.1l0.4,0.2l0.6,0.2l0.5,0.1l0.6,0.1
		l0.5-0.1l4.1-0.9l-3.9-1.5l-0.2-0.1L94,40.7l-0.1,0l-0.8-0.3c-0.2-0.1-1.3-0.7-1.3-0.7l-0.3-0.2l-0.3-0.2l-2.5-1.5v0l-0.4-0.2
		L87,36.9l0,0.1l0,0l-2.2-1.1v-0.1l-0.4-0.6l-0.1-0.2l0.2-0.5l0.2-0.3l0.1-0.7l-0.2-1l-0.2-0.6l-0.7-0.6L83.2,31
		c0,0-0.5-0.2-0.6-0.2c0.1-0.2,0.2-0.5,0.3-0.8l0-0.1l0,0c0.4-0.9,0.8-2.1,0.8-2.1l0.4-1.7l0.2-1.7l0-1.8L84.3,21l-0.1-1.5L84,18.2
		l-0.3-1.7l-0.1-0.6l-0.1-0.6l-0.3-1.1l-0.7-0.5l-0.6-0.2l-0.3,0.1l-0.6,0.1L81,13.7L81,13.3l-1.3,1l-0.4,0.2l0,0.1l-0.3,0.2
		l-0.7,0.7l-0.7,0.9L77.3,17L77,17.5L76.7,18l-0.3,0.6L76,19.1l-0.7,1.2l-1.2,1.9l-0.8,1.4L73,24.2l0-0.1l-1,2.1l-0.3,0.6l-0.3,0.7
		l-0.1,0.3l0-0.4l0-0.7l0-0.9l0.2-1.6l0.1-0.9l0.1-0.8l0.2-0.8l0.2-0.8l0.2-0.7l0.3-0.6l0.3-0.5l0.6-0.8l0-0.2l0.5-0.7l-0.8-0.3
		l-0.2-0.5l-0.9-0.1l-0.4,0.1l-0.4-0.1l-0.1,0.2l-0.4,0.1l-0.4,0.9l-1.1-1.2l-1,1.4L68,18.4l-0.3,0.9l-0.2,1.1l-0.1,1.4l-0.1,1.6
		l0,1.8l0.1,1.8l0.3,1.9l0.4,1.7l1.1-0.3l-0.1,0.1L69,30.8c0,0,0,0.1,0,0.1c-0.1,0-0.3,0-0.3,0l-0.9,0l0,0l-0.6,0l-1.6,0l0.1,0.1
		l-0.9,0.1l-0.8,0.2l-0.7,0.1l-3.8,0.9l-0.7,0.2L58,32.7l-1.8,0.4l-1.6,0.5L54,33.8l-0.5,0.2L53,34.3l-0.4,0.2l-0.8,0.6l-0.4,0.4
		l-0.5,0.6l-0.4,0.7l-0.3,0.6l0.4,0.8l0.2,0.3l0.7,0.5l0.6,0.3l1.3,0.6l0.8,0.4l0.6,0.3l0.6,0.3l0.8,0.3l0.7,0.3l0.8,0.3l0.7,0.3
		l0.9,0.3l0.8,0.2l0.9,0.2l0.8,0.2l0.9,0.1l0.8,0.1l0.8,0l1.8-0.2l0.5-0.1c0,0,0.1,0,0.1,0c0,0.1,0,0.6,0,0.6l0.5,0.5l0.7,0.7
		c0,0,0.9,0.8,1.1,1c-0.9-0.4-2.2-0.6-3.9-0.4c-1.3-0.9-2.9-1.1-4.6-0.1c0,0-0.1,0.1-0.2,0.1c0,0-0.1-0.1-0.1-0.1
		c-1.3-0.4-2.9-1-4.5-0.1L55,45c0,0,0,0.1,0,0.1c-0.1,0-4.8-1-4.8-1l0.1,1.1l-0.1,0.8c-0.2,1.1-0.4,2.4-0.4,3.6
		c0,0.3,0.1,0.6,0.1,0.9c-0.1,0-0.2-0.2-0.3-0.2c-0.1,0-0.6,0.2-1,0.3l0,0l0.1-0.7c0-0.1,0.1-0.5,0.1-0.5l0.9-3.9l0.1-0.4l0.6-4.6
		l-0.4-3.3c-0.6-1-1.4-1.3-2.1-1.2C47,36,46.3,36.5,46,37.1c0.1-0.1-1.6,2.4-1.6,2.4c0,0.1-1.1,2-2.1,3.8c0.2-2.7,0.4-4.9,0.4-6.3
		c0-0.5,0-0.9-0.1-1.1c-0.3-1.1-0.9-1.8-1.8-2c-0.9-0.2-1.8,0.2-2.4,1.1l-0.1,0.1c-3.9,6.3-7,13.1-10,19.7c-0.1,0.2-2.8,5.9-2.8,5.9
		c0,0-0.6,1-0.6,1c-0.2,0.6-0.3,1-0.3,1.4c0,0.5,0.2,1,0.4,1.3c0.8,0.8,1.8,0.6,2.2,0.5c1.5-0.3,1.9-1.1,2.1-1.6
		c0-0.1,0.2-1.2,0.2-1.2l2.4-5.8l1.6-3.4l1.7-3.5c0,0,0.7-1.4,1.3-2.5c-0.2,1.5-0.4,3-0.4,4.4c0,1.1,0.1,2.2,0.4,3.2
		c0.2,0.7,0.8,1.2,1.6,1.4c0.9,0.2,1.8-0.1,2.3-0.8c1.5-1.9,2.5-4.1,3.5-6.2c-0.1,0.3-0.1,0.7-0.1,0.7c0,0-0.4,2.6-0.4,2.6
		c0,1.7,0.7,2.8,2.2,3.5c3.7,0.5,5.1-1.3,5.5-1.9c0.2-0.2,0.1-0.5,0.2-0.7c0.8,0.5,1.9,0.6,3.3,0.2c0,0,0.6-0.3,1.2-0.5l0.2,0.4
		l0.4,0.1c1.6,0.5,2.8,0.4,4.1-0.2c0.1,1,0.2,2.9,0.2,2.9l0.8-0.1l2.6,0.2l2.4,0.1L66.2,55c-0.2-0.6-0.2-1-0.2-1.4
		c0-0.1,0-0.3,0.1-0.4c2,0.2,3.8-0.4,4.8-1.8c0.1-0.2,0.1-0.4,0.2-0.6c0.7,1.5,2.1,2.6,4.2,2.9c2.1,0,4-0.2,5.2-1.4
		c0.2-0.2,0.2-0.7,0.3-0.9c0.2,0.4,0.1,0.8,0.4,1.2c2.4,2,5.1,1.3,7.3,0.5c0.1-0.1,0.1-0.2,0.2-0.3c0.2,0.3,0.4,0.5,0.6,0.6
		c1.9,0.7,3.1,0.5,4.5,0.2l0.6-0.1l0.2-0.6c0.3-1.2,0.5-1.8,0.7-2.1c0.2,0.4,0.4,1,0.8,2.2l0.2,0.9l0.8-0.2l2.9-0.6
		c0.4-0.4,0.4-0.7,0.6-1.1c0.7,0.6,2.1,1.1,4.6,0.5c0.3,0.2,0.8,0.4,0.8,0.4l0.6,0c0,0,0.6,0,1.1,0c-0.1,0.2-0.2,0.4-0.2,0.6
		c0,0.6,0.2,1.3,0.6,1.9l0.4,0.5l0.6-0.1c3.9-0.4,6.9-0.4,9.7-0.1l0.5,0.1l0.4-0.4c0.6-0.7,1.1-1.6,1.1-2.5c0-0.1,0-0.1,0-0.2
		c0.7,0.1,1.5,0,2.5-0.2c0.3,0.2,0.8,0.4,0.8,0.4l0.6,0l4.3-0.2L128.1,51.5z M70.8,29.4l-0.1,0.3c0,0,0,0.1,0,0.1c0,0-0.1,0-0.2,0
		l-0.1-0.3L70.8,29.4z M66.4,48.9c-0.1,0.1-0.1,0.1-0.2,0.2c0-0.1,0-0.1,0.1-0.3c0.2-0.2,0.3-0.3,0.4-0.3
		C66.6,48.6,66.5,48.7,66.4,48.9z M76.1,49.8c0,0-0.1,0.1-0.2,0.3c0-0.1,0-0.1,0-0.2c0-0.2,0-0.5,0.2-0.8l0.4-0.6
		C76.3,48.6,76.4,49.2,76.1,49.8z M85.5,49.9c0-0.1,0.1-0.3,0.2-0.5c0.2,0.2,0.5,0.5,0.6,0.6c-0.3,0-0.7,0-0.8,0
		C85.6,50,85.5,49.9,85.5,49.9z M86.1,50.1c-0.2,0.1-0.3,0.2-0.3,0.2C85.9,50.2,86,50.2,86.1,50.1c0.1-0.1,0.2-0.1,0.2-0.1
		c0,0,0,0,0,0C86.3,50.1,86.2,50.1,86.1,50.1z M104.5,49.7c-0.2-0.4-0.1-0.5,0-0.5l0.2,0.3C104.7,49.6,104.6,49.7,104.5,49.7z
		 M122.4,49.7c-0.2-0.4-0.1-0.5,0-0.5l0.2,0.3C122.6,49.6,122.5,49.7,122.4,49.7z M73,44.8C72.9,44.8,72.9,44.9,73,44.8
		C72.9,44.9,72.9,44.9,73,44.8L73,44.8z"/>
	<path class="st7" d="M127.1,49.9l-0.2-0.6l-0.4-1.8c0.3-1.8,0.7-4.1-2.5-5.2c-2.6-0.4-4.9-0.7-7.2,1.3l-0.4,0.4l0.2,1.5
		c0,0,0.5,0.7,0.6,0.9c-0.2,0.2-0.5,0.3-0.6,0.6c-0.8-1.3-1.7-2.6-2.9-3.6l-0.9-0.7l-0.5,0.7l-3.2,4.6c0,0-0.2,0.3-0.3,0.5
		c-0.1-0.5-0.3-1.2-0.3-1.2c0.1-0.6,0.2-1.2,0.2-1.8c0-1.4-0.5-2.7-2.8-3.4c-2.6-0.4-4.9-0.7-7.2,1.3L98.4,44l0.2,1.5
		c0,0,0.5,0.7,0.6,0.9c-0.2,0.2-0.6,0.4-0.7,0.6c-0.1,0.1,0,0.2-0.1,0.4c-0.2-0.2-0.5-0.7-0.5-0.7l-1-1.6c-1.1-1.8-1.6-2.6-2.4-2.8
		l-0.4-0.1l-0.4,0.2c-1.8,1.1-2.8,2.8-3.7,4.5c0,0-0.8,1.4-1.2,1.9c-0.1,0-0.2,0-0.2,0c-0.1,0-0.2,0.1-0.3,0.1
		c-0.1-0.1-0.2-0.1-0.2-0.2c0,0,0.9-1.6,0.9-1.6c0-0.1,0-0.2,0-0.3c0-1.1-0.4-2-1.2-2.8c-1.4-1.3-3.8-1.7-5-1.5l-0.1,0
		c-1,0.2-2.3,1.4-3.1,2.9c-1.2-1.7-3.8-2.4-5.7-2.5c-0.4,0-1.5,0-2.1,0.5l-0.4,0.6c0.1-0.2,0.2-0.4,0.4-0.5c-0.8,0.5-1.4,1.2-1.8,2
		c-0.3-0.4-0.8-1.1-1.8-1.6c0.8,0.2,1.5-0.1,2.3-0.6l0,0l0.6-0.4l0.6-0.4l2.3-1.2l0.2,0c0.2,0,0.4,0,0.5,0.2l3.5,2.7l-0.6-2.7
		l-0.1-0.5c0,0-0.1-0.3-0.2-0.6c0,0,0.2,0.1,0.4,0.3l0,0l0.1,0c0.9,0.6,2.6,1.6,2.6,1.6l-0.3-0.8l0.6,0l0.6-0.1l0.3-0.1L82,41
		l1.8,0.4l2.4-0.1c0,0,0.1-0.7,0.2-1c0.1-0.1,0.5-0.4,0.5-0.4l0.3-0.4l0-0.4l1.6,0.9l0,0l2,1.1l0.4,0.2l0.6,0.2l0.5,0.1l0.6,0.1
		l0.6-0.1l4.1-0.9l-3.9-1.5l-0.2-0.1l-0.3-0.1l-0.1,0l-0.8-0.3c-0.2-0.1-1.3-0.7-1.3-0.7l-0.3-0.2l-0.3-0.2l-2.5-1.4l0,0l-0.4-0.2
		L86,35.3l0,0.1l0,0l-2.2-1v-0.1l-0.4-0.6l-0.1-0.2l0.2-0.5l0.2-0.3l0.1-0.7l-0.2-1l-0.2-0.6l-0.7-0.6l-0.4-0.2c0,0-0.5-0.2-0.6-0.2
		c0.1-0.2,0.2-0.5,0.3-0.8l0-0.1l0,0c0.4-0.9,0.8-2.1,0.8-2.1l0.4-1.7l0.2-1.7l0-1.8l-0.1-1.7l-0.1-1.5l-0.2-1.3l-0.3-1.7l-0.1-0.6
		l-0.1-0.6l-0.3-1.1l-0.7-0.5l-0.6-0.2L80.8,12l-0.6,0.1l-0.2,0.1L80,11.8l-1.3,1L78.4,13l0,0.1l-0.3,0.2l-0.7,0.7l-0.7,0.9
		l-0.3,0.5l-0.3,0.5l-0.3,0.5L75.4,17l-0.3,0.5l-0.7,1.2l-1.2,1.9l-0.8,1.4l-0.4,0.7L72,22.5l-1,2.1l-0.3,0.6l-0.3,0.7l-0.1,0.3
		l0-0.4l0-0.7l0-0.9l0.2-1.6l0.1-0.9l0.1-0.8l0.2-0.8l0.2-0.8l0.2-0.7l0.3-0.6l0.3-0.5l0.6-0.8l0-0.2l0.5-0.7l-0.8-0.3L72.1,15
		L71.2,15L70.8,15l-0.4-0.1l-0.1,0.2l-0.4,0.1l-0.4,0.9l-1.1-1.2l-1,1.4l-0.3,0.5l-0.3,0.9l-0.2,1.1l-0.1,1.4l-0.1,1.6l0,1.8
		l0.1,1.8l0.3,1.9l0.4,1.7l1.1-0.3l-0.1,0.1L68,29.3c0,0,0,0.1,0,0.1c-0.2,0-0.3,0-0.3,0l-0.9,0l0,0l-0.6,0l-1.6,0l0.1,0.1l-0.9,0.1
		L63,29.8l-0.7,0.1l-3.8,0.9L57.8,31l-0.7,0.2l-1.9,0.4l-1.6,0.5l-0.5,0.2l-0.5,0.2L52,32.7L51.6,33l-0.8,0.6l-0.4,0.4l-0.5,0.6
		l-0.4,0.7l-0.3,0.6l0.4,0.8l0.2,0.3l0.7,0.5l0.5,0.3l1.3,0.6l0.8,0.4l0.6,0.3l0.6,0.3l0.8,0.3l0.7,0.3l0.8,0.3l0.7,0.3l0.9,0.3
		l0.8,0.2L60,41l0.8,0.2l0.9,0.1l0.8,0.1l0.8,0l1.8-0.2l0.5-0.1c0,0,0.1,0,0.1,0c0,0.1,0,0.6,0,0.6l0.6,0.5l0.7,0.7
		c0,0,0.9,0.8,1.1,1c-0.9-0.4-2.2-0.6-3.9-0.4c-1.3-0.9-2.9-1.1-4.6-0.1c0,0-0.1,0.1-0.2,0.1c0,0-0.1-0.1-0.1-0.1
		c-1.3-0.5-2.9-1-4.5-0.1L54,43.5c0,0,0,0.1,0,0.1c-0.1,0-4.8-1-4.8-1l0.1,1.1l-0.1,0.8c-0.2,1.1-0.4,2.4-0.4,3.6
		c0,0.3,0.1,0.6,0.1,0.9c-0.1,0-0.2-0.2-0.3-0.2c-0.2,0-0.6,0.2-1,0.3l0,0l0.1-0.7c0-0.1,0.1-0.5,0.1-0.5l1-3.9l0.1-0.4l0.6-4.6
		L49,35.6c-0.6-1-1.3-1.3-2.1-1.2c-0.8,0.1-1.5,0.5-1.9,1.2c0.1-0.1-1.6,2.4-1.6,2.4c0,0.1-1.1,2-2.1,3.8c0.2-2.7,0.4-4.9,0.4-6.3
		c0-0.5,0-0.9-0.1-1.1c-0.3-1.1-0.9-1.8-1.8-2c-0.9-0.2-1.8,0.2-2.4,1.1l-0.1,0.1c-3.9,6.3-7,13.1-10,19.7c-0.1,0.2-2.8,5.9-2.8,5.9
		l-0.6,1c-0.2,0.6-0.3,1-0.3,1.4c0,0.5,0.2,0.9,0.4,1.3c0.8,0.8,1.8,0.6,2.2,0.5c1.5-0.3,1.9-1.1,2.1-1.6c0-0.1,0.2-1.2,0.2-1.2
		l2.4-5.8l1.6-3.4l1.7-3.5c0,0,0.7-1.4,1.3-2.5c-0.2,1.5-0.4,3-0.4,4.4c0,1.1,0.1,2.2,0.4,3.2c0.2,0.7,0.8,1.2,1.6,1.4
		c0.9,0.2,1.8-0.1,2.3-0.8c1.5-1.9,2.5-4.1,3.5-6.2c-0.1,0.3-0.1,0.7-0.1,0.7c0,0-0.4,2.6-0.4,2.6c0,1.7,0.7,2.8,2.2,3.5
		c3.7,0.5,5.1-1.3,5.5-1.9c0.2-0.2,0.1-0.5,0.2-0.7c0.8,0.5,1.9,0.7,3.3,0.2c0,0,0.6-0.3,1.2-0.5l0.2,0.4l0.4,0.1
		c1.6,0.5,2.8,0.4,4.1-0.2c0.1,1,0.2,2.9,0.2,2.9l0.8-0.2l2.6,0.2l2.4,0.1l-0.4-1.4C65,52.9,65,52.5,65,52c0-0.1,0-0.3,0.1-0.4
		c2,0.2,3.8-0.4,4.8-1.8c0.1-0.2,0.1-0.4,0.2-0.6c0.7,1.5,2.1,2.6,4.2,2.9c2.1,0,4-0.2,5.2-1.4c0.2-0.2,0.2-0.7,0.3-1
		c0.2,0.4,0.1,0.8,0.4,1.2c2.4,2,5.1,1.3,7.4,0.5c0.1-0.1,0.1-0.2,0.2-0.3c0.2,0.3,0.4,0.5,0.6,0.6c1.9,0.7,3.1,0.5,4.5,0.3l0.6-0.1
		l0.2-0.6c0.3-1.2,0.5-1.8,0.7-2.1c0.2,0.4,0.4,1,0.8,2.2l0.2,0.9l0.8-0.2l2.9-0.6c0.4-0.4,0.5-0.7,0.5-1.1c0.7,0.6,2.1,1.1,4.6,0.5
		c0.3,0.2,0.8,0.4,0.8,0.4l0.6,0c0,0,0.6,0,1.1,0c0,0.2-0.2,0.4-0.2,0.6c0,0.6,0.2,1.3,0.6,1.9l0.3,0.5l0.6-0.1
		c3.9-0.4,6.9-0.4,9.7-0.1l0.5,0.1l0.4-0.4c0.6-0.7,1.1-1.6,1.1-2.5c0-0.1,0-0.1,0-0.2c0.7,0.1,1.5,0,2.5-0.2
		c0.3,0.2,0.8,0.4,0.8,0.4l0.6,0l4.3-0.1L127.1,49.9z M69.8,27.9l-0.1,0.3c0,0,0,0.1,0,0.1c0,0-0.1,0-0.2,0l-0.1-0.3L69.8,27.9z
		 M65.4,47.3c-0.1,0.1-0.1,0.1-0.2,0.2c0-0.1,0-0.1,0.1-0.3c0.2-0.2,0.3-0.2,0.4-0.3C65.6,47,65.6,47.1,65.4,47.3z M75.2,48.3
		c0,0-0.1,0.2-0.2,0.3c0-0.1,0-0.1,0-0.2c0-0.2,0-0.5,0.1-0.8c0,0,0.4-0.6,0.4-0.6C75.3,47.1,75.4,47.6,75.2,48.3z M84.6,48.3
		c0-0.1,0.1-0.3,0.2-0.5c0.2,0.1,0.5,0.5,0.6,0.6c-0.3,0-0.8,0-0.8,0C84.6,48.4,84.6,48.4,84.6,48.3z M85.1,48.6
		c-0.2,0.1-0.3,0.2-0.3,0.2C84.9,48.6,85,48.6,85.1,48.6c0.1-0.1,0.2-0.1,0.2-0.1c0,0,0,0,0,0C85.3,48.5,85.2,48.5,85.1,48.6z
		 M103.5,48.1c-0.2-0.4-0.1-0.5,0-0.5l0.2,0.3C103.7,48,103.6,48.1,103.5,48.1z M121.5,48.1c-0.2-0.4-0.1-0.5,0-0.5l0.2,0.3
		C121.7,48,121.6,48.1,121.5,48.1z M72,43.2C72,43.3,72,43.3,72,43.2C72,43.3,72,43.3,72,43.2L72,43.2z"/>
	<path class="st8" d="M67.1,25.4l0.3,1.8l0.4,1.7l1.3-0.3L69,28l0.9-0.1L69.9,27l0-1.2l0.1-1.5l0.2-1.7l0.1-0.9l0.1-0.9l0.2-0.8
		l0.2-0.8l0.2-0.7l0.3-0.7l0.3-0.5l0.5-0.6l0-0.2l0.2-0.3L71.9,16l-0.1-0.4l-0.6-0.1l-0.4,0.1l0,0l0,0l-0.3,0l-0.8,1.3l-0.1,0.2
		L69.5,17l0,0l-0.1,0l-0.1-0.2l-0.8-0.9l-0.8,0.8l-0.3,0.5l-0.2,0.7l-0.2,1L67,20.2L67,21.8l0,1.7L67.1,25.4z M68.5,21.6l0.1-1.7
		l0.3-1.4l0.5-1.1L69.4,18l-0.1,0.6L68.9,20l-0.1,0.8l-0.1,0.9l-0.1,0.9L68.5,23L68.5,21.6z M50.2,36.6l0.6,0.4l0.5,0.2l1.3,0.6
		l0.8,0.4l0.6,0.3l0.6,0.3l0.7,0.3l0.7,0.3l0.8,0.3l0.7,0.3l0.9,0.2l0.8,0.2l0.8,0.2l0.8,0.2l0.8,0.1l0.8,0.1l0.7,0l0.7-0.1l1.1-0.1
		l0.5-0.1l0.5-0.2c0,0,0.1-0.1,0.2-0.1c0,0.2,0,0.4,0,0.4l0,0.8l0.3,0.2l0.9,0.9c0,0,0.9,0.8,0.9,0.8c0.7,0.2,1.5-0.2,2.3-0.7l0,0
		l0.4-0.3l0.3-0.2l0,0l0.1-0.1l2.6-1.4l0.2,0c0.4,0,0.6,0,0.9,0.3l2.3,1.8l-0.3-1.3l-0.1-0.5L76.8,40l-0.3-0.8c0,0-0.1-0.3-0.2-0.5
		c0.2,0.2,0.4,0.3,0.4,0.3l0.7,0.5l2,1.3l-0.1-0.2l0.1,0.1l0.6,0.2l0.6,0.1l0.5-0.1l0.3-0.1l0.6-0.3l0.3,0c0,0.1,0,0.1,0,0.1
		l1.2,0.4l2.1,0l0.1-0.9v-0.3l0.5-0.1l0.2-0.3l0.1-0.4v-0.2l0.1-0.2l0.6,0.2l2.1,1.1l0,0l1.6,0.9l0.4,0.2l0.5,0.2l0.4,0.1l0.5,0.1
		l0.5-0.1l2.2-0.5l-2-0.9l-0.2,0l-0.5-0.1l-0.9-0.3c-0.3-0.2-1.4-0.8-1.4-0.8l-0.3-0.2L90,38.2l-2.8-1.6v0L87,36.5l-0.6-0.3l0,0
		l-0.7-0.3l-1.1-0.5l-0.4-0.2l-0.7-0.3l-0.4-0.4L83.1,34l-0.2-0.6l0.1-0.6l0.1-0.3l0.1-0.2l0.1-0.5l-0.1-0.5L83.2,31L83,30.7
		l-0.5-0.5l-0.1-0.1l-0.4-0.2c0,0-0.6-0.2-0.9-0.4l-0.1,0c0,0,0,0,0,0c0,0,1.3-3.4,1.3-3.4l0.3-1.6l0.2-1.7l0-1.7l-0.1-1.7L82.7,18
		l-0.2-1.3L82.3,15l-0.1-0.6l-0.1-0.6L82,13l-0.4-0.4l-0.3-0.1l-0.8,0.1l-0.1,0l-0.7,0.3l-0.1,0l0-0.1l-0.6,0.5L79,13.3l0,0
		l-0.2,0.1l-0.3,0.3l-0.7,0.7l-0.7,0.8l-0.3,0.5l-0.3,0.5l-0.3,0.5l-0.3,0.6l-0.3,0.5L74.8,19l-1.2,1.9l-0.8,1.4l-0.4,0.7L72,23.8
		l0-0.1l-0.5,1.1l-0.3,0.6L71,26.1l-0.2,0.6l-0.2,0.6l-0.3,1c0,0-0.1,0.5-0.1,0.5c-0.1,0-0.2,0-0.2,0l-0.2-0.1l-0.4,0L69,28.9
		l-0.3,0.3l-0.2,0.3l-0.1,0.4c0,0,0,0,0,0.1c-0.1,0-0.8-0.1-0.8-0.1l-1.1,0l0,0l-0.3,0l-0.6,0l0,0l-0.4,0l-1.4,0.2l-0.8,0.1
		l-0.7,0.1l-3.8,0.9l-0.9,0.2v0l-0.5,0.1l-1.9,0.4l-1.6,0.5l-0.5,0.2L52.7,33l-0.5,0.2l-0.4,0.2L51.1,34l-0.4,0.4l-0.5,0.6l-0.3,0.6
		l-0.1,0.3l0.2,0.6L50.2,36.6z M80.7,29.4l0.2-0.2l0,0.4C80.9,29.5,80.7,29.4,80.7,29.4C80.7,29.4,80.7,29.4,80.7,29.4z M126.6,50
		l-0.2-0.6l-0.4-1.9c0.4-2.3,0.5-3.9-2.2-4.8c-2.5-0.4-4.6-0.7-6.7,1.2l-0.2,0.2l0.2,1l0.4,0.6l0.2,0.3c0,0,0.7-0.3,1-0.4
		c-0.7,0.4-1.4,0.9-1.7,1.5c-0.2,0.3-0.2,0.7-0.2,1c0,0.1,0.1,0.3,0.2,0.4c-0.9-1.8-2-3.6-3.5-4.8l-0.4-0.3l-0.2,0.4l-3.1,4.5
		c0,0-0.7,1.1-1,1.6l-0.2-0.6l-0.4-1.9c0.1-0.7,0.2-1.3,0.2-1.9c0-1.3-0.5-2.3-2.4-2.9c-2.5-0.4-4.6-0.7-6.7,1.2l-0.2,0.2l0.2,1
		l0.4,0.6l0.2,0.3c0,0,0.7-0.3,1-0.4c-0.8,0.4-1.4,0.9-1.7,1.5c-0.2,0.3-0.2,0.7-0.2,1c0,0.5,0.2,1,0.5,1.4c0.9,1,2.7,1.3,4.8,0.7
		c0.2,0.1,0.7,0.4,0.7,0.4l0.6,0c0,0,0.9,0,1.7-0.1c-0.2,0.4-0.3,0.7-0.3,1.2c0,0.5,0.1,1.1,0.5,1.7l0.2,0.3l0.3,0
		c4-0.4,7-0.4,9.8-0.1l0.3,0l0.2-0.2c0.5-0.6,1-1.4,1-2.2c0-0.3-0.1-0.5-0.2-0.7c0-0.1-0.3-0.1-0.4-0.2c0.8,0.3,1.9,0.4,3.5,0
		c0.2,0.1,0.5,0.3,0.5,0.3c0.2,0.1,0.8,0.1,0.8,0.1l3.5-0.1L126.6,50z M101.2,45.5c0.1,0,0.2-0.1,0.2-0.1l1.5-0.2
		C102.3,45.3,101.6,45.3,101.2,45.5z M103.2,47.9c0-0.1,0.1-0.3,0.3-0.3c0.2,0,0.3,0.1,0.3,0.3C103.3,48.1,103.2,48,103.2,47.9z
		 M103.5,45.1c0-0.1-0.1-0.3-0.1-0.3l0.7,0.2C103.9,45,103.7,45.1,103.5,45.1z M112.7,50.3c0.1-0.3,0.2-0.4,0.3-0.7
		c0.2,0.3,0.3,0.4,0.5,0.7C113.1,50.2,113,50.2,112.7,50.3z M117.6,49.9C117.6,49.9,117.6,49.8,117.6,49.9
		C117.6,49.8,117.6,49.9,117.6,49.9C117.6,49.9,117.6,49.9,117.6,49.9z M119.1,45.5c0.1,0,0.2-0.1,0.2-0.1l1.5-0.2
		C120.2,45.3,119.6,45.3,119.1,45.5z M121.1,47.9c0-0.1,0.1-0.3,0.3-0.3c0.2,0,0.3,0.1,0.3,0.3C121.3,48.1,121.1,48,121.1,47.9z
		 M121.4,45.1c0-0.1-0.1-0.3-0.1-0.3l0.8,0.2C121.8,45,121.7,45.1,121.4,45.1z M97.5,46.9l-1-1.6c-1-1.6-1.5-2.4-2.1-2.6
		c-2.1,1.1-3,2.7-3.9,4.3c0,0-1.1,1.9-1.3,2.2c-0.2,0-0.5,0-0.5,0c-0.4,0-0.5,0.2-0.6,0.4c0,0,0.1-0.1,0.1-0.2c0-0.1,0-0.2,0-0.2
		c-0.1-0.5-0.4-0.8-0.9-1c-0.7-0.2-1.5,0.1-2.1,0.8c-0.2,0-0.9,0-1.1-0.5c0-0.1-0.1-0.2-0.1-0.3c0-0.6,0.4-1.2,0.6-1.4
		c0,0.2,0.9,1,0.9,1l0.2,0.2l0.2,0.2l2,0l0.7-1.3c0.1-1.1-0.3-2-1-2.6c-1.3-1.3-3.7-1.5-4.6-1.4l-0.1,0c-1,0.2-2.5,1.5-3.1,3.2
		c0,0.1,0,0.1,0,0.2c-0.6-2-3.8-3-5.7-3c-1.2-0.1-1.9,0.2-2,0.7l0.2-0.3c-1.3,0.8-2,2-2.1,3.3c0-0.5-0.1-0.9-0.4-1.3
		c-0.9-1.6-3-2.2-5.7-1.9c-0.9-0.7-2.3-1.3-4.4-0.2l-0.3,0.2c0,0,0.1,0.2,0.1,0.3c-0.1-0.1-0.4-0.4-0.4-0.4
		c-1.3-0.4-2.7-0.9-4.1-0.1l-0.3,0.2l0.1,0.4c0.3,1.5,0.1,2.7-0.5,3.8l-0.2-3.4l0-0.4L53.6,44l-3.8-0.8l0,0.6l-0.1,0.8
		c-0.2,1.1-0.4,2.4-0.4,3.6c0,0.6,0.1,1.2,0.2,1.7c-0.3-0.2-0.5-0.5-0.9-0.5c-0.1,0-0.8,0.3-1.3,0.5c-0.1-0.3-0.2-0.7-0.2-0.7
		l0.1-0.8c0,0,0.1-0.5,0.1-0.5l1-3.9l0.1-0.4l0.6-4.6l-0.4-3.2c-0.4-0.7-1-0.9-1.6-0.8c-0.6,0.1-1.2,0.4-1.4,0.9
		c0,0-1.7,2.4-1.7,2.4c0,0-2.1,3.9-3.2,5.8c0.1-1.1,0.1-2.2,0.1-2.2c0.2-2.7,0.4-5,0.4-6.4c0-0.5,0-0.8-0.1-1
		c-0.2-0.9-0.7-1.5-1.4-1.6c-0.7-0.2-1.4,0.2-1.9,0.9l0,0c-3.9,6.3-7,13.1-10,19.6c-0.1,0.2-2.8,6-2.8,6l-0.6,1.1
		c-0.1,0.3-0.2,0.7-0.2,1.1c0,0.4,0.1,0.7,0.4,1.1c0.6,0.5,1.3,0.4,1.7,0.3c0.9-0.2,1.5-0.6,1.7-1.2c0-0.1,0.2-1.1,0.2-1.1l2.4-5.9
		l1.6-3.4l1.7-3.5l1.9-3.7c0,0,0.3-0.5,0.6-1c-0.1,0.7-0.2,1.5-0.2,1.5c-0.2,1.8-0.5,3.6-0.5,5.3c0,1.1,0.1,2.1,0.4,3.1
		c0.2,0.5,0.6,0.9,1.2,1c0.7,0.1,1.4-0.1,1.8-0.6c1.5-2,2.6-4.3,3.6-6.5c0,0,0.6-1.2,1.1-2.2c-0.1,1.2-0.3,2.4-0.3,2.4l-0.2,1.2
		c0,0-0.3,2.5-0.3,2.5c0,1.5,0.6,2.4,1.9,3.1c3.2,0.4,4.5-1.2,4.8-1.7c0.3-0.4,0.4-0.9,0.4-1.3c0.1,0.1,0.1,0.3,0.2,0.3
		c0.7,0.6,1.8,0.7,3.1,0.2c0,0,1.1-0.5,1.6-0.7c0.1,0.2,0.2,0.5,0.2,0.5c1.8,0.8,3,0.7,4.2,0.1l0.3-0.2l-0.1-0.5l-0.4-2.2l0.1-3.2
		c0,0,0.1-0.6,0.2-0.8c0.1,0.2,0.3,1.3,0.3,1.3l0,3.1l0,0.6l0.4,4.7l0.4-0.1l2.6,0.2l1.7,0.1l-0.2-0.7c-0.2-0.6-0.3-1.1-0.3-1.6
		c0-0.3,0.1-0.7,0.1-1c2,0.4,3.8-0.1,4.9-1.5c0.4-0.5,0.5-1.1,0.6-1.6c0,0.2,0,0.3,0.1,0.5c0.4,1.8,1.9,3,4.2,3.3
		c1.9,0,3.7-0.1,4.8-1.3c0.4-0.5,0.5-1.3,0.7-2.1c0.1,0.8,0.2,1.5,0.8,2.4c2.1,1.7,4.6,1.1,6.8,0.3c0.3-0.2,0.3-0.5,0.5-0.8
		c0.1,0.4,0.4,0.9,0.8,1.2c1.6,0.6,2.7,0.4,4,0.1l0.3-0.1l0.1-0.3c0.7-2.7,1.2-2.9,1.2-2.9c0,0,0.5,0.2,1.2,2.9l0.1,0.5l3.1-0.6
		c1.1-1,0.2-2.1-0.5-3.1L97.5,46.9z M65.8,47.7l-0.9,0.6l-0.3-0.1L64.5,48l0.3-1.1l0.9-0.6c0.3,0,0.4,0.3,0.4,0.3L65.8,47.7z
		 M75.7,48.4c-0.2,0.6-0.5,0.8-0.7,0.9h0l-0.2,0c-0.3-0.2-0.5-1-0.1-1.9c0.2-0.6,0.5-0.9,0.7-0.9C75.8,46.7,76,47.6,75.7,48.4z"/>
	<g>
		<g>
			<polygon class="st9" points="69.3,27.9 69.2,27.6 69.2,27.1 69.2,26.5 69.2,25.8 69.2,25.1 69.2,24.3 69.3,23.4 69.4,22.5 
				69.5,21.6 69.6,20.7 69.8,19.9 70,19.1 70.3,18.3 70.6,17.6 70.9,17 71.3,16.5 71.3,16.4 71.3,16.3 71.2,16.2 71.1,16.2 71,16.2 
				70.8,16.3 70.7,16.4 70.5,16.7 70.4,16.9 70.3,17.2 70.2,17.6 70.1,18.1 69.9,18.7 69.7,19.4 69.6,20.1 69.4,21 69.3,21.8 
				69.2,22.7 69.1,23.6 69.1,24.5 69.1,25.4 69.1,26.3 69.2,27.1 69.3,27.9 			"/>
			<path class="st9" d="M71,16l-0.1,0.1l-0.2,0.1l-0.2,0.1l-0.2,0.3l-0.1,0.2l-0.1,0.3L70,17.5l-0.1,0.5l-0.2,0.6l-0.2,0.7l-0.2,0.8
				l-0.1,0.8l-0.1,0.8l-0.1,0.9L69,23.5l-0.1,1.8l0,0.9l0.1,0.8l0.1,0.8c0,0.1,0.1,0.2,0.2,0.1c0.1,0,0.2-0.1,0.1-0.2l0-0.4l0-0.5
				l0-1.3l0-0.7l0-0.8l0.2-1.7l0.1-0.9l0.1-0.9l0.2-0.9l0.2-0.8l0.3-0.7l0.3-0.7l0.3-0.6l0.3-0.5c0,0,0-0.1,0-0.1l0-0.1l-0.1-0.2
				l-0.1-0.1c0,0-0.1-0.1-0.1-0.1l-0.1,0C71.1,16,71,16,71,16z M70.3,17.6l0.1-0.4l0.1-0.3l0.1-0.2l0.1-0.2l0.1-0.1l0.1-0.1
				c0,0,0,0,0,0c0,0,0.1,0,0.1,0s0,0.1,0,0.1c-0.1,0.1-0.3,0.4-0.3,0.4l-0.4,0.6c0,0-0.1,0.3-0.2,0.5C70.3,17.9,70.3,17.6,70.3,17.6
				z"/>
			<polygon class="st9" points="68.5,28.7 68.3,27.9 68.1,26.6 67.9,25.1 67.8,23.4 67.8,21.6 68,19.9 68.3,18.4 68.9,17.2 68.8,17 
				68.6,16.9 68.3,17 68.1,17.4 68,18 67.8,19 67.7,20.3 67.7,21.9 67.7,23.6 67.8,25.3 68.1,27.1 68.5,28.7 			"/>
			<path class="st9" d="M68.5,16.8l-0.2,0.2l-0.3,0.5l-0.1,0.6l-0.2,1l-0.1,1.3l-0.1,1.6l0,1.7l0.1,1.8l0.3,1.8l0.4,1.6
				c0,0.1,0.1,0.1,0.2,0.1c0.1,0,0.2-0.1,0.1-0.2l-0.2-0.8l-0.2-1.2l-0.2-1.5L68,23.4l0-1.8l0.1-1.7l0.3-1.5l0.5-1.1
				c0,0,0-0.1,0-0.1l-0.1-0.2c0,0,0-0.1-0.1-0.1l-0.2-0.1C68.6,16.7,68.5,16.7,68.5,16.8z M68,19l0.1-1l0.1-0.5l0.2-0.4
				c0,0,0.1,0,0.1-0.1c0,0,0,0,0.1,0c0,0,0,0.1,0.1,0.1c-0.1,0.1-0.5,1.1-0.5,1.1s-0.1,0.4-0.2,0.8C68,19.1,68,19,68,19z"/>
			<path class="st10" d="M90.1,39.5l0.2-0.6c0.3,0.2,0.7,0.4,1.1,0.6l0.3,0.2l0.3,0.1l0.3,0.1l0.2,0.1l0.2,0.1l0.2,0l0.2,0l0.1,0.1
				l0.2,0l0.1,0.1l0.1,0.1v0.1l-0.1,0l-0.2,0.1l-0.3,0l-0.4-0.1l-0.4-0.1l-0.4-0.2l-0.4-0.2C90.8,40,90.4,39.7,90.1,39.5L90.1,39.5z
				"/>
			<path class="st11" d="M90.1,38.8c-0.8-0.5-1.4-0.9-2.6-1.5L86.9,37l-0.2,1l0.1,0l0.2,0l0.2,0l0.3,0.1c1.2,0.4,1.7,0.8,2.4,1.3
				L90.1,38.8L90.1,38.8z"/>
			<path class="st12" d="M82.9,40l-1.2-9.7l0.2,0.1l0.3,0.2l0.4,0.3l0.1,0.4l0,0.4l0.1,0.4l-0.1,0.2l-0.1,0.3l-0.1,0.3L82.4,33
				l0,0.3l0,0.3l0.1,0.2l0.1,0.2l0,0.1l0,0.1l0,0.2l0.1,0.2l0.2,0.2l0.2,0.2l0.3,0.2l0.4,0.2l0.3,0.1l0.4,0.2l0.5,0.2l0.6,0.3
				l0.6,0.3l0.4,0.2L86.4,38l-0.1,0.1l-0.1,0.3l0,0.3v0.2l-0.1,0.2L86,39.2l-0.1,0.1l-0.1,0.1l-0.1,0.1l-0.1,0l-0.1,0.1l-0.1,0.1
				l-0.1,0.1l0,0.3l0.1,0.4c-0.6-0.2-1.3-0.1-1.9,0l-0.3-0.2L82.9,40L82.9,40L82.9,40z M81.3,27.5l-1.8-13.9l0,0l0.4-0.2l0.7-0.3
				L81,13l0.3,0.1l0.2,0.3l0.1,0.4l0.1,0.6l0.1,0.6l0.1,0.7l0.1,0.9l0.2,1.3l0.1,1.5l0.1,1.6l0,1.7l-0.2,1.6l-0.3,1.5l-0.5,1.3
				L81.3,27.5L81.3,27.5z"/>
			<polygon class="st13" points="81.3,30.2 81.2,30.2 80.8,30 80.5,29.9 80,29.7 79.5,29.5 79,29.3 79.6,29.3 80.1,29.2 80.5,28.9 
				80.7,28.6 81,28.2 81,28 79.2,13.8 79.1,13.8 78.8,14.1 78.5,14.5 78.2,14.8 77.8,15.2 77.5,15.6 77.2,16 76.9,16.5 76.6,17 
				76.3,17.5 76,18 75.6,18.6 75.3,19.2 74.9,19.8 74.5,20.5 74.1,21.1 73.7,21.8 73.3,22.5 73,23.1 72.6,23.8 72.3,24.5 72.2,24.7 
				78.7,39.7 79.1,39.9 79.7,40.2 80.2,40.3 80.7,40.3 81,40.3 81.3,40.2 81.6,40.1 81.9,40 82.2,39.9 82.5,39.9 82.6,39.9 
				81.3,30.2 			"/>
			<path class="st14" d="M74.1,40l-7.6-9.7l0.5,0l0.5,0l0.5,0.1l0.4,0.1l0.4,0.1l0.2,0.1c0-0.1-0.1-0.2-0.1-0.2l-0.1-0.3l0-0.3
				l0.1-0.2l0.1-0.2l0.2-0.1l0.2,0l0.2,0l0.2,0.1l0.1-0.1h0.2l0.2,0.1l0.2,0.2l0-0.3v-0.4l0.1-0.4l0.1-0.5l0.1-0.5l0.2-0.5l0.2-0.6
				l0.2-0.6l0.3-0.6l0,0l6.3,14.4l-0.6-0.4L77,38.6L76.3,38l-0.6-0.6l-0.5-0.7l-0.1,0.5l-0.4-0.1l0.5,0.7l0.4,0.8l0.4,0.8l0.3,0.8
				l0.2,0.8l0.1,0.5c-0.4-0.2-0.8-0.5-1.2-0.9C75.1,40.1,74.6,40,74.1,40L74.1,40z"/>
			<path class="st15" d="M66.2,30.4l-0.4,0l-0.6,0.1l-0.7,0.1l-0.7,0.1l-0.7,0.1l-0.7,0.1l-0.7,0.2L61,31.3l-0.8,0.2l-0.7,0.2
				l-0.7,0.2L58,32L58,32l8.5,6.6l0.1-0.2l0,0.3l4,3.2c1-0.7,2.2-1.6,3.2-1.8L66.2,30.4L66.2,30.4z"/>
			<path class="st5" d="M66.4,39l0,0.1l-0.2,0.4l-0.4,0.3l-0.4,0.2L65,40l-0.4,0l-0.4,0l-0.3,0l-0.7,0.1l-0.7,0l-0.8-0.1L61,40.1
				L60.2,40l-0.8-0.2l-0.8-0.2l-0.8-0.2L57,39l-0.8-0.3l-0.7-0.3l-0.7-0.2l-0.6-0.3l-0.5-0.2l-0.5-0.2l-0.4-0.2L52.1,37l-0.6-0.3
				L51,36.5l-0.4-0.2L50.4,36l0-0.3l0.2-0.4l0.5-0.6l0.3-0.3l0.4-0.3l0.4-0.3l0.4-0.2l0.4-0.2l0.4-0.2l0.5-0.2l0.5-0.1l0.5-0.2
				l0.5-0.2l0.6-0.1l0.6-0.1l0.6-0.1l0.3-0.1l8.7,6.8l0,0L66.4,39L66.4,39z M70.4,42c-1.1,0.7-2,1.1-2.5,0.2
				c-0.2-0.5-0.6-0.9-1.2-1.1l0-0.6l-0.1-0.9l-0.1-0.5L70.4,42L70.4,42z"/>
		</g>
		<path class="st5" d="M64.1,44.3c-1.2-1.1-2.6-1.1-4.1-0.2l0.4,1.4l0.1,3.3c-0.1,1.7-0.2,3.1,0.3,4.7c1.2,0.2,2.3,0.2,3.5,0.3
			c-0.4-1.3-0.4-2.1-0.1-3.3C70.7,52.2,72.3,43.2,64.1,44.3z M66.3,48c-0.6,0.8-1.4,1.1-1.9,0.7c-0.5-0.4-0.4-1.3,0.1-2
			c0.6-0.8,1.4-1.1,1.9-0.7C66.9,46.3,66.8,47.2,66.3,48z M58.8,48.3l0.1-3.1l0.1-0.5l-0.1-0.4c-1.3-0.4-2.5-0.8-3.7-0.2
			c0.3,1.5,0.1,2.8-0.6,4.1c-0.6,0.4-1,0.6-1.2-0.1l0-3.6c-1-0.4-1.9-0.7-3-0.6c-0.4,2.7-1.8,8.8,3,7.1l2-0.9l0.5,0.9
			c1.3,0.5,2.3,0.5,3.4-0.2C58.7,49.8,58.7,49.4,58.8,48.3z M48.7,49.9c-0.1,0-1.6,0.6-1.6,0.6l-0.1-0.2c-0.2-0.5-0.3-0.9-0.3-1.2
			c0-0.3,0.1-0.6,0.1-1c0,0,0.1-0.5,0.1-0.5l0.9-3.9l0.1-0.4c0.3-1.6,0.5-3,0.5-4.5c0-1-0.1-2-0.4-3c-0.3-0.3-0.6-0.5-1-0.5
			c-0.4,0-0.8,0.3-1,0.7l0,0c0,0-1.7,2.5-1.7,2.5c0,0-3.7,6.8-3.7,6.8c-0.1,0.2-0.1,0.5-0.3,0.4c-0.3,0-0.3,0,0.1-4
			c0.2-2.7,0.5-6.4,0.3-7.3c-0.1-0.7-0.5-1.1-1-1.2c-0.5-0.1-1,0.2-1.4,0.7c-3.8,6.2-7,13-10,19.6c-0.9,2-1.8,4-2.8,6
			c0,0-0.6,1-0.6,1.1c0,0.1-0.4,0.9,0.1,1.6c0.4,0.4,1.3,0.1,1.4,0.1c0.7-0.1,1-0.5,1.1-0.9c0-0.1,0.2-1.1,0.2-1.1l2.5-6l1.6-3.4
			l1.7-3.5l1.9-3.7l1.4-2.2l0.3,0.1c-0.1,0.9-0.2,1.9-0.4,2.9c-0.4,2.9-0.8,5.9-0.1,8.2c0.1,0.3,0.4,0.6,0.8,0.7
			c0.5,0.1,1-0.1,1.3-0.4c1.4-1.9,2.5-4.2,3.5-6.3c0.6-1.3,1.2-2.6,1.9-3.9l0.3,0.1l-0.4,4.2l-0.2,1.3c-0.2,0.9-0.3,1.7-0.3,2.4
			c0,1.1,0.4,2,1.6,2.6c2.7,0.3,3.9-1.1,4.2-1.5c0.4-0.6,0.5-1.2,0.3-1.6C49.4,50,49.1,49.9,48.7,49.9z M94.3,43.3
			c-2.5,1.5-3.1,4.4-4.8,6.5h-0.8c-0.7,0.1-0.6,0.5,0.2,1.1c1.3,0.5,2.3,0.3,3.6,0c1.2-4.8,2.4-4,3.5,0c1.1,0,1.6,0,2.6-0.5
			c0.8-0.8-0.4-1.8-1.4-3.3C95.9,45.5,94.9,43.5,94.3,43.3z M117.3,50.4c-1.1-2.1-2.3-4.7-4.2-6.2c-1.8,1.8-2.8,4.3-4.2,6.4
			c-0.6,0.2-0.6,0.2-1.2,0c-0.4,0.6-0.5,1.6,0.1,2.5c3.3-0.3,6.6-0.5,9.9-0.1C118.7,52,119,50.1,117.3,50.4z M111.8,50.8l1.1-2.4
			l1.5,2.2L111.8,50.8z M72.6,44.1c-2.9,1.8-3,6.4,1.8,7c3.6,0,5.4-0.7,5-4.6C78.9,44,72.8,43.3,72.6,44.1z M76.2,48.6
			c-0.4,1-1.2,1.5-1.7,1.1c-0.6-0.4-0.7-1.5-0.3-2.5c0.4-1,1.2-1.5,1.7-1.1C76.4,46.5,76.5,47.6,76.2,48.6z M107.5,47.7
			c0.4-2.4,0.4-3.6-1.8-4.3c-2.4-0.3-4.3-0.6-6.2,1.1l0.1,0.7l0.3,0.4l1.3-0.5l1.6-0.3L104,45l0.1,0.5c-6.6-0.1-6.3,6.1,0.1,4.3
			l0.6,0.4c1.1,0.1,2.2,0.2,3.3,0C107.9,49.3,107.7,48.5,107.5,47.7z M103.5,48.6c-0.5,0-0.8-0.4-0.8-0.8c0-0.4,0.4-0.8,0.8-0.8
			c0.5,0,0.8,0.3,0.8,0.8C104.3,48.3,104,48.6,103.5,48.6z M84.7,46.4c0.6,0.3,1.1,0.7,1.4,1.4c1.6,0.4,1.9,0.1,2-0.9
			c0.2-3-3.7-3.6-5-3.4c-1.5,0.3-4.6,3.7-2.1,6.9c1.7,1.4,3.9,1,6.2,0.2c1.4-1.2-0.1-2.6-1.6-1C82.1,50.1,84,46.1,84.7,46.4z
			 M125.5,47.7c0.4-2.4,0.4-3.6-1.8-4.3c-2.4-0.3-4.3-0.6-6.2,1.1l0.1,0.7l0.3,0.4l1.3-0.5l1.6-0.3l1.2,0.3l0.1,0.5
			c-6.6-0.1-6.3,6.1,0.1,4.3l0.6,0.4c1.1,0.1,2.2,0.2,3.3,0C125.9,49.3,125.6,48.5,125.5,47.7z M121.5,48.6c-0.5,0-0.8-0.4-0.8-0.8
			c0-0.4,0.4-0.8,0.8-0.8c0.5,0,0.8,0.3,0.8,0.8C122.3,48.3,121.9,48.6,121.5,48.6z"/>
	</g>
</g>
</svg>
