<?xml version="1.0" encoding="utf-8"?>
<!-- Generator: Adobe Illustrator 19.2.1, SVG Export Plug-In . SVG Version: 6.00 Build 0)  -->
<svg version="1.1" id="Слой_1" xmlns="http://www.w3.org/2000/svg" xmlns:xlink="http://www.w3.org/1999/xlink" x="0px" y="0px"
	 viewBox="0 0 172 80" style="enable-background:new 0 0 172 80;" xml:space="preserve">
<style type="text/css">
	.st0{fill:#353131;}
	.st1{fill-rule:evenodd;clip-rule:evenodd;fill:url(#SVGID_3_);}
	.st2{clip-path:url(#SVGID_5_);}
</style>
<g>
	<path class="st0" d="M0.6,65.7c0,1.8,1.3,3,3,3c1.8,0,3-1.4,3-3V55.1l10.2,11.6c1.1,1.2,1.9,1.9,3.1,1.9c1.6,0,3.1-1,3.1-2.9
		c0-1.2-0.7-2.2-1.6-3.1l-9.1-10l7.5-7.6c1.2-1.4,1.8-2.3,1.8-3.3c0-1.7-1.3-2.9-2.9-2.9c-1.1,0-1.8,0.6-2.3,1.2L6.6,50.7v-8.9
		c0-1.8-1.2-3-3-3c-1.7,0-3,1.3-3,3V65.7z M44.2,41.6c0-1.7-1.5-2.9-3.1-2.9c-1,0-2,0.5-2.7,1.8l-4.8,11.1l-5.2-11.1
		c-0.6-1.3-1.5-1.8-2.6-1.8c-1.5,0-3.2,1.2-3.2,2.9c0,0.5,0.1,1,0.3,1.5L30.4,59l-2.2,5.3c-0.2,0.5-0.3,1-0.3,1.4c0,1.7,1.5,3,3.1,3
		c1,0,2-0.6,2.6-1.8L43.9,43C44.1,42.6,44.2,42.2,44.2,41.6L44.2,41.6z M46,65.4c0,2,1.2,3.2,3,3.2c1.6,0,3-1.2,3-3.2v-9h12.4v9
		c0,2,1.2,3.2,3,3.2c1.6,0,3-1.2,3-3.2V42c0-2-1.3-3.2-3-3.2c-1.7,0-3,1.2-3,3.2v8.7H51.9V42c0-2-1.3-3.2-3-3.2c-1.7,0-3,1.2-3,3.2
		V65.4z M101.9,71.9v-5.7c0-2.2-1.2-3.2-3-3.2H98V42c0-2-1.3-3.2-3-3.2c-1.7,0-3,1.2-3,3.2v21H79.7V42c0-2-1.3-3.2-3-3.2
		c-1.7,0-3,1.2-3,3.2v23.2c0,2.2,1.2,3.2,3,3.2H96v3.6c0,2,1.3,3.2,3,3.2C100.7,75.1,101.9,73.9,101.9,71.9L101.9,71.9z M103.6,65.3
		c0,1.8,1.3,3,3.1,3h10.1c1.8,0,2.9-1.4,2.9-2.8c0-1.5-0.9-2.9-2.9-2.9h-7.3v-6.2h6.4c1.9,0,2.9-1.4,2.9-2.8c0-1.5-0.9-2.9-2.9-2.9
		h-6.4v-6h7c1.8,0,2.8-1.4,2.8-2.8c0-1.5-0.9-2.9-2.8-2.9h-9.8c-2,0-3.1,1.5-3.1,3.6V65.3z M121.9,65.2c0,1.9,1.3,3.1,3.2,3.1h8.1
		c5.5,0,9.2-3.1,9.2-8.9c0-3.6-2.7-6.6-6-7v-0.1c2.6-1.2,3.7-3.2,3.7-6c0-4.4-3.3-7.3-7.5-7.3h-7.6c-1.7,0-3.1,1.1-3.1,3.1V65.2z
		 M127.8,44.4h3.1c1.7,0,3.2,1,3.2,2.9c0,2-1.2,3.2-3.2,3.2h-3.1V44.4z M127.8,56.1h4.2c2.8,0,4.2,1.3,4.2,3.2
		c0,2.4-1.6,3.7-3.8,3.7h-4.6V56.1z M157,63.2c-5,0-7.5-4.4-7.5-9.5c0-5.1,2.5-9.6,7.5-9.6c4.9,0,7.4,4.5,7.4,9.6
		C164.4,58.8,162,63.2,157,63.2L157,63.2z M157,68.9c8.1,0,13.6-6.7,13.6-15.2c0-8.4-5.7-15.3-13.6-15.3c-8.1,0-13.6,6.7-13.6,15.3
		C143.4,62.2,148.9,68.9,157,68.9L157,68.9z"/>
</g>
<g>
	
		<linearGradient id="SVGID_3_" gradientUnits="userSpaceOnUse" x1="298.2214" y1="-129.4643" x2="374.9103" y2="-129.4643" gradientTransform="matrix(1 0 0 1 -254.9434 146.1641)">
		<stop  offset="0" style="stop-color:#FFD300"/>
		<stop  offset="0.2303" style="stop-color:#FAB218"/>
		<stop  offset="0.2705" style="stop-color:#FAB420"/>
		<stop  offset="0.333" style="stop-color:#FBB938"/>
		<stop  offset="0.41" style="stop-color:#FCC25C"/>
		<stop  offset="0.4976" style="stop-color:#FECF84"/>
		<stop  offset="0.5576" style="stop-color:#FFDAA2"/>
		<stop  offset="0.5716" style="stop-color:#FFD68E"/>
		<stop  offset="0.5932" style="stop-color:#FFD275"/>
		<stop  offset="0.6173" style="stop-color:#FFCE5B"/>
		<stop  offset="0.6438" style="stop-color:#FFCB43"/>
		<stop  offset="0.674" style="stop-color:#FFC82E"/>
		<stop  offset="0.71" style="stop-color:#FFC71B"/>
		<stop  offset="0.7573" style="stop-color:#FFC60F"/>
		<stop  offset="0.8606" style="stop-color:#FFC60A"/>
		<stop  offset="1" style="stop-color:#FFD300"/>
	</linearGradient>
	<path class="st1" d="M81.5,14.7c2.7-4.8,8.9-7.8,16.3-4.9C92.2,11,92.2,18.5,81.5,14.7L81.5,14.7z M85.7,16.7
		c1.8,5.3,7.2,9.3,15.1,7.8C95.5,22.3,97.1,14.9,85.7,16.7L85.7,16.7z M92.2,15.6c2.3-5.3,8.3-7,16.2-3.5
		C102.8,13.3,102.5,19.2,92.2,15.6L92.2,15.6z M96.5,17.8c1.7,5.2,5.6,6.9,13.5,5.5C105.7,21.3,104.3,16.1,96.5,17.8L96.5,17.8z
		 M103,16.3c4-3.4,9.3-3.6,16.9,2.2c-3,0.6-5.7,1.6-8.1,1.9C108.2,20.7,105.2,19.3,103,16.3L103,16.3z M70.4,15.5
		c2.2-5.1,8-8.7,15.7-6.4C80.6,10.9,81.4,18.4,70.4,15.5L70.4,15.5z M74.9,17.2c2.3,4.9,8.1,8.6,15.7,6.3
		C85.2,21.8,85.8,14.3,74.9,17.2L74.9,17.2z M61.3,16.5c1.3-4.2,5.7-7.5,12-6.3C69.1,12.1,70.4,18.1,61.3,16.5L61.3,16.5z
		 M65.6,17.8c2,4.4,7.2,7.6,14,5.6C74.7,21.8,75.3,15.2,65.6,17.8L65.6,17.8z M63.2,18c-6.2-1-17.5,2.1-20,7
		C48.9,21.4,54.2,19.4,63.2,18L63.2,18z"/>
	<g>
		<defs>
			<path id="SVGID_1_" d="M81.5,14.7c2.7-4.8,8.9-7.8,16.3-4.9C92.2,11,92.2,18.5,81.5,14.7L81.5,14.7z M85.7,16.7
				c1.8,5.3,7.2,9.3,15.1,7.8C95.5,22.3,97.1,14.9,85.7,16.7L85.7,16.7z M92.2,15.6c2.3-5.3,8.3-7,16.2-3.5
				C102.8,13.3,102.5,19.2,92.2,15.6L92.2,15.6z M96.5,17.8c1.7,5.2,5.6,6.9,13.5,5.5C105.7,21.3,104.3,16.1,96.5,17.8L96.5,17.8z
				 M103,16.3c4-3.4,9.3-3.6,16.9,2.2c-3,0.6-5.7,1.6-8.1,1.9C108.2,20.7,105.2,19.3,103,16.3L103,16.3z M70.4,15.5
				c2.2-5.1,8-8.7,15.7-6.4C80.6,10.9,81.4,18.4,70.4,15.5L70.4,15.5z M74.9,17.2c2.3,4.9,8.1,8.6,15.7,6.3
				C85.2,21.8,85.8,14.3,74.9,17.2L74.9,17.2z M61.3,16.5c1.3-4.2,5.7-7.5,12-6.3C69.1,12.1,70.4,18.1,61.3,16.5L61.3,16.5z
				 M65.6,17.8c2,4.4,7.2,7.6,14,5.6C74.7,21.8,75.3,15.2,65.6,17.8L65.6,17.8z M63.2,18c-6.2-1-17.5,2.1-20,7
				C48.9,21.4,54.2,19.4,63.2,18L63.2,18z"/>
		</defs>
		
			<linearGradient id="SVGID_4_" gradientUnits="userSpaceOnUse" x1="298.2214" y1="-129.4643" x2="374.9103" y2="-129.4643" gradientTransform="matrix(1 0 0 1 -254.9434 146.1641)">
			<stop  offset="0" style="stop-color:#FFD300"/>
			<stop  offset="0.2303" style="stop-color:#FAB218"/>
			<stop  offset="0.2705" style="stop-color:#FAB420"/>
			<stop  offset="0.333" style="stop-color:#FBB938"/>
			<stop  offset="0.41" style="stop-color:#FCC25C"/>
			<stop  offset="0.4976" style="stop-color:#FECF84"/>
			<stop  offset="0.5576" style="stop-color:#FFDAA2"/>
			<stop  offset="0.5716" style="stop-color:#FFD68E"/>
			<stop  offset="0.5932" style="stop-color:#FFD275"/>
			<stop  offset="0.6173" style="stop-color:#FFCE5B"/>
			<stop  offset="0.6438" style="stop-color:#FFCB43"/>
			<stop  offset="0.674" style="stop-color:#FFC82E"/>
			<stop  offset="0.71" style="stop-color:#FFC71B"/>
			<stop  offset="0.7573" style="stop-color:#FFC60F"/>
			<stop  offset="0.8606" style="stop-color:#FFC60A"/>
			<stop  offset="1" style="stop-color:#FFD300"/>
		</linearGradient>
		<use xlink:href="#SVGID_1_"  style="overflow:visible;fill-rule:evenodd;clip-rule:evenodd;fill:url(#SVGID_4_);"/>
		<clipPath id="SVGID_5_">
			<use xlink:href="#SVGID_1_"  style="overflow:visible;"/>
		</clipPath>
		<g class="st2">
			<defs>
				<path id="SVGID_2_" d="M81.5,14.7c2.7-4.8,8.9-7.8,16.3-4.9C92.2,11,92.2,18.5,81.5,14.7L81.5,14.7z M85.7,16.7
					c1.8,5.3,7.2,9.3,15.1,7.8C95.5,22.3,97.1,14.9,85.7,16.7L85.7,16.7z M92.2,15.6c2.3-5.3,8.3-7,16.2-3.5
					C102.8,13.3,102.5,19.2,92.2,15.6L92.2,15.6z M96.5,17.8c1.7,5.2,5.6,6.9,13.5,5.5C105.7,21.3,104.3,16.1,96.5,17.8L96.5,17.8z
					 M103,16.3c4-3.4,9.3-3.6,16.9,2.2c-3,0.6-5.7,1.6-8.1,1.9C108.2,20.7,105.2,19.3,103,16.3L103,16.3z M70.4,15.5
					c2.2-5.1,8-8.7,15.7-6.4C80.6,10.9,81.4,18.4,70.4,15.5L70.4,15.5z M74.9,17.2c2.3,4.9,8.1,8.6,15.7,6.3
					C85.2,21.8,85.8,14.3,74.9,17.2L74.9,17.2z M61.3,16.5c1.3-4.2,5.7-7.5,12-6.3C69.1,12.1,70.4,18.1,61.3,16.5L61.3,16.5z
					 M65.6,17.8c2,4.4,7.2,7.6,14,5.6C74.7,21.8,75.3,15.2,65.6,17.8L65.6,17.8z M63.2,18c-6.2-1-17.5,2.1-20,7
					C48.9,21.4,54.2,19.4,63.2,18L63.2,18z"/>
			</defs>
			
				<linearGradient id="SVGID_6_" gradientUnits="userSpaceOnUse" x1="298.2214" y1="-129.4643" x2="374.9103" y2="-129.4643" gradientTransform="matrix(1 0 0 1 -254.9434 146.1641)">
				<stop  offset="0" style="stop-color:#FFD300"/>
				<stop  offset="0.2303" style="stop-color:#FAB218"/>
				<stop  offset="0.2705" style="stop-color:#FAB420"/>
				<stop  offset="0.333" style="stop-color:#FBB938"/>
				<stop  offset="0.41" style="stop-color:#FCC25C"/>
				<stop  offset="0.4976" style="stop-color:#FECF84"/>
				<stop  offset="0.5576" style="stop-color:#FFDAA2"/>
				<stop  offset="0.5716" style="stop-color:#FFD68E"/>
				<stop  offset="0.5932" style="stop-color:#FFD275"/>
				<stop  offset="0.6173" style="stop-color:#FFCE5B"/>
				<stop  offset="0.6438" style="stop-color:#FFCB43"/>
				<stop  offset="0.674" style="stop-color:#FFC82E"/>
				<stop  offset="0.71" style="stop-color:#FFC71B"/>
				<stop  offset="0.7573" style="stop-color:#FFC60F"/>
				<stop  offset="0.8606" style="stop-color:#FFC60A"/>
				<stop  offset="1" style="stop-color:#FFD300"/>
			</linearGradient>
			<use xlink:href="#SVGID_2_"  style="overflow:visible;fill-rule:evenodd;clip-rule:evenodd;fill:url(#SVGID_6_);"/>
			<clipPath id="SVGID_7_">
				<use xlink:href="#SVGID_2_"  style="overflow:visible;"/>
			</clipPath>
		</g>
	</g>
</g>
</svg>
