<?xml version="1.0" encoding="utf-8"?>
<!-- Generator: Adobe Illustrator 19.2.1, SVG Export Plug-In . SVG Version: 6.00 Build 0)  -->
<svg version="1.1" id="Слой_1" xmlns="http://www.w3.org/2000/svg" xmlns:xlink="http://www.w3.org/1999/xlink" x="0px" y="0px"
	 viewBox="0 0 172 80" style="enable-background:new 0 0 172 80;" xml:space="preserve">
<style type="text/css">
	.st0{fill:#FFE6BE;}
	.st1{fill:#891D03;}
</style>
<g>
	<path class="st0" d="M157.1,77c0,0-1.5-2.8-1.5-2.8c-0.5-0.9-5-9.3-6.2-20l-0.1-1c-0.1-0.5-0.5-1-1-1.1l-1-0.2
		c-0.2,0-2.1-0.4-4.5-0.8c0.2-0.4,0.3-0.9,0.5-1.2l0.6-1.1c0.1-0.2,0.1-0.4,0.1-0.6c0-0.3-0.1-0.6-0.3-0.9l-0.8-0.9
		c-0.3-0.3-2.6-2.2-5.9-2.9c0,0,0,0,0,0c2.8,0,5.2-2.3,5.2-5.2c0-2.9-2.3-5.2-5.2-5.2c-2.8,0-5.2,2.3-5.2,5.2c0,2.3,1.5,4.2,3.6,4.9
		c-0.3,0-0.7-0.1-1-0.1c-1,0-2.1,0.1-3.2,0.2c0.2-1.4,0.3-2.8,0.3-4.2c0-21.1-21.6-38.2-48.1-38.2c-26.5,0-48.1,17.2-48.1,38.2
		c0,1.4,0.1,2.9,0.3,4.3c-1.4-0.2-2.6-0.3-3.7-0.3c-4.6,0.1-8.2,2.8-8.5,3.2l-0.8,0.9c-0.2,0.2-0.3,0.5-0.3,0.9c0,0.2,0,0.4,0.1,0.6
		l0.6,1.1c0.2,0.4,0.4,0.8,0.5,1.2c-2.4,0.3-4.2,0.7-4.5,0.8l-1,0.2c-0.5,0.1-0.9,0.6-1,1.1l-0.1,1c-1.2,10.7-5.7,19.1-6.2,20
		c0,0-1.5,2.8-1.5,2.8C9,77.2,9,77.4,9,77.6c0,0.3,0.1,0.5,0.3,0.8c0.3,0.4,0.8,0.6,1.3,0.5l3-0.7c7.5-1.7,15.6-1.1,15.7-1.1
		c0.3,0,7.1,0.5,11.8-1.8c1.3-0.6,2.4-1.6,3.4-2.8c1.4,0.4,9.3,2.6,9.3,2.6c6.8,1.9,14.4,2.8,19.6,3.2c2.9,0.2,5.3,0.3,6.9,0.3
		c1.6,0,4.3,0,5.8,0c1.5,0,4-0.1,6.9-0.3c5.1-0.4,12.7-1.2,19.6-3.2c0,0,6.9-1.9,9.3-2.6c1,1.2,2.1,2.2,3.4,2.8
		c4.7,2.3,11.5,1.8,11.8,1.8c0.1,0,8.2-0.6,15.7,1.1l3,0.7c0.5,0.1,1-0.1,1.3-0.5c0.2-0.2,0.3-0.5,0.3-0.8
		C157.3,77.4,157.2,77.2,157.1,77z"/>
	<path class="st1" d="M36.5,39.3c0,20.4,21,37,46.9,37c25.8,0,46.9-16.6,46.9-37c0-20.4-21-37-46.9-37C57.5,2.3,36.5,18.9,36.5,39.3
		z"/>
	<path class="st0" d="M38.4,39.3c0,19.3,20.2,34.9,45,34.9c24.8,0,45-15.7,45-34.9c0-19.3-20.2-34.9-45-34.9
		C58.6,4.4,38.4,20.1,38.4,39.3z"/>
	<path class="st1" d="M141.7,67.7c-0.1-0.3-1.1-4.9-1.1-9.9c0-3,0.4-6.1,1.5-8.4l0.6-1.1l-0.8-0.9c-0.3-0.3-3.5-2.7-7.6-2.8
		c-4.7-0.1-11.3,1.9-23.2,5.6l-3.4,1c-10.4,3.2-24.2,2.6-24.4,2.5h-0.6c-0.1,0-14,0.6-24.3-2.5l-3.4-1c-11.9-3.6-18.5-5.6-23.2-5.6
		c-4.1,0.1-7.3,2.5-7.6,2.8l-0.8,0.9l0.6,1.1c1.2,2.3,1.5,5.4,1.5,8.4c0,5-1,9.6-1.1,9.9c0,0.1-1.4,4.3-1.4,4.3l2.6-1.5
		c0,0,1.3-0.8,1.3-0.8c0,0,1.9-1.1,4.9-1.1c3.3,0,4.2,0.2,22.2,5.3c6.7,1.9,14.2,2.7,19.3,3.1c2.9,0.2,5.3,0.3,6.8,0.3
		c1.5,0,4.2,0,5.8,0c1.5,0,4-0.1,6.8-0.3c5.1-0.4,12.6-1.2,19.3-3.1c17.9-5.1,18.9-5.3,22.2-5.3c2.9,0,4.8,1,4.9,1.1
		c0,0,1.3,0.8,1.3,0.8l2.6,1.5C143.1,72,141.8,67.8,141.7,67.7z"/>
	<path class="st1" d="M46.3,52.5l0,0.1l0,0.1c0,0.1,0.2,1.5,0.2,3.7c0,3-1,11.7-1,11.7c-0.9,1.4-1.9,4.4-5,5.9
		c-4.5,2.2-11.2,1.7-11.2,1.7c-0.1,0-8.3-0.7-16.1,1.1l-3,0.7l1.5-2.7c0-0.1,5.1-9,6.4-20.5l0.1-1l1-0.2c0.3-0.1,2.6-0.6,5.4-0.9
		c2.1-0.3,7-1,11.4-1.3C44,50.4,45.8,51.1,46.3,52.5z"/>
	<path class="st0" d="M45.6,52.8L45.6,52.8l0,0.1c0,0.3,0.8,6.8-1.2,15.1l0,0l0,0c-0.5,1.4-1.7,4-4.2,5.4
		c-3.4,1.9-10.7,1.6-10.7,1.6c-0.1,0-8.4-0.7-16.3,1.1l-1.4,0.3l0.7-1.3c0.1-0.1,5.2-9.1,6.5-20.7l0.1-0.5l0.5-0.1
		c0.1,0,2.5-0.5,5.3-0.9c2.2-0.3,7-1,11.4-1.3C44.3,51.1,45.3,51.9,45.6,52.8z"/>
	<path class="st1" d="M45,53c-0.6-1.9-16.1,0.1-20.2,0.7c-2.9,0.3-5.3,0.9-5.3,0.9c-1.4,11.9-4.7,20.1-4.7,20.1
		c6.7-1.2,14.6-0.3,14.6-0.3s6.9,0.5,10.4-1.5c2.4-1.4,3.5-3.7,3.9-5.1C45.8,59.5,45,53,45,53z"/>
	<path class="st0" d="M25.3,70.9c0,0,2.1,1.6,5.3,1c2.7-0.6,6.1-1.8,8.9-0.1c0,0-3-0.8-6.2,0.3C30.7,73,27.2,73.5,25.3,70.9z"/>
	<path class="st1" d="M120,52.5l0,0.1l0,0.1c0,0.1-0.2,1.5-0.2,3.7c0,3,1,11.7,1,11.7c0.9,1.4,1.9,4.4,5,5.9
		c4.5,2.2,11.2,1.7,11.2,1.7c0.1,0,8.3-0.7,16.1,1.1l3,0.7l-1.5-2.7c0-0.1-5.1-9-6.4-20.5l-0.1-1l-1-0.2c-0.3-0.1-2.6-0.6-5.4-0.9
		c-2.1-0.3-7-1-11.4-1.3C122.2,50.4,120.5,51.1,120,52.5z"/>
	<path class="st0" d="M120.7,52.8L120.7,52.8l0,0.1c0,0.3-0.8,6.8,1.2,15.1l0,0l0,0c0.5,1.4,1.7,4,4.2,5.4
		c3.4,1.9,10.7,1.6,10.7,1.6c0.1,0,8.4-0.7,16.3,1.1l1.4,0.3l-0.7-1.3c-0.1-0.1-5.2-9.1-6.5-20.7l-0.1-0.5l-0.5-0.1
		c-0.1,0-2.5-0.5-5.3-0.9c-2.2-0.3-7-1-11.4-1.3C121.9,51.1,121,51.9,120.7,52.8z"/>
	<path class="st1" d="M121.3,53c0.6-1.9,16.1,0.1,20.2,0.7c2.9,0.3,5.3,0.9,5.3,0.9c1.4,11.9,4.7,20.1,4.7,20.1
		c-6.7-1.2-14.6-0.3-14.6-0.3s-6.9,0.5-10.4-1.5c-2.4-1.4-3.5-3.7-3.9-5.1C120.5,59.5,121.3,53,121.3,53z"/>
	<path class="st1" d="M133.8,38.5c0-1.8,1.4-3.3,3.2-3.3c1.8,0,3.2,1.5,3.2,3.3c0,1.8-1.4,3.3-3.2,3.3
		C135.2,41.8,133.8,40.3,133.8,38.5z M133.1,38.5c0,2.1,1.7,3.9,3.9,3.9c2.2,0,3.9-1.7,3.9-3.9c0-2.2-1.7-3.9-3.9-3.9
		C134.8,34.6,133.1,36.3,133.1,38.5z M135.6,40.4h0.7v-1.6h0.6c0.8,0,0.8,0.4,0.9,0.7c0,0.7,0,0.7,0.1,0.9h0.7
		c-0.2-0.2-0.1-0.3-0.2-0.9c0-0.4-0.1-0.8-0.6-0.9v0c0.6-0.2,0.7-0.6,0.7-0.9c0-1-0.9-1.1-1.3-1.1h-1.7V40.4z M136.3,37h0.8
		c0.5,0,0.8,0.1,0.8,0.6c0,0.3-0.1,0.6-0.7,0.6h-0.8V37z"/>
	<path class="st1" d="M39.5,39.3C39.5,57.9,59.2,73,83.3,73c24.2,0,43.8-15.1,43.8-33.7c0-18.6-19.7-33.7-43.8-33.7
		C59.2,5.6,39.5,20.7,39.5,39.3z"/>
	<path class="st0" d="M83.3,72.2c-11.1,0-43.1-14.7-43.1-32.9c0-18.2,19.3-32.9,43.1-32.9c23.8,0,43,14.7,43,32.9
		C126.4,57.5,94.5,72.2,83.3,72.2z"/>
	<path class="st0" d="M141.4,48.5l-0.3-0.3c-0.1-0.1-3.1-2.4-6.8-2.4c-4.9-0.1-12.1,2.2-26.2,6.5c-10.6,3.2-24.6,2.6-24.7,2.6
		c0,0-0.5,0-0.5,0c-0.1,0-14.1,0.6-24.8-2.6C44,48,36.8,45.7,31.9,45.8c-3.7,0.1-6.7,2.3-6.8,2.4l-0.3,0.3l0.2,0.4
		c3.4,6.5,0.6,19,0.6,19.2l-0.5,1.4l1.3-0.8c0,0,2.1-1.2,5.4-1.2c3.4,0,4.4,0.2,22.5,5.3c6.6,1.9,14,2.7,19.1,3.1
		c2.8,0.2,5.3,0.3,6.8,0.3c1.6,0,2.3,0,2.6,0c0.1,0,0.4,0,0.4,0c0.4,0,1,0,2.6,0c1.5,0,3.9-0.1,6.8-0.3c5-0.4,12.4-1.2,19.1-3.1
		c18.1-5.1,19.1-5.3,22.5-5.3c3.3,0,5.4,1.2,5.4,1.2l1.3,0.8l-0.5-1.4c0-0.1-2.8-12.6,0.6-19.2L141.4,48.5z"/>
	<path class="st1" d="M138.8,48.2c0,0-1.3-1.3-4.8-1.4c-4.9-0.1-11.6,1.8-25.6,6.1c-10.9,3.3-24.9,3-24.9,3h-0.4
		c0,0-14.1,0.3-24.9-3c-14-4.3-20.7-6.2-25.6-6.1c-3.5,0.1-4.9,1.4-4.9,1.4c3.5,6.8-1.1,19.6-1.1,19.6s1.8-1.7,5.3-1.7
		c3.5,0,4.9,1.1,22.9,6.2c12.8,3.6,28.3,3.4,28.3,3.4h0.4c0,0,15.5,0.2,28.3-3.4c18-5.1,19.4-6.2,22.9-6.2c3.5,0,5.3,1.7,5.3,1.7
		S135.3,55,138.8,48.2z"/>
	<g>
		<g>
			<polygon class="st1" points="115.5,42.5 107.2,41.7 107.2,42.7 115.5,42.7 			"/>
			<polygon class="st1" points="50.7,42.5 59.1,41.7 59.1,42.7 50.7,42.7 			"/>
		</g>
		<g>
			<path class="st1" d="M88.9,34.6V40c0,2.6,2.5,2.2,2.5,0.1v-4.8C91.4,32.9,88.9,32.4,88.9,34.6z M90.1,41.5
				c-0.4,0-0.7-0.3-0.9-0.9c0.5,0.1,0.9,0,1.3-0.1C90.4,41,90.3,41.3,90.1,41.5z M90.4,41.5c0.1-0.2,0.2-0.5,0.2-0.9
				c0.2,0,0.4-0.1,0.5-0.1C91,41,90.7,41.4,90.4,41.5z M91.2,40c-0.2-0.3-0.5-0.5-0.6-0.5l0-3.9c0,0,0,0,0-0.1l-0.7-0.1v4.3
				c0.3,0,0.5,0,0.6-0.1c0.3,0.1,0.5,0.3,0.6,0.5c-0.7,0.3-1.6,0.2-1.9,0.2c0-0.1,0-0.2-0.1-0.3v-0.3c0.2,0,0.4,0,0.6,0v-4.3
				l-0.6-0.1v-0.2l1.5,0.2c-0.1-0.6-0.4-1.1-0.7-1.3c-0.3-0.1-0.6,0.2-0.7,0.6v-0.1c0-1.8,2-1.6,2.1,0.6L91.2,40z"/>
			<path class="st1" d="M74.9,35.3v4.8c0,2.1,2.5,2.5,2.5-0.1v-5.4C77.4,32.4,74.9,32.9,74.9,35.3z M75.2,40.4
				c0.1,0,0.3,0.1,0.5,0.1c0,0.4,0.1,0.7,0.2,0.9C75.6,41.4,75.3,41,75.2,40.4z M76.2,41.5c-0.2-0.2-0.3-0.6-0.4-0.9
				c0.4,0.1,0.8,0.1,1.3,0.1C76.9,41.3,76.6,41.5,76.2,41.5z M77.2,34.7c-0.1-0.4-0.4-0.7-0.7-0.6c-0.4,0.1-0.7,0.7-0.8,1.3l1.5-0.2
				v0.2l-0.6,0.1v4.3c0.2,0,0.4,0,0.6,0v0.3c0,0.1,0,0.2,0,0.3c-0.3,0-1.2,0.1-1.9-0.2c0.1-0.2,0.3-0.4,0.5-0.5
				c0.1,0,0.4,0.1,0.6,0.1v-4.3l-0.7,0.1c0,0,0,0.1,0,0.1v3.9c-0.1,0.1-0.4,0.2-0.6,0.5l0-4.8C75.2,33.1,77.2,32.9,77.2,34.7
				L77.2,34.7z"/>
			<path class="st1" d="M109.8,25.1c0-0.9-1-1.2-1.1-1.4c-0.1-0.2-0.1-0.4-0.1-0.6v-0.7c-0.3-1.1-2.1-1-2.7-0.9v0.2
				c0,0.4-0.3,0.5-0.7,0.5c-0.4,0-1.8,0-1.9-1l-0.1-0.8c-0.5-1.7-3.5-1.2-3.6-1.2v0.1c0,0.4-0.3,0.8-0.8,0.8c-0.5,0-2.2-0.4-2.2-1.3
				v-0.4c-0.1-0.8-0.6-1.5-1.3-1.8c-0.7,0.1-1.4,0.2-2.2,0c-1.8-0.3-3.2-1.5-3.7-2.9c-0.6,0-0.6-0.4-0.6-0.4
				c-0.4-2.3-2.2-4.1-4.5-4.5c0,0,0,0-0.1,0c-0.1,0-0.2,0-0.3,0c-0.1,0-0.2,0-0.3,0c-0.1,0-0.3,0-0.4,0c0,0,0,0,0,0c0,0,0,0,0,0
				c-0.1,0-0.3,0-0.4,0c-0.1,0-0.2,0-0.3,0c-0.1,0-0.2,0-0.3,0c0,0-0.1,0-0.1,0c-2.3,0.4-4.1,2.2-4.5,4.5c0,0-0.1,0.4-0.6,0.4
				c-0.4,1.4-1.8,2.5-3.7,2.9c-0.8,0.1-1.5,0.1-2.2,0c-0.7,0.3-1.2,1-1.3,1.8v0.4c0,0.9-1.8,1.3-2.2,1.3c-0.4,0-0.8-0.3-0.8-0.8
				v-0.1c-0.1,0-3.1-0.5-3.6,1.2l-0.1,0.8c-0.1,1-1.5,1-1.9,1c-0.4,0-0.7-0.1-0.7-0.5v-0.2c-0.6-0.1-2.4-0.2-2.7,0.9v0.7
				c0,0.2,0,0.5-0.1,0.6c-0.1,0.2-1.1,0.5-1.1,1.4c0,0.7,0,1.4,0,2c0,0.9,0.4,1,0.4,1.5c0,0.5,0,13.7,0,13.7c0,0.2,0.1,0.3,0.4,0.3
				l13.2,0.9c0.2,0.5,1.4,0.4,1.4,0.4c0.3,0,0.8-0.1,0.8-0.1c0.4,0.1,3.4,0.7,5.8,0.4c0,0,1.9,0.6,4.8,0.6c0,0,0,0,0,0c0,0,0,0,0,0
				c2.8,0,4.8-0.6,4.8-0.6c2.4,0.4,5.3-0.3,5.8-0.4c0,0,0.5,0.1,0.8,0.1c0,0,1.1,0,1.4-0.4l13.2-0.9c0.2,0,0.4-0.1,0.4-0.3
				c0,0,0-13.2,0-13.7c0-0.5,0.4-0.6,0.4-1.5C109.9,26.5,109.8,25.8,109.8,25.1z M69.7,20c0.2-0.1,0.6-0.4,0.7-0.7
				c0.2-0.5,0.1-0.9,0.3-1.4c0.2-0.6,0.9-0.8,1.5-0.7c-0.8,0.3-1.2,0.6-1.2,1.4V22c0,0.5,0,1,0,1.2c-0.1,0.4-1.2,0.7-1.2,0.2V20z
				 M69.5,25.1L69.5,25.1c-0.1,0-0.1,0-0.2,0.1c-0.4,0.1-0.8,0.5-0.8,1.3l0,3c-0.2,0.1-0.3,0.2-0.4,0.3v-4.1
				C68.1,24.5,69.5,24.2,69.5,25.1z M60.7,27.4c-0.3,0.1-0.5,0.6-0.5,1v2.5c-0.4,0.2-0.6,0.4-0.7,0.5v-3.5c0-0.9,1.2-1.4,1.3-0.6
				C60.8,27.4,60.7,27.4,60.7,27.4z M60.8,31v0.4c-0.3-0.1-0.8,0-1.2,0.1c0.2-0.2,0.4-0.3,0.5-0.4C60.4,31.1,60.6,31,60.8,31z
				 M60.8,31.6v1.2c-0.4-0.1-1,0-1.4,0.2v-1.2C59.5,31.5,60.8,31.4,60.8,31.6z M60.8,33.1v0.3c-0.4-0.3-1-0.2-1.4,0.3v-0.4
				C59.5,32.9,60.8,32.9,60.8,33.1z M60.8,33.9c0,0-0.1,0-0.2,0c-0.3,0.1-0.5,0.6-0.5,1v2.4l-0.7,0v-3C59.5,33.5,60.7,33,60.8,33.9z
				 M59.5,37.5l0.6,0l0,0h0l0.6,0c-0.5,0.8,0,1.3,0.2,1.5l-1.1,0C59.1,38.5,59.3,37.9,59.5,37.5z M61,37.4l0.8,0
				c-0.5,0.8,0,1.3,0.2,1.5l-0.7,0C60.6,38.5,60.8,37.9,61,37.4z M62.1,37.4l1.4,0c-0.6,0.8,0,1.4,0.2,1.5l-1.3,0
				C61.7,38.5,61.8,37.8,62.1,37.4z M63.5,30.5v0.4c-0.3-0.1-0.9,0-1.3,0.1c0.2-0.2,0.3-0.3,0.5-0.3v0
				C62.9,30.6,63.2,30.5,63.5,30.5z M63.3,26.7c-0.3,0.1-0.6,0.6-0.6,1.1l0,2.6c-0.3,0.2-0.5,0.3-0.6,0.5v-3.6
				c0-0.9,1.4-1.5,1.4-0.5C63.4,26.7,63.4,26.7,63.3,26.7z M63.5,31.1v1.4c-0.4-0.1-1.1,0-1.4,0.2v-1.5C62.2,31,63.4,30.9,63.5,31.1
				z M63.5,32.7V33c-0.4-0.3-1.1-0.1-1.4,0.4v-0.5C62.2,32.6,63.4,32.6,63.5,32.7z M63.5,33.6c-0.1,0-0.1,0-0.2,0
				c-0.3,0.1-0.6,0.6-0.6,1.1l0,2.6l-0.6,0v-3.2C62.1,33.2,63.4,32.7,63.5,33.6z M63.7,37.4l0.9,0c-0.6,0.9,0,1.4,0.2,1.5l-0.8,0
				C63.3,38.4,63.5,37.8,63.7,37.4z M64.9,37.3l1.5,0c-0.6,0.9,0.1,1.4,0.2,1.5l-1.4,0C64.5,38.4,64.6,37.8,64.9,37.3z M66.2,26
				c-0.4,0.1-0.7,0.7-0.7,1.2l0,2.8c-0.3,0.1-0.5,0.3-0.6,0.4v-3.9c0-1,1.5-1.6,1.5-0.5v0C66.3,26,66.3,26,66.2,26z M66.4,30v0.4
				c-0.4-0.1-1,0-1.4,0.1c0.2-0.2,0.3-0.3,0.5-0.4C65.8,30.1,66.1,30,66.4,30z M66.4,30.6v1.6c-0.4-0.1-1.1,0-1.5,0.2v-1.6
				C65.1,30.5,66.3,30.4,66.4,30.6z M66.4,32.3v0.2c-0.4-0.3-1.1-0.1-1.5,0.4v-0.5C65.1,32.2,66.3,32.2,66.4,32.3z M66.4,33.2
				c-0.1,0-0.1,0-0.2,0c-0.4,0.1-0.7,0.6-0.7,1.1l0,2.8l-0.6,0v-3.4C64.9,32.8,66.3,32.2,66.4,33.2z M66.7,37.3l1.1,0
				c-0.6,0.9,0.1,1.5,0.2,1.6l-0.9,0C66.3,38.4,66.4,37.7,66.7,37.3z M68.1,37.2l1.5,0c-0.7,1,0.3,1.6,0.3,1.6l-1.4,0
				C67.6,38.4,67.8,37.7,68.1,37.2z M69.4,32.9c-0.4,0.1-0.9,0.3-0.9,1.2l0,2.9l-0.4,0v-3.7c0-0.9,1.4-1.4,1.5-0.4
				C69.5,32.9,69.4,32.9,69.4,32.9z M69.5,30v1.6c-0.4-0.1-1.1,0-1.5,0.2v-1.7C68.3,30,69.3,29.9,69.5,30z M68.1,30
				c0.2-0.2,0.3-0.3,0.5-0.4c0.2-0.1,0.7-0.1,0.9-0.1v0.4C69.2,29.7,68.5,29.8,68.1,30z M69.5,31.9v0.3c-0.4-0.3-1.1-0.2-1.5,0.3V32
				C68.3,31.8,69.3,31.8,69.5,31.9z M64.8,20.3c0,0,0-0.5,0.6-0.7c0,0,0.5-0.1,1,0c0,0,0.3,1,1.5,0.8v0.4l-3.1,1V20.3z M63.6,20.7
				c0-0.3,0.4-0.8,1.1-0.9c-0.3,0.4-0.3,0.7-0.3,0.7l0,1.5c-0.2,0.1-0.4,0.2-0.8,0.2C63.6,21.7,63.6,21,63.6,20.7z M63.8,22.7
				c1.5-0.5,3.1-1,4.7-1.6l0.7-0.2v0.2c-2.6,0.9-9.4,3.2-10.6,3.6c0.1-0.1,0.2-0.2,0.2-0.3l1.6-0.5c0.1,0,0.1,0,0.1-0.1
				C61.7,23.5,62.7,23.1,63.8,22.7z M69.3,21.4v0.3l-10.8,3.5c0-0.1,0-0.2,0.1-0.3l9.7-3.3L69.3,21.4z M60.1,22
				c0.1,0.7,1.1,0.6,1.5,0.5c0,0.3,0,0.5,0,0.5l-2.5,0.8c0-0.1,0-0.7,0-1.3C59.2,22.3,60,21.5,60.1,22z M58.4,41.9
				c-0.4,0-0.9-0.1-0.9-0.7l0-12.7c0-0.7-0.6-0.8-0.6-1.5c0-0.6,0-0.9,0-1.5c0-0.4,0.3-0.7,0.7-1c0.3-0.2,0.6-0.6,0.6-0.9
				c0-0.2,0-0.4,0-0.8c0-0.3,0.4-0.6,0.9-0.7c-0.3,0.1-0.5,0.4-0.5,0.6c0,0.6,0.1,1.2-0.2,1.5c-0.4,0.4-0.7,0.6-0.7,1.1
				c0,0.4,0,0.9,0,1.3c0,0.9,0.6,0.7,0.6,1.5V41.9z M69.3,22.1v0.3l-10.8,3.5c0-0.1,0-0.2,0-0.3L69.3,22.1z M69.2,22.9
				c0,0,0,0.4,0,0.6c0,0.2-0.1,0.6,0.2,0.7c-0.6,0-1.6,0.3-1.6,1.5v11.4l-1.1,0V25.9h0c0-1.4-2-0.7-2,0.6l0,0v10.7l-0.9,0V26.7
				c0-1.3-1.9-0.7-1.9,0.5v10l-0.7,0v-9.9h0c-0.1-1.2-1.8-0.7-1.8,0.5v9.4v0.2v0h0c-0.5,0.8-0.1,1.3,0.1,1.4h-0.1
				c-0.2,0-0.4,0.1-0.5,0.2V28c0-1.1-0.3-0.7-0.3-1.7C58.9,26.2,69.2,22.9,69.2,22.9z M59,41.9c-0.1,0-0.2,0-0.3,0v-1.9
				c0.1,0.1,0.2,0.2,0.3,0.2V41.9z M60.9,42c-0.3,0-0.7,0-0.9,0v-0.4c0-0.5,0.2-0.9,0.5-1c0.1,0,0.1,0,0.2,0
				c-0.2-0.4-0.9-0.1-0.9,0.4v0.9c-0.1,0-0.1,0-0.2,0V41c0-0.9,1.2-1.1,1.2-0.3c0,0,0,0,0,0V42z M63.3,42.1c-0.4,0-0.7,0-1,0v-0.4
				c0-0.5,0.3-0.9,0.6-1c0.1,0,0.2,0,0.2,0c-0.2-0.4-1-0.1-1,0.5v1c-0.1,0-0.1,0-0.2,0v-1c0-0.9,1.3-1.2,1.4-0.3v0V42.1z M66,40.8
				v1.4c-0.4,0-0.8,0-1.2,0v-0.4c0-0.5,0.3-1,0.7-1.1c0.1,0,0.2,0,0.2,0c-0.2-0.5-1.1-0.2-1.1,0.4v1.1c-0.1,0-0.1,0-0.2,0v-1
				C64.4,40.2,66,39.8,66,40.8C66,40.8,66,40.8,66,40.8z M69.2,40.9v1.5c-0.4,0-0.8,0-1.3-0.1l0-0.5c0-0.5,0.3-1.1,0.8-1.2
				c0.1,0,0.1,0,0.2,0c-0.3-0.4-1.2-0.1-1.2,0.5v1.2c-0.1,0-0.2,0-0.3,0v-1.2c0-1,1.7-1.3,1.8-0.3c0,0,0,0,0,0V40.9
				C69.2,40.8,69.2,40.9,69.2,40.9L69.2,40.9z M70.1,39.9l-11,0c-0.1-0.1-0.1-0.2-0.2-0.3l11.2,0V39.9z M70.1,39.2l-11.1,0.1
				c0.1-0.1,0.2-0.2,0.3-0.2L70.1,39V39.2z M70.1,38.8c-0.6-0.4-0.5-1.1-0.3-1.6V37v0h0v-5.2h0c0,0,0,0,0,0V30h0c0,0,0,0,0,0v-4.9
				c0-0.5-0.1-0.7-0.3-0.9c0.1,0,0.1,0,0.2,0c0.4,0.4,0.3,0.7,0.3,1.2V38.8z M71.5,42.9c-1,0-1-0.6-1.1-1.3V25.4
				c0-0.4,0-0.8-0.2-1.2c0.2,0,0.5-0.1,0.8-0.3c0.3,0.3,0.5,0.8,0.5,1.6V42.9z M72.4,42.7c-0.2,0.2-0.5,0.2-0.6,0.2V25.5
				c0-0.8-0.1-1.3-0.5-1.9V19c0-0.9,0.5-1.2,0.7-1.2c0,0.5,0,2.9,0,3.5c0,0.6,0.2,1.2,0.4,1.7V42.7z M93.6,19.7
				c-0.9-0.7-2.8-0.8-4.4-0.6c0-0.3,0-0.5-0.1-0.7c1.3-0.1,3.6,0.1,4.4,0.8V19.7z M88.3,14.3c1.1,1.8,3,2.9,5.3,3.4V18
				c-2.6-0.5-4.5-1.7-5.4-3.3C88.3,14.5,88.3,14.4,88.3,14.3z M93.6,18.4l0,0.4c-0.9-0.5-2.7-0.8-4.5-0.8c-0.1,0-1.5-1.2-2-1.5
				c0.5-0.3,0.8-0.8,0.9-1.3C89.7,17.6,92.7,18.1,93.6,18.4z M88.6,30.2c-0.1,0-0.2-0.1-0.3-0.1c0.1-0.3,0-0.9-0.1-1.5
				c0-0.2-0.1-0.3-0.1-0.5V23c0.1-1.7-1.2-1.6-1.2,0v5c0,1,0.2,1.6,0.5,2c-0.1,0-0.2,0-0.3,0c-0.2-0.8-0.6-1.4-0.7-1.6
				c0.1,0,0.2,0,0.3-0.1l0-0.2c-0.1,0-0.2,0-0.3,0v-0.5c0.1,0,0.2-0.1,0.3-0.1v-0.2c-0.1,0-0.2,0-0.3,0v-0.5c0.1,0,0.2-0.1,0.3-0.1
				v-0.2c-0.1,0-0.2,0-0.3,0v-0.5c0.1,0,0.2-0.1,0.3-0.1v-0.2c-0.1,0-0.2,0-0.3,0.1v-0.5c0.1,0,0.2-0.1,0.3-0.1V25
				c-0.1,0-0.2,0-0.3,0.1v-0.5c0.1,0,0.2-0.1,0.3-0.1v-0.2c-0.1,0-0.2,0-0.3,0.1v-0.5c0.1,0,0.2-0.1,0.3-0.1v-0.2
				c-0.1,0-0.2,0-0.3,0.1V23c0.1,0,0.2-0.1,0.3-0.1c0-0.1,0-0.1,0-0.2c-0.1,0-0.2,0-0.2,0c0.4-0.8,0.4-1.7,0.5-2.2
				c0.5-0.1,1.2,0,1.6,0.2c0.1,0.6,0.1,1.3-0.3,2.1v5.9C88.4,28.7,88.6,29.3,88.6,30.2z M88.1,28.8c0.1,0.5,0.2,1.2-0.1,1.2l0,0
				C88,29.8,88.1,29.3,88.1,28.8z M88,27.9c-0.1-0.2-0.2-0.3-0.3-0.4l0-3.5c0-0.6-0.2-1.3-0.5-1.5c0.2-0.8,0.8-0.7,0.8,0.4V27.9z
				 M87.6,27.6c0.2,0.2,0.3,0.5,0.4,0.7c-0.1-0.1-0.4-0.2-0.8-0.3v-0.4C87.3,27.6,87.5,27.6,87.6,27.6z M87.9,28.5
				c0,0.4,0,1.1-0.1,1.4c-0.3-0.2-0.6-0.8-0.6-1.6C87.3,28.3,87.6,28.4,87.9,28.5z M88.6,30.6c0,0.1,0,0.1,0,0.2c0,0.1,0,0.1,0,0.2
				c-0.2-0.1-0.7-0.3-1.3-0.3c0-0.1,0-0.3,0-0.4C87.4,30.2,88,30.2,88.6,30.6z M78.3,29.9L78.3,29.9c-0.3,0-0.2-0.6-0.1-1.2
				C78.2,29.3,78.3,29.8,78.3,29.9z M78.3,28.3c0.1-0.2,0.2-0.5,0.4-0.7c0.1,0,0.3-0.1,0.4-0.1V28C78.8,28.1,78.5,28.2,78.3,28.3z
				 M79.1,28.2c0,0.9-0.3,1.5-0.6,1.6c-0.1-0.3-0.1-1-0.1-1.4C78.7,28.4,79,28.3,79.1,28.2z M78.6,24l0,3.5
				c-0.1,0.1-0.2,0.2-0.3,0.4v-5c0-1,0.6-1.2,0.8-0.4C78.8,22.7,78.6,23.4,78.6,24z M79,30.3c0,0.1,0,0.2,0,0.4
				c-0.6-0.1-1.1,0.2-1.3,0.3c0-0.1,0-0.1,0-0.2c0-0.1,0-0.2,0-0.2C78.3,30.2,78.9,30.2,79,30.3z M78.8,29.9c0.3-0.4,0.5-1,0.5-2v-5
				c0-1.6-1.2-1.7-1.2,0v5.1c0,0.2,0,0.4-0.1,0.5c-0.1,0.6-0.2,1.2-0.1,1.5c-0.1,0-0.3,0.1-0.3,0.1c0.1-0.9,0.3-1.5,0.3-1.5v-5.9
				c-0.4-0.8-0.5-1.6-0.3-2.1c0.5-0.2,1.1-0.3,1.6-0.2c0,0.4,0.1,1.3,0.5,2.2c-0.1,0-0.2,0-0.2,0c0,0.1,0,0.2,0,0.2
				c0.1,0,0.2,0.1,0.3,0.1v0.5c-0.1,0-0.2-0.1-0.3-0.1v0.2c0.1,0,0.2,0.1,0.3,0.1v0.5c-0.1,0-0.2-0.1-0.3-0.1v0.2
				c0.1,0,0.2,0.1,0.3,0.1V25c-0.1,0-0.2-0.1-0.3-0.1v0.2c0.1,0,0.2,0.1,0.3,0.1v0.5c-0.1,0-0.2-0.1-0.3-0.1V26c0.1,0,0.2,0,0.3,0.1
				v0.5c-0.1,0-0.2-0.1-0.3,0v0.2c0.1,0,0.2,0,0.3,0.1v0.5c-0.1,0-0.2,0-0.3,0v0.2c0.1,0,0.2,0,0.3,0.1v0.5c-0.1,0-0.2-0.1-0.3,0
				l0,0.2c0.1,0,0.2,0,0.3,0.1c-0.1,0.1-0.5,0.7-0.7,1.6C79,29.9,78.9,29.9,78.8,29.9z M78.2,18.4c0.1,0.1,0.2,0.2,0.3,0.3
				c-0.5,0-0.9,0.2-1.1,0.2c0-0.2,0-0.2,0.1-0.4C77.7,18.4,78,18.4,78.2,18.4z M77.6,18.2c0-0.2,0.3-0.4,0.5-0.5c0,0.1,0,0.3,0,0.4
				C77.9,18.1,77.7,18.2,77.6,18.2z M83.2,13c-0.7,0-1.2,0.6-1.2,1.2c0,0.2,0,0.4,0.1,0.6c0,0,0,0,0,0c-0.2,0.2-0.6,0.4-0.8,0.5
				c-0.9-3.9,4.6-4.1,3.8,0c-0.2-0.1-0.6-0.3-0.8-0.5c0,0,0,0,0,0c0.1-0.2,0.1-0.4,0.1-0.6C84.4,13.5,83.8,13,83.2,13z M83.2,12
				c-1.2,0-2.5,0.9-2.4,2.8c0,0-0.2-0.4-0.2-1.1c0-0.3,0.1-0.6,0.2-0.9c0.1-0.2,0.2-0.5,0.4-0.7l0,0c0.1-0.1,0.2-0.2,0.3-0.3
				c0,0,0,0,0,0c0.1-0.1,0.2-0.2,0.3-0.2c0,0,0,0,0,0c0.1-0.1,0.2-0.1,0.3-0.2c0,0,0,0,0.1,0c0.1-0.1,0.2-0.1,0.3-0.1c0,0,0,0,0,0
				c0.1,0,0.2-0.1,0.4-0.1c0,0,0.1,0,0.1,0c0.1,0,0.2,0,0.4,0c0.1,0,0.2,0,0.4,0c0,0,0.1,0,0.1,0c0.1,0,0.2,0,0.4,0.1c0,0,0,0,0,0
				c0.1,0,0.2,0.1,0.3,0.1c0,0,0,0,0,0c0.1,0,0.2,0.1,0.3,0.2c0,0,0,0,0,0c0.1,0.1,0.2,0.2,0.3,0.2c0,0,0,0,0,0
				c0.1,0.1,0.2,0.2,0.3,0.3l0,0c0.2,0.2,0.3,0.4,0.4,0.7c0.1,0.3,0.2,0.6,0.2,0.9c0,0.7-0.2,1-0.2,1.1C85.6,12.9,84.4,12,83.2,12z
				 M83.2,14.7l4.7,2.8c0,0.1,0,0.1,0,0.2L83.2,15l-4.7,2.7c0-0.1,0-0.2,0-0.2L83.2,14.7z M88.8,18.5c0.1,0.2,0.1,0.3,0.1,0.4
				c-0.2-0.1-0.7-0.2-1.1-0.2c0.1-0.1,0.2-0.2,0.3-0.3C88.3,18.4,88.6,18.4,88.8,18.5z M88.2,18.1c0-0.2,0-0.3,0-0.4
				c0.2,0.1,0.5,0.3,0.5,0.5C88.6,18.2,88.4,18.1,88.2,18.1z M86.2,22.9v0.5c-0.1,0-0.3-0.1-0.6-0.2v0.3c0.2,0,0.4,0.1,0.6,0.2v0.5
				c-0.1,0-0.3-0.1-0.6-0.2v0.3c0.2,0,0.4,0.1,0.6,0.2v0.5c-0.1,0-0.3-0.1-0.6-0.2V25c0.2,0,0.4,0.1,0.6,0.2v0.5
				c-0.1,0-0.3-0.1-0.6-0.2v0.3c0.2,0,0.4,0.1,0.6,0.2v0.5c-0.1,0-0.3-0.1-0.6-0.2v0.3c0.2,0,0.4,0.1,0.6,0.2v0.5
				c-0.1,0-0.3-0.1-0.6-0.2v0.3c0.2,0,0.4,0.1,0.6,0.2v0.5c-0.1,0-0.3-0.1-0.6-0.2v0.3c0.2,0,0.4,0.1,0.6,0.2c0.3,0.5,0.5,1,0.6,1.5
				c-0.8-0.2-1.8-0.3-2.9-0.3c0.9-0.3,1.4-1.1,1.4-2.6V23c0-2.8-1.8-2.8-2-1.6c-0.1,0-0.4,0-0.5,0c-0.2-1.2-2-1.3-2,1.6V27
				c0,1.5,0.5,2.3,1.4,2.6c-1.1,0-2.1,0.1-2.9,0.3c0.1-0.5,0.3-1,0.6-1.5c0.2-0.1,0.4-0.1,0.6-0.2v-0.3c-0.2,0.1-0.5,0.1-0.6,0.2
				v-0.5c0.2-0.1,0.4-0.1,0.6-0.2v-0.3c-0.2,0.1-0.5,0.1-0.6,0.2v-0.5c0.2-0.1,0.4-0.1,0.6-0.2v-0.3c-0.2,0.1-0.5,0.1-0.6,0.2V26
				c0.2-0.1,0.4-0.1,0.6-0.2v-0.3c-0.2,0.1-0.5,0.1-0.6,0.2v-0.5c0.2-0.1,0.4-0.1,0.6-0.2v-0.3c-0.2,0.1-0.5,0.1-0.6,0.2v-0.5
				c0.2-0.1,0.4-0.1,0.6-0.2V24c-0.2,0.1-0.5,0.1-0.6,0.2v-0.5c0.2-0.1,0.4-0.1,0.6-0.2v-0.3c-0.2,0.1-0.5,0.1-0.6,0.2v-0.5
				c0.2-0.1,0.4-0.1,0.6-0.2v-0.3c-0.2,0.1-0.5,0.1-0.6,0.2c-0.1-0.2-0.5-1.2-0.4-2.2c0-0.3,0.2-0.7,0.5-0.9c0.2-2.1,2-3.1,2.2-2.1
				h0c-0.3,0-0.6,0.2-0.6,0.6c0,0.1,0.1,0.3,0.1,0.4c0,0-0.1,0.6-0.7,0.6c-0.4,0-0.7,0.3-0.7,0.7c0,0.4,0.3,0.7,0.7,0.7
				c0.4,0,1.2-0.3,2-0.3c0.7,0,1.5,0.3,2,0.3c0.4,0,0.7-0.3,0.7-0.7c0-0.4-0.3-0.7-0.7-0.7c-0.6,0-0.7-0.6-0.7-0.6
				c0.1-0.1,0.1-0.2,0.1-0.4c0-0.3-0.2-0.6-0.6-0.6h0c0.2-1,2,0,2.2,2.1c0.4,0.2,0.5,0.7,0.5,0.9c0,1-0.4,2-0.4,2.2
				c-0.1,0-0.3-0.1-0.6-0.2v0.3C85.8,22.7,86.1,22.8,86.2,22.9z M83,27.4v-3.6h-1.4v3.4c-0.1,0.1-0.2,0.2-0.4,0.3c0-0.2,0-0.4,0-0.6
				v-4c0-2.4,1.4-2.3,1.5-1.2c-0.6,0.2-1.1,0.9-1.1,1.7H83v-1.7h0.3v1.7h1.4c0-0.8-0.5-1.5-1.1-1.7c0-1.2,1.5-1.2,1.5,1.2l0,4
				c0,0.2,0,0.4,0,0.6c-0.1-0.2-0.3-0.3-0.4-0.3v-3.4h-1.4v3.6c0.5,0,1,0,1.4,0.1l0,0c0.1,0.1,0.2,0.2,0.2,0.3c-1-0.2-2.7-0.2-3.7,0
				c0.1-0.1,0.1-0.2,0.2-0.3l0,0C82,27.4,82.5,27.4,83,27.4z M85,28.1c-0.3,0.9-0.9,1.3-1.8,1.3c-0.9,0-1.5-0.4-1.8-1.3
				C82,27.9,84.3,27.8,85,28.1z M79.8,19.2c0,0.1,0,0.2,0,0.4c-0.1,0.1-0.1,0.2-0.2,0.3c-0.2-0.1-0.3-0.3-0.4-0.5
				C79.3,19.4,79.6,19.3,79.8,19.2z M79,19.1c-0.1-0.2-0.1-0.3-0.1-0.5c0.3,0,0.6,0,1-0.2c0,0-0.1,0.3-0.1,0.5
				C79.7,19,79.2,19.1,79,19.1z M84.2,19.9c-0.4-0.1-0.7-0.1-1-0.1c-0.3,0-0.6,0-1,0.1c0.2-0.2,0.6-0.5,1-0.5
				C83.5,19.4,84,19.6,84.2,19.9z M83.6,17.9c0-0.2,0.2-0.4,0.4-0.4c0.2,0,0.4,0.2,0.4,0.4c0,0.2-0.2,0.4-0.4,0.4
				C83.8,18.2,83.6,18.1,83.6,17.9z M82.3,18.2c-0.2,0-0.4-0.2-0.4-0.4c0-0.2,0.2-0.4,0.4-0.4c0.2,0,0.4,0.2,0.4,0.4
				C82.7,18.1,82.5,18.2,82.3,18.2z M81.5,20C81.5,20,81.5,20,81.5,20c-0.1,0.1-0.2,0.1-0.3,0.1c-0.3,0-0.6-0.3-0.6-0.6
				c0-0.3,0.2-0.6,0.6-0.6c0,0,0.1,0,0.1,0c-0.2,0.1-0.3,0.3-0.3,0.5C81,19.7,81.3,20,81.5,20z M85,19c0,0,0.1,0,0.1,0
				c0.3,0,0.6,0.3,0.6,0.6c0,0.3-0.2,0.6-0.6,0.6c-0.1,0-0.3,0-0.4-0.1c0,0,0,0,0,0c0.3,0,0.5-0.2,0.5-0.5
				C85.3,19.3,85.2,19.1,85,19z M86.6,19.6c0-0.1,0-0.2,0-0.4c0.2,0.1,0.5,0.1,0.6,0.1c-0.1,0.2-0.2,0.4-0.4,0.5
				C86.7,19.8,86.6,19.7,86.6,19.6z M86.5,18.9c-0.1-0.3-0.1-0.5-0.1-0.5c0.4,0.1,0.7,0.2,1,0.2c0,0.2-0.1,0.3-0.1,0.5
				C87.1,19.1,86.6,19,86.5,18.9z M86.3,18.1c0-0.1-0.1-0.1-0.1-0.2c0,0,0,0,0,0c-0.1-0.2-0.4-0.6-0.6-0.9c-0.6-0.6-1.4-0.6-1.8-0.3
				c-0.4,0.4-0.3,1-0.3,1.1c0,0.2-0.1,0.4-0.3,0.4c-0.2,0-0.3-0.2-0.3-0.4c0-0.2,0.1-0.8-0.3-1.1c-0.4-0.4-1.2-0.3-1.8,0.3
				c-0.3,0.3-0.5,0.6-0.6,0.9c0,0,0,0,0,0c-0.1,0.1-0.1,0.2-0.1,0.2c-0.1,0.2-1,0.3-1.1,0.3c-0.3,0-0.4-0.2-0.4-0.4l4.7-2.6l4.7,2.6
				c0,0.2-0.2,0.4-0.4,0.4C87.2,18.4,86.4,18.2,86.3,18.1z M78.6,19.1c0,0.2,0.2,0.5,0.5,0.9c-0.5,0-1.1,0-1.5,0.2
				c-0.1-0.2-0.1-0.4-0.1-0.7C77.6,19.3,78.2,19.1,78.6,19.1z M79.4,30.2c1.2-0.4,3-0.4,3.8-0.4c0.8,0,2.5,0,3.8,0.4
				c0,0.1,0,0.3,0,0.4c-1.1-0.3-2.5-0.4-3.8-0.4c-1.4,0-2.8,0.1-3.8,0.4C79.3,30.5,79.4,30.3,79.4,30.2z M87.2,20
				c0.3-0.3,0.4-0.7,0.5-0.9c0.4,0,1,0.2,1.2,0.3c0,0.3-0.1,0.6-0.1,0.7C88.4,20,87.7,19.9,87.2,20z M78.5,13.4c0.3-2.3,2.3-4,4.7-4
				c2.4,0,4.3,1.7,4.7,4c0.2,1.6-0.4,2.3-0.8,2.6c-0.8,0.4-1.3-0.3-1-1.1c0,0,0.1-0.3,0.2-0.4c0,0,0,0,0,0c0-0.1,0-0.2,0.1-0.2
				c0,0,0-0.1,0-0.1c0-0.1,0-0.1,0-0.2c0-0.1,0-0.2,0-0.3c0-1.7-1.4-3.1-3.1-3.1c-1.7,0-3.1,1.4-3.1,3.1c0,0.1,0,0.2,0,0.3
				c0,0.1,0,0.1,0,0.2c0,0,0,0.1,0,0.1c0,0.1,0,0.2,0.1,0.2c0,0,0,0,0,0c0,0.1,0.2,0.4,0.2,0.4c0.4,0.7-0.2,1.5-1,1.1
				C78.9,15.7,78.3,15,78.5,13.4z M72.7,17.6c2.3-0.5,4.2-1.5,5.3-3.4c0,0.1,0,0.3,0.1,0.4c-0.8,1.6-2.8,2.8-5.4,3.3V17.6z
				 M78.2,15.2c0.2,0.5,0.5,1,0.9,1.3c-0.4,0.3-1.9,1.5-2,1.5c-1.8-0.1-3.6,0.3-4.5,0.8l0-0.4C73.6,18.1,76.6,17.6,78.2,15.2z
				 M72.7,19.2c0.8-0.6,3.1-0.9,4.5-0.8c0,0.2-0.1,0.4-0.1,0.7c-1.6-0.2-3.4-0.1-4.4,0.6V19.2z M77,19.6c0,0.2,0.1,0.5,0.1,0.7
				c-1.6-0.2-3.4-0.3-4.5,0.5l0-0.6C73.5,19.4,75.7,19.2,77,19.6z M77.1,20.8c0,0-0.1,1.3,0.5,2.3c-0.5-0.1-0.9-0.1-1.3-0.1
				c0,0.1,0,0.2,0.1,0.2c0.6,0,1.1,0.1,1.3,0.2v0.5c-0.4-0.1-0.9-0.1-1.3-0.1V24c0.6,0,1.1,0.1,1.3,0.2v0.5
				c-0.4-0.1-0.9-0.1-1.3-0.1v0.2c0.6,0,1.1,0.1,1.3,0.1v0.5c-0.4-0.1-0.9-0.1-1.3-0.1v0.2c0.6,0,1.1,0.1,1.3,0.1v0.5
				c-0.4-0.1-0.9-0.1-1.3-0.1v0.2c0.6,0,1.1,0.1,1.3,0.1v0.5C77.2,27,76.7,27,76.4,27v0.2c0.6,0,1.1,0.1,1.3,0.1v0.5
				c-0.4-0.1-0.9-0.1-1.3-0.1v0.2c0.6,0,1.1,0.1,1.3,0.1v0.5c-0.4-0.1-0.9-0.1-1.3-0.1l0,0.3c0.5,0,1,0.1,1.2,0.1
				c-0.1,0.5-0.2,0.9-0.2,1.3c-0.7,0-1.5,0-2.2,0.1c0.5-0.3,1-1,1-2v-4.8c0-2.2-2.5-1.8-2.5,0.7V29c0,0.9,0.4,1.3,0.8,1.4
				c-0.8,0.2-1.5,0.3-1.8,0.4c0.2-1.2,0.5-1.5,0.5-1.5l0,0c0.1-0.1,0.2-0.1,0.3-0.1V29c-0.2,0.1-0.3,0.1-0.3,0.1v-0.6
				c0.1-0.1,0.2-0.1,0.3-0.1v-0.2c-0.2,0.1-0.3,0.1-0.3,0.1v0v-0.6c0.1-0.1,0.2-0.1,0.3-0.1v-0.2c-0.2,0.1-0.3,0.1-0.3,0.1v-0.6
				c0.1-0.1,0.2-0.1,0.3-0.1v-0.2c-0.2,0.1-0.3,0.1-0.3,0.1v-0.6c0.1,0,0.2-0.1,0.3-0.1v-0.2c-0.2,0.1-0.3,0.1-0.3,0.1v-0.6
				c0.1,0,0.2-0.1,0.3-0.1v-0.2c-0.2,0.1-0.3,0.1-0.3,0.1v-0.6c0.1,0,0.2-0.1,0.3-0.1v-0.2c-0.2,0.1-0.3,0.1-0.3,0.1v-0.6
				c0.1,0,0.2-0.1,0.3-0.1l0.1-0.3c-0.2,0.1-0.4,0.1-0.4,0.1c-0.5-0.8-0.6-1.2-0.6-2.2C73.6,20.3,76.3,20.5,77.1,20.8z M76,24.2v0.2
				l-0.8,0.2v0.9v0.2v2.4c0.3,0,0.5,0,0.8,0v0.3c0,0.1,0,0.2,0,0.2c-0.8-0.1-1.5,0.1-1.9,0.2c0.1-0.2,0.2-0.4,0.4-0.6
				c0.2-0.1,0.4-0.1,0.6-0.2v-2.4l0-0.2v-0.9l-0.7,0.2l0,3.5c-0.1,0.1-0.3,0.3-0.3,0.5v-4.6C74,22,76,21.8,76,23.6v0.1
				c-0.1-0.5-0.4-0.7-0.8-0.6c-0.5,0.1-0.9,0.8-0.9,1.5v0L76,24.2z M75.9,28.9c-0.2,0.8-0.6,1.2-1,1.3c-0.3-0.3-0.4-0.8-0.4-1.2
				C75.1,28.8,75.7,28.8,75.9,28.9z M74,29.1c0.1-0.1,0.3-0.1,0.4-0.1c0,0.6,0.2,1.1,0.3,1.2C74.3,30.2,74,29.8,74,29.1
				C73.9,29.1,73.9,29.1,74,29.1z M77.4,30.5c0,0.1,0,0.1,0,0.2c-2.1-0.1-4.2,0.5-4.7,0.7c0-0.1,0-0.1,0-0.2
				C74.8,30.4,76.7,30.4,77.4,30.5z M72.7,30.1v-6.7c0.1,0.1,0.1,0.2,0.2,0.3v5.7C72.9,29.4,72.8,29.6,72.7,30.1z M77.4,30.9
				c0,0.1,0,0.2,0,0.2c-2.1-0.1-4.3,0.5-4.7,0.7v-0.2C74.9,30.9,76.8,30.9,77.4,30.9z M72.7,42.7V33c0.2,0.5,0.5,1.2,1,1.7v6.4
				C73.7,41.1,73.1,41.7,72.7,42.7C72.7,42.7,72.7,42.7,72.7,42.7z M78.2,43c-0.8,0.1-3.3,0.3-5-0.4c0.2-0.5,0.4-1,0.9-1.4
				c0.2,0,0.5,0,0.8,0l-0.1-0.3c-0.2,0-0.4,0-0.7,0v-0.6c0.2,0,0.4,0,0.6,0v-0.3c-0.2,0-0.4,0-0.6,0v-0.6c0.2,0,0.4,0,0.6,0V39
				c-0.2,0-0.4,0-0.6,0v-0.6c0.2,0,0.4,0,0.6,0v-0.3c-0.2,0-0.4,0-0.6,0v-0.6c0.2,0,0.4,0,0.6,0v-0.3c-0.2,0-0.4,0-0.6,0v-0.6
				c0.2,0,0.4,0,0.6,0v-0.3c-0.2,0-0.4,0-0.6,0v-0.6c0.2,0,0.4,0,0.6,0v-0.3c-0.2,0-0.4,0-0.6,0v-0.6c0.2,0,0.4,0,0.6,0l0.1-0.3
				c-0.2,0-0.6,0-0.8,0c-0.3-0.3-1-1.3-1.2-2.4c2.2-0.7,4-0.7,4.7-0.7c0.2,1.3,0.9,2.4,1.3,2.8c-0.4,0-0.7,0-1,0l0,0.3
				c0.4,0,0.8,0,1,0v0.6c-0.4,0-0.7,0-1,0v0.3c0.4,0,0.8,0,1,0v0.6c-0.4,0-0.7,0-1,0v0.3c0.4,0,0.8,0,1,0V37c-0.4,0-0.7,0-1,0v0.3
				c0.4,0,0.8,0,1,0V38c-0.4,0-0.7,0-1,0v0.3c0.4,0,0.8,0,1,0v0.6c-0.4,0-0.7,0-1,0v0.3c0.4,0,0.8,0,1,0v0.6c-0.4,0-0.7,0-1,0v0.3
				c0.4,0,0.8,0,1,0v0.6c-0.4,0-0.8,0-1.1,0l-0.1,0.3c0.4,0,0.9,0,1.2,0C78.4,41.7,78.2,42.4,78.2,43z M80.6,34.8c-0.3,0-0.7,0-1,0
				v0.3c0.4,0,0.7,0,1,0v0.7c-0.3,0-0.7,0-1,0v0.3c0.4,0,0.7,0,1,0v0.8c-0.3,0-0.7,0-1,0v0.3c0.4,0,0.7,0,1,0v0.7c-0.3,0-0.7,0-1,0
				v0.3c0.4,0,0.7,0,1,0V39c-0.3,0-0.7,0-1,0v0.3c0.4,0,0.7,0,1,0v0.7c-0.3,0-0.7,0-1,0v0.3c0.4,0,0.7,0,1,0v0.7c-0.3,0-0.7,0-1,0
				v0.3c0.4,0,0.7,0,1,0v0.7c-0.3,0-0.7,0-1,0v0.3c0.4,0,0.7,0,1,0v1.2c-0.7-0.1-1.5-0.2-2.1-0.4c0.2-1.2,0.6-2.2,0.6-2.2v-7
				c-0.8-0.9-1.2-1.8-1.3-2.7C78.2,31,78.8,31,79,31c0.1,0.8,0.5,1.8,1.5,2.7c-0.3,0-0.6,0-0.9,0V34c0.4,0,0.7,0,1,0V34.8z
				 M85.4,43.7c-0.3,0-0.5,0-0.8,0v-5.9c0-0.8-0.6-1.4-1.4-1.5v3.2c0.5,0.1,0.9,0.5,0.9,1c0,0.5-0.4,1-0.9,1v2.2H83v-2.2
				c-0.5-0.1-0.9-0.5-0.9-1c0-0.5,0.4-1,0.9-1v-3.2c-0.8,0.1-1.4,0.7-1.4,1.5v5.9c-0.2,0-0.5,0-0.8,0v-5.2c0.3,0,0.6-0.3,0.6-1.2
				c0-0.9,0.7-1.7,1.7-1.7c0.9,0,1.7,0.7,1.7,1.7c0,0.9,0.2,1.2,0.6,1.2V43.7z M83.2,33.8c-0.5,0-0.9,0.4-0.9,0.8
				c0,0.3,0.1,0.5,0.3,0.7c-0.3,0.1-0.6,0.2-0.9,0.5v-0.5v-0.9c0-0.8,0.6-1.4,1.4-1.4c0.8,0,1.4,0.6,1.4,1.4v0.9v0.5
				c-0.2-0.2-0.5-0.4-0.8-0.5c0.2-0.2,0.3-0.4,0.3-0.7C84,34.2,83.6,33.8,83.2,33.8z M85.4,38.1c-0.2,0-0.2-0.3-0.2-0.8
				c0-0.4-0.1-0.9-0.4-1.2v-1.7c0-0.7-0.4-1.3-1-1.5c0.6-0.1,1.2-0.5,1.6-1L85,31.8c-0.4,0.5-1,0.8-1.8,0.8c-0.8,0-1.4-0.4-1.8-0.8
				L81,31.9c0.4,0.5,0.9,0.8,1.5,1c-0.6,0.3-1,0.8-1,1.5v1.7c-0.2,0.3-0.4,0.7-0.4,1.2c0,0.5-0.1,0.8-0.2,0.8v-4.6
				c0,0-1.4-0.9-1.5-2.6c1-0.3,2.5-0.4,3.8-0.4c1.3,0,3,0.1,3.8,0.4c-0.2,1.7-1.5,2.6-1.5,2.6V38.1z M85.7,43.7v-1.2
				c0.2,0,0.6,0,1,0v-0.3c-0.3,0-0.6,0-1,0v-0.7c0.2,0,0.6,0,1,0v-0.3c-0.3,0-0.6,0-1,0v-0.7c0.2,0,0.6,0,1,0v-0.3c-0.3,0-0.6,0-1,0
				v-0.7c0.2,0,0.6,0,1,0V39c-0.3,0-0.6,0-1,0v-0.7c0.2,0,0.6,0,1,0V38c-0.3,0-0.6,0-1,0v-0.7c0.2,0,0.6,0,1,0v-0.3
				c-0.3,0-0.6,0-1,0v-0.8c0.2,0,0.6,0,1,0v-0.3c-0.3,0-0.6,0-1,0v-0.7c0.2,0,0.6,0,1,0v-0.3c-0.3,0-0.6,0-1,0V34c0.2,0,0.6,0,1,0
				v-0.3c-0.3,0-0.6,0-0.9,0c1-0.9,1.4-1.9,1.5-2.7c0.2,0,0.9,0,1.3,0.3c-0.1,0.9-0.5,1.8-1.4,2.7v7c0,0,0.4,1,0.6,2.2
				C87.2,43.5,86.5,43.6,85.7,43.7z M88.1,43c-0.1-0.6-0.2-1.3-0.5-1.8c0.3,0,0.7,0,1.2,0l-0.1-0.3c-0.3,0-0.7,0-1.1,0v-0.6
				c0.2,0,0.6,0,1,0v-0.3c-0.3,0-0.7,0-1,0v-0.6c0.2,0,0.6,0,1,0v-0.3c-0.3,0-0.7,0-1,0v-0.6c0.2,0,0.6,0,1,0V38c-0.3,0-0.7,0-1,0
				v-0.6c0.2,0,0.6,0,1,0v-0.3c-0.3,0-0.7,0-1,0v-0.6c0.2,0,0.6,0,1,0v-0.3c-0.3,0-0.7,0-1,0v-0.6c0.2,0,0.6,0,1,0v-0.3
				c-0.3,0-0.7,0-1,0v-0.6c0.2,0,0.6,0,1,0l0-0.3c-0.3,0-0.6,0-1,0c0.3-0.4,1.1-1.5,1.3-2.8c0.7,0,2.5-0.1,4.7,0.7
				c-0.2,1.2-0.9,2.1-1.2,2.4c-0.3,0-0.6,0-0.8,0l0.1,0.3c0.3,0,0.5,0,0.7,0v0.6c-0.2,0-0.5,0-0.7,0v0.3c0.3,0,0.5,0,0.7,0v0.6
				c-0.2,0-0.5,0-0.7,0v0.3c0.3,0,0.5,0,0.7,0v0.6c-0.2,0-0.5,0-0.7,0v0.3c0.3,0,0.5,0,0.7,0v0.6c-0.2,0-0.5,0-0.7,0v0.3
				c0.3,0,0.5,0,0.7,0V39c-0.2,0-0.5,0-0.7,0v0.3c0.3,0,0.5,0,0.7,0v0.6c-0.2,0-0.5,0-0.7,0v0.3c0.3,0,0.5,0,0.7,0v0.6
				c-0.3,0-0.5,0-0.7,0l-0.1,0.3c0.3,0,0.6,0,0.8,0c0.4,0.4,0.7,0.9,0.9,1.4C91.4,43.3,89,43.1,88.1,43z M93.6,42.7
				C93.6,42.7,93.6,42.7,93.6,42.7c-0.4-1-1-1.6-1-1.6v-6.4c0.5-0.5,0.8-1.2,1-1.7V42.7z M93.6,31.8c-0.4-0.1-2.6-0.8-4.7-0.7
				c0-0.1,0-0.2,0-0.2c0.6,0,2.5-0.1,4.7,0.7V31.8z M90.3,24.4v-0.2l1.7,0.4v0c0-0.7-0.4-1.4-0.9-1.5c-0.4-0.1-0.7,0.2-0.8,0.6v-0.1
				c0-1.8,2-1.6,2.1,0.6v4.6c-0.1-0.3-0.3-0.5-0.3-0.5l0-3.5l-0.7-0.2v0.9l0,0.2v2.4c0.2,0,0.4,0.1,0.6,0.2c0.2,0.1,0.3,0.4,0.4,0.6
				c-0.4-0.1-1.1-0.3-1.9-0.2c0-0.1,0-0.1,0-0.2v-0.3c0.2,0,0.5-0.1,0.8,0v-2.4v-0.2v-0.9L90.3,24.4z M92.4,29.2c0,0.7-0.4,1-0.7,1
				c0.1-0.1,0.3-0.6,0.3-1.2C92.1,29,92.2,29,92.4,29.2C92.4,29.1,92.4,29.1,92.4,29.2z M91.8,28.9c0,0.5-0.1,1-0.4,1.2
				c-0.4-0.1-0.8-0.6-1-1.3C90.6,28.8,91.2,28.8,91.8,28.9z M93.6,31.2c0,0.1,0,0.1,0,0.2c-0.4-0.1-2.6-0.8-4.7-0.7
				c0-0.1,0-0.2,0-0.2C89.6,30.4,91.5,30.4,93.6,31.2z M93.6,30.1c-0.1-0.5-0.2-0.7-0.2-0.7v-5.7c0.1-0.1,0.1-0.2,0.2-0.3V30.1z
				 M93,23.4c0,0-0.2-0.1-0.4-0.1l0.1,0.3c0.1,0,0.2,0.1,0.3,0.1v0.6c0,0-0.1-0.1-0.3-0.1v0.2c0.1,0,0.2,0.1,0.3,0.1v0.6
				c0,0-0.1-0.1-0.3-0.1v0.2c0.1,0,0.2,0.1,0.3,0.1v0.6c0,0-0.1-0.1-0.3-0.1V26c0.1,0,0.2,0.1,0.3,0.1v0.6c0,0-0.1-0.1-0.3-0.1v0.2
				c0.1,0,0.2,0.1,0.3,0.1v0.6c0,0-0.1-0.1-0.3-0.1v0.2c0.1,0,0.2,0.1,0.3,0.1v0.6c0,0-0.1,0-0.3-0.1v0.2c0.1,0,0.2,0.1,0.3,0.1v0.6
				c0,0-0.1-0.1-0.3-0.1v0.2c0.1,0,0.2,0.1,0.3,0.1l0,0c0,0,0.3,0.3,0.5,1.5c-0.3-0.1-0.9-0.3-1.8-0.4c0.5-0.1,0.8-0.6,0.8-1.4v-4.8
				c0-2.5-2.5-2.9-2.5-0.7v4.8c0,1,0.5,1.7,1,2c-0.7-0.1-1.4-0.1-2.2-0.1c0-0.4-0.1-0.8-0.2-1.3c0.2,0,0.7-0.1,1.2-0.1l0-0.3
				c-0.3,0-0.8,0-1.3,0.1v-0.5c0.1,0,0.7-0.1,1.3-0.1v-0.2c-0.3,0-0.8,0-1.3,0.1v-0.5c0.1,0,0.7-0.1,1.3-0.1V27
				c-0.3,0-0.8,0-1.3,0.1v-0.5c0.1,0,0.6-0.1,1.3-0.1v-0.2c-0.4,0-0.8,0-1.3,0.1v-0.5c0.1,0,0.6-0.1,1.3-0.1v-0.2
				c-0.4,0-0.8,0-1.3,0.1V25c0.1,0,0.6-0.1,1.3-0.1v-0.2c-0.4,0-0.8,0-1.3,0.1v-0.5c0.1,0,0.6-0.1,1.3-0.2v-0.2
				c-0.4,0-0.8,0-1.3,0.1v-0.5c0.1,0,0.6-0.1,1.3-0.2c0-0.1,0-0.2,0.1-0.2c-0.4,0-0.9,0.1-1.3,0.1c0.6-1,0.5-2.3,0.5-2.3
				c0.9-0.3,3.5-0.5,4.5,0.5C93.6,22.2,93.6,22.6,93,23.4z M93.6,20.8c-1.1-0.8-2.9-0.8-4.5-0.5c0.1-0.2,0.1-0.5,0.1-0.7
				c1.3-0.3,3.6-0.1,4.4,0.6L93.6,20.8z M104.7,22.5c0.4,0,1.4,0.2,1.5-0.5c0.1-0.5,1,0.3,1,0.6c0,0.6,0,1.2,0,1.3l-2.5-0.8
				C104.7,23,104.7,22.8,104.7,22.5z M102.7,20.7c0,0.3,0,1,0,1.6c-0.3-0.1-0.5-0.1-0.8-0.2l0-1.5c0,0,0-0.4-0.3-0.7
				C102.3,19.9,102.7,20.4,102.7,20.7z M98.4,20.5c1.2,0.2,1.5-0.8,1.5-0.8c0.6-0.1,1,0,1,0c0.6,0.2,0.6,0.7,0.6,0.7v1.5l-3.1-1
				V20.5z M97,20.9l0.7,0.2c1.6,0.5,3.2,1.1,4.7,1.6c1.1,0.4,2.2,0.8,3.3,1.1c0,0,0.1,0,0.1,0.1l1.6,0.5c0.1,0.1,0.2,0.2,0.2,0.3
				c-1.2-0.4-8.1-2.7-10.6-3.6V20.9z M97,21.4l1.1,0.3l9.7,3.3c0,0.1,0,0.2,0.1,0.3L97,21.8V21.4z M96.7,25.1c0-1,1.5-0.6,1.5,0.4
				v4.1c-0.1-0.1-0.2-0.2-0.4-0.3l0-3c0-0.8-0.5-1.1-0.8-1.3C96.9,25.2,96.8,25.2,96.7,25.1L96.7,25.1z M98.5,37.2l1.1,0
				c0.3,0.5,0.4,1.1-0.4,1.5l-0.9,0C98.4,38.7,99.2,38.2,98.5,37.2z M100.1,26c-0.1,0-0.2,0-0.2,0v0c0-1.1,1.5-0.5,1.5,0.5v3.9
				c-0.1-0.1-0.3-0.2-0.6-0.4l0-2.8C100.8,26.7,100.5,26.1,100.1,26z M100.8,30.1c0.1,0.1,0.3,0.2,0.5,0.4c-0.4-0.2-1-0.2-1.4-0.1
				V30C100.2,30,100.5,30.1,100.8,30.1z M101.3,30.7v1.6c-0.4-0.2-1.1-0.3-1.5-0.2v-1.6C100,30.4,101.2,30.5,101.3,30.7z
				 M101.3,32.5V33c-0.4-0.5-1.1-0.7-1.5-0.4v-0.2C100,32.2,101.2,32.2,101.3,32.5z M100.1,33.2c-0.1,0-0.2,0-0.2,0
				c0.1-1,1.5-0.5,1.5,0.5v3.4l-0.6,0l0-2.8C100.8,33.9,100.5,33.4,100.1,33.2z M99.9,37.3l1.5,0c0.3,0.5,0.4,1.1-0.3,1.5l-1.4,0
				C99.8,38.7,100.5,38.2,99.9,37.3z M101.7,37.3l0.9,0c0.3,0.5,0.4,1.1-0.3,1.5l-0.8,0C101.6,38.7,102.2,38.2,101.7,37.3z
				 M103,26.7c-0.1,0-0.1,0-0.2,0c0-1,1.4-0.4,1.4,0.5v3.6c-0.1-0.1-0.3-0.3-0.6-0.5l0-2.6C103.6,27.3,103.3,26.9,103,26.7z
				 M103.6,30.6L103.6,30.6c0.1,0.1,0.3,0.2,0.5,0.3c-0.4-0.1-0.9-0.2-1.3-0.1v-0.4C103.1,30.5,103.3,30.6,103.6,30.6z M104.2,31.2
				v1.5c-0.4-0.2-1-0.2-1.4-0.2v-1.4C102.9,30.9,104,31,104.2,31.2z M104.2,32.9v0.5c-0.4-0.5-1-0.7-1.4-0.4v-0.3
				C102.9,32.6,104,32.6,104.2,32.9z M103,33.6c-0.1,0-0.1,0-0.2,0c0.1-0.9,1.4-0.4,1.4,0.5v3.2l-0.6,0l0-2.6
				C103.6,34.2,103.3,33.7,103,33.6z M102.8,37.4l1.4,0c0.3,0.4,0.4,1.1-0.3,1.5l-1.3,0C102.8,38.7,103.4,38.2,102.8,37.4z
				 M104.5,37.4l0.8,0c0.3,0.4,0.4,1.1-0.3,1.5l-0.7,0C104.5,38.7,105,38.2,104.5,37.4z M106.5,38.9l-1.1,0c0.2-0.2,0.7-0.7,0.2-1.5
				l0.6,0h0l0,0l0.6,0C107,37.9,107.1,38.5,106.5,38.9z M107,39.1c0.2,0,0.3,0.1,0.3,0.2l-11.1-0.1V39L107,39.1z M105.6,33.9
				c-0.1,0-0.1,0-0.2,0c0.1-0.9,1.4-0.4,1.4,0.5v3l-0.7,0l0-2.4C106.1,34.5,105.9,34,105.6,33.9z M106.8,31.4
				c-0.1-0.1-0.3-0.3-0.7-0.5l0-2.5c0-0.5-0.2-0.9-0.6-1c-0.1,0-0.1,0-0.1,0c0.1-0.8,1.4-0.3,1.4,0.6V31.4z M106.1,31.1
				c0.1,0.1,0.3,0.2,0.5,0.4c-0.4-0.1-0.9-0.2-1.2-0.1V31C105.7,31,105.9,31.1,106.1,31.1z M106.8,31.8V33c-0.4-0.2-1-0.2-1.4-0.2
				v-1.2C105.4,31.4,106.8,31.5,106.8,31.8z M106.8,33.2v0.4c-0.4-0.5-1-0.6-1.4-0.3v-0.3C105.4,32.9,106.8,32.9,106.8,33.2z
				 M97.8,38.8l-1.4,0c0,0,1-0.6,0.3-1.6l1.5,0C98.5,37.7,98.7,38.4,97.8,38.8z M96.9,32.9c-0.1,0-0.1,0-0.2,0
				c0.1-1,1.5-0.5,1.5,0.4v3.7l-0.4,0l0-2.9C97.8,33.3,97.3,33.1,96.9,32.9z M96.7,29.4c0.3,0,0.7,0.1,0.9,0.1
				c0.1,0.1,0.3,0.2,0.5,0.4c-0.4-0.2-1.1-0.2-1.4-0.2V29.4z M96.7,30c0.2-0.1,1.3-0.1,1.5,0.1v1.7c-0.3-0.2-1.1-0.2-1.5-0.2V30z
				 M96.7,31.9c0.2-0.1,1.3-0.1,1.5,0.1v0.5c-0.4-0.5-1.1-0.6-1.5-0.3V31.9z M96.4,25.1V30c0,0,0,0,0,0h0v1.9c0,0,0,0,0,0h0V37h0v0
				v0.1c0.2,0.5,0.3,1.2-0.3,1.6V25.4c0-0.4,0-0.7,0.4-1.2c0.1,0,0.1,0,0.2,0C96.6,24.4,96.4,24.6,96.4,25.1z M95.7,17.9
				c0.2,0.5,0.1,0.9,0.3,1.4c0.1,0.3,0.4,0.5,0.7,0.7v3.5c-0.1,0.5-1.2,0.2-1.2-0.2c0-0.2,0-0.7,0-1.2v-3.4c0-0.9-0.5-1.1-1.2-1.4
				C94.7,17.1,95.4,17.3,95.7,17.9z M94.5,25.5v17.4c-0.1,0-0.4,0-0.6-0.2V23c0.2-0.5,0.4-1.1,0.4-1.7c0-0.6,0-3.1,0-3.5
				c0.2,0,0.7,0.3,0.7,1.2v4.6C94.6,24.2,94.5,24.7,94.5,25.5z M95.8,25.4v16.2c0,0.7-0.1,1.3-1.1,1.3V25.5c0-0.8,0.2-1.3,0.5-1.6
				c0.2,0.2,0.6,0.3,0.8,0.3C95.9,24.6,95.8,25,95.8,25.4z M96.2,39.5l11.2,0c0,0.1-0.1,0.2-0.2,0.3l-11,0V39.5z M98.9,42.2
				c-0.1,0-0.2,0-0.3,0v-1.2c0-0.6-0.9-0.9-1.2-0.5c0.1,0,0.1,0,0.2,0c0.4,0.1,0.8,0.6,0.8,1.2l0,0.5c-0.5,0-0.9,0-1.3,0.1v-1.5h0
				c0,0,0,0,0,0v-0.1c0,0,0,0,0,0c0.1-0.9,1.8-0.6,1.8,0.3V42.2z M101.9,42.1c-0.1,0-0.1,0-0.2,0v-1.1c0-0.6-0.9-0.9-1.1-0.4
				c0.1,0,0.2,0,0.2,0c0.4,0.1,0.7,0.6,0.7,1.1v0.4c-0.4,0-0.8,0-1.2,0v-1.4c0,0,0,0,0,0c0-1,1.6-0.6,1.6,0.3V42.1z M104.4,42
				c-0.1,0-0.1,0-0.2,0v-1c0-0.6-0.8-0.9-1-0.5c0.1,0,0.1,0,0.2,0c0.3,0.1,0.6,0.6,0.6,1V42c-0.3,0-0.7,0-1.1,0v-1.4c0,0,0,0,0,0
				c0.1-0.9,1.4-0.6,1.4,0.3V42z M106.6,41.9c-0.1,0-0.1,0-0.2,0V41c0-0.6-0.7-0.8-0.9-0.4c0.1,0,0.1,0,0.2,0c0.3,0.1,0.5,0.5,0.5,1
				v0.4c-0.3,0-0.6,0-1,0v-1.3c0,0,0,0,0,0c0.1-0.8,1.2-0.6,1.2,0.3V41.9z M107.5,41.9c-0.1,0-0.2,0-0.3,0v-1.7
				c0.1-0.1,0.2-0.1,0.3-0.2V41.9z M107.5,28v11.1c-0.1-0.1-0.3-0.2-0.5-0.2h-0.1c0.2-0.2,0.6-0.7,0.2-1.4h0v0v-0.2v-9.4
				c0-1.2-1.8-1.8-1.8-0.5h0v9.9l-0.7,0v-10c0-1.3-1.9-1.9-1.9-0.5v10.5l-0.9,0V26.5l0,0c0-1.3-2-2-2-0.6h0v11.2l-1.1,0V25.6
				c0-1.1-1.1-1.5-1.6-1.5c0.3-0.1,0.2-0.4,0.2-0.7c0-0.2,0-0.6,0-0.6s10.3,3.3,10.7,3.5C107.8,27.3,107.5,27,107.5,28z M107.8,25.9
				L97,22.5v-0.3l10.8,3.5C107.8,25.7,107.8,25.8,107.8,25.9z M109.3,26.9c0,0.7-0.6,0.8-0.6,1.5l0,12.7c0,0.6-0.4,0.7-0.9,0.7V28.1
				c0-0.8,0.6-0.6,0.6-1.5c0-0.4,0-1,0-1.3c0-0.5-0.2-0.7-0.7-1.1c-0.3-0.3-0.2-0.9-0.2-1.5c0-0.2-0.2-0.5-0.5-0.6
				c0.5,0.1,0.9,0.4,0.9,0.7c0,0.4,0,0.6,0,0.8c0,0.3,0.3,0.7,0.6,0.9c0.4,0.3,0.7,0.6,0.7,1C109.3,26,109.3,26.3,109.3,26.9z"/>
		</g>
	</g>
	<g>
		<path class="st0" d="M60.6,62.3c-0.5-0.1-1-0.2-1.5-0.1l0,0c-0.4,0-0.5,0.1-0.6,0l0,0c-0.1,0-0.2-0.1-0.2-0.4l0,0
			c0-0.2,0.1-0.5,0.1-0.7l0,0c0.1-0.7,0.1-1.4,1.9-1l0,0c0.5,0.1,1,0.3,1.6,0.7l0,0c0.4,0.3,0.6,0.7,0.9,0.8l0,0
			c0.3,0.1,0.4-0.3,0.5-0.6l0,0c0-0.4,0-0.7,0.1-1.1l0,0c0-0.2,0-0.4,0.1-0.5l0,0c0.1-0.2,0.1-0.4,0.1-0.6l0,0c0-0.2,0-0.4-0.3-0.5
			l0,0c-0.3,0-0.1,0-1.7-0.3l0,0c-1.6-0.1-2.1,0.2-2.1,0.2l0,0c-0.6-0.5-1.4-0.9-2.2-1.1l0,0c-0.8-0.2-1.2-0.3-1.5-0.4l0,0
			c-0.3-0.1-0.4,0.1-0.4,0.2l0,0c0,0.2,0,0.4,0.1,1.3l0,0c0,0.9,0,1.5-0.1,2.7l0,0c-0.1,1.4-0.3,2.7-0.5,4l0,0
			c-0.2,1-0.5,2.4-0.8,3.2l0,0c-0.4,0.8,0,0.8,0.2,0.9l0,0c0.2,0,0.4,0.1,0.6,0.1l0,0c1.9,0.3,2.5-0.1,2.5-0.1l0,0
			c0.7,0.6,1.4,1,2.3,1.2l0,0c2.6,0.4,3.1-1.3,3.3-2.3l0,0c0-0.5,0.2-1,0.2-1.5l0,0C63.3,63.3,61.8,62.6,60.6,62.3z M59.7,67.2
			c0,0.3-0.2,0.9-1.1,0.7l0,0c-0.2,0-1-0.2-0.8-1.3l0,0c0.1-0.4,0.1-0.9,0.2-1.3l0,0c0-0.5,0.2-1.3,1.1-1.1l0,0
			c0.9,0.2,0.9,1,0.9,1.3l0,0C59.8,66.1,59.7,66.7,59.7,67.2z"/>
		<path class="st0" d="M90.1,65.1c0.8-0.7,0.8-1.7,0.8-2.2l0,0c0-2.9-1.8-3.3-2.6-3.3l0,0c-1.7-0.1-2.2,0.6-2.2,0.6l0,0
			c-0.7-0.4-1.5-0.5-2.3-0.6l0,0c-0.1,0-0.1,0-0.2,0l0,0c-0.7,0-0.7,0.2-0.7,0.5l0,0c0.1,1.5,0.3,0.3,0.3,3.1l0,0c0,1.8,0,3.5,0,5.3
			l0,0c0,1.9-0.2,2.3-0.4,2.8l0,0c-0.1,0.5-0.1,0.7,0.5,0.7l0,0c0.2,0,0.6,0,0.9,0l0,0c0.2,0,0.3,0,0.5,0l0,0
			c1.5-0.2,1.8-0.6,1.8-0.6l0,0c0.6,0.4,1.3,0.7,2.2,0.6l0,0c1.4-0.2,2.5-0.9,2.6-2.7l0,0c0-1.8-0.9-2.7-1.4-3.3l0,0
			c-0.2-0.2-0.3-0.3-0.3-0.4l0,0C89.6,65.5,89.9,65.3,90.1,65.1z M86.4,62.7c0-0.2,0.1-0.6,0.8-0.6l0,0c0.8,0,1,0.5,1,0.9l0,0
			c0,0.9-0.5,1-0.8,1l0,0c-0.5,0-0.9-0.2-0.9-0.7l0,0C86.4,63.1,86.4,62.9,86.4,62.7z M87.2,70.2c-0.5,0-0.8,0-0.8-1l0,0
			c0-0.6,0-1.2,0-1.9l0,0c0-0.3,0-0.8,0.3-0.8l0,0c0.3,0,0.9,0.3,1.3,1.7l0,0c0.1,0.3,0.2,0.6,0.2,0.9l0,0
			C88.2,70.2,87.6,70.2,87.2,70.2z"/>
		<path class="st0" d="M74.3,68.5c0-1.9,0-3.8,0-5.8l0,0c0-2.1-0.4-2.2-0.4-2.9l0,0c0-0.4,0.5-0.4,0.7-0.4l0,0c0.2,0,0.5,0,0.7,0
			l0,0c0.8,0.1,1.7,0.4,2.4,0.7l0,0c0,0,0.4-0.4,2-0.6l0,0c0.2,0,0.3,0,0.5,0l0,0c0.3,0,0.5,0,0.7,0l0,0c0.3,0,0.5,0.1,0.5,0.5l0,0
			c-0.1,0.5-0.1,0.7-0.1,1.5l0,0c0,0.2,0,0.4,0.1,0.7l0,0c0,0.2,0.1,0.5,0.1,0.7l0,0c0,0.4-0.2,0.5-0.6,0.5l0,0
			c-0.4,0-0.6-0.3-0.9-0.5l0,0c-0.5-0.3-0.8-0.5-1.4-0.5l0,0c-0.9,0-1.2,0.4-1.3,0.8l0,0c0,1.6,0.6,1.5,1.4,1.5l0,0
			c0.5,0,0.6-0.1,1.1,0l0,0c0.7,0,1.4,0.1,1.4,0.8l0,0c-0.1,0.3-0.3,0.7-1.3,0.7l0,0c-0.6,0-1.1,0-1.8-0.1l0,0
			c-0.7,0-0.7,0.4-0.7,0.7l0,0c0,0.7,0,1.3,0,2l0,0c0,0.9,0.5,0.9,0.9,0.9l0,0c0.6,0,1.2,0.1,2-0.3l0,0c0.4-0.2,0.6-0.4,1-0.4l0,0
			c0.4,0,0.4,0.3,0.4,0.4l0,0c0,0.4-0.1,0.2-0.1,1.1l0,0c-0.1,0.5,0,0.7,0,0.9l0,0c0,0.6-0.5,0.6-1,0.5l0,0c-0.3,0-0.5,0-0.8,0l0,0
			c-0.8-0.1-1.6-0.3-2.3-0.7l0,0c0,0-0.4,0.4-1.9,0.6l0,0c-0.1,0-0.2,0-0.3,0l0,0c-0.3,0-0.6,0-0.9,0l0,0c-0.2,0-0.5-0.1-0.6-0.3
			l0,0C73.8,70.4,74.3,71.4,74.3,68.5z"/>
		<path class="st0" d="M67.9,69.2c1,0.1,1.2,0.7,1.2,1l0,0c-0.1,0.5-0.4,0.5-0.5,0.8l0,0c0,0.1,0,0.4,0.4,0.4l0,0c0.3,0,0.4,0,0.7,0
			l0,0c0,0,0.1,0,0.1,0l0,0c0.7-0.1,0.9-0.2,0.9-0.2l0,0c0.4,0.2,0.8,0.4,1.2,0.5l0,0c0.1,0,0.2,0,0.2,0l0,0c0.5,0,0.5-0.2,0.5-0.3
			l0,0c0-0.3-0.2-0.5-0.5-1.6l0,0c-0.4-1.7-0.3-3.3-0.4-5.5l0,0c-0.3-5.2,0.3-5.2-0.7-5.4l0,0c-0.1,0-0.2,0-0.3,0l0,0
			c-1.6,0-2,0.4-2,0.4l0,0c-0.6-0.4-1.3-0.6-1.9-0.8l0,0c-0.2,0-0.3-0.1-0.5-0.1l0,0c-0.8-0.1-0.7,0.3-0.9,1.9l0,0
			c-0.3,2-0.8,4.1-1.6,7.6l0,0c-0.5,2.3-0.6,1.8-0.7,2.4l0,0c0,0.3,0.2,0.3,0.3,0.4l0,0c0.1,0,0.2,0,0.3,0l0,0c1,0,1.2-0.2,1.2-0.2
			l0,0c0.4,0.3,0.8,0.4,1.3,0.6l0,0c0,0,0.1,0,0.1,0l0,0c0.5,0.1,0.5-0.2,0.5-0.3l0,0c0-0.4-0.4-0.4-0.4-0.9l0,0
			C66.6,69.7,66.7,69.1,67.9,69.2z M68.4,62.5c0.4,0.1,0.6,1.3,0.5,3.2l0,0c0,0.3-0.1,0.7-0.1,1l0,0c0,0.5-0.2,0.7-0.8,0.6l0,0
			c-0.6-0.1-0.8-0.2-0.7-1.2l0,0C67.4,65.4,67.8,62.5,68.4,62.5z"/>
		<path class="st0" d="M41.1,57.3c-0.5-0.2-1-0.3-1.6-0.3l0,0c-0.4,0-0.5,0-0.6,0l0,0c-0.1,0-0.3-0.2-0.2-0.4l0,0
			c0-0.2,0.1-0.4,0.1-0.7l0,0c0.1-0.7,0.1-1.4,1.9-0.8l0,0c0.4,0.2,1.1,0.4,1.6,0.9l0,0c0.5,0.4,0.6,0.7,0.9,0.9l0,0
			c0.3,0.1,0.4-0.3,0.5-0.6l0,0c0.1-0.4,0.1-0.7,0.1-1.1l0,0c0-0.2,0-0.4,0.1-0.5l0,0c0-0.2,0.1-0.4,0.1-0.6l0,0
			c0-0.2,0-0.4-0.3-0.5l0,0c-0.3-0.1-0.2,0-1.8-0.5l0,0c-1.7-0.3-2.2-0.1-2.2-0.1l0,0c-0.6-0.6-1.5-1-2.2-1.4l0,0
			c-0.9-0.3-1.2-0.4-1.6-0.5l0,0c-0.4-0.1-0.4,0.1-0.4,0.2l0,0c0,0.2,0,0.4,0,1.3l0,0c0,0.9,0,1.5-0.2,2.6l0,0
			c-0.2,1.3-0.3,2.6-0.5,4l0,0c-0.1,1-0.5,2.3-0.9,3.1l0,0c-0.4,0.7,0,0.8,0.2,0.9l0,0c0.2,0.1,0.4,0.1,0.6,0.2l0,0
			c2,0.5,2.5,0.1,2.5,0.1l0,0c0.7,0.6,1.4,1.1,2.4,1.5l0,0c2.6,0.7,3.2-1,3.4-1.9l0,0c0.1-0.5,0.1-1,0.2-1.5l0,0
			C43.9,58.6,42.3,57.8,41.1,57.3z M40,62.1c0,0.3-0.2,0.9-1.2,0.6l0,0c-0.2-0.1-1-0.3-0.9-1.4l0,0c0.1-0.4,0.1-0.8,0.2-1.3l0,0
			c0.1-0.5,0.2-1.3,1.2-1l0,0c1,0.3,0.9,1.1,0.9,1.4l0,0C40.2,61,40.1,61.6,40,62.1z"/>
		<path class="st0" d="M48.2,65.1c1.1,0.3,1.2,0.9,1.1,1.2l0,0c-0.1,0.5-0.5,0.4-0.5,0.7l0,0c0,0.1-0.1,0.4,0.3,0.5l0,0
			c0.2,0.1,0.5,0.1,0.7,0.2l0,0c0,0,0.1,0,0.1,0l0,0c0.7,0.1,0.9-0.1,0.9-0.1l0,0c0.4,0.3,0.8,0.6,1.2,0.8l0,0
			c0.1,0,0.2,0.1,0.2,0.1l0,0c0.4,0.1,0.5-0.1,0.5-0.2l0,0c0-0.3-0.2-0.5-0.3-1.7l0,0c-0.2-1.7,0.1-3.3,0.2-5.4l0,0
			c0.2-5.2,0.8-5.1-0.2-5.4l0,0c-0.1,0-0.2-0.1-0.3-0.1l0,0c-1.6-0.3-2.1,0-2.1,0l0,0c-0.6-0.5-1.2-0.9-1.9-1.2l0,0
			c-0.2-0.1-0.3-0.1-0.5-0.2l0,0c-0.8-0.2-0.7,0.1-1.1,1.7l0,0c-0.4,2-1.2,3.8-2.3,7.2l0,0c-0.8,2.2-0.8,1.7-0.9,2.2l0,0
			c-0.1,0.3,0.1,0.4,0.3,0.4l0,0c0.1,0,0.2,0.1,0.3,0.1l0,0c1,0.2,1.3,0,1.3,0l0,0c0.4,0.3,0.8,0.6,1.2,0.8l0,0c0,0,0.1,0,0.1,0l0,0
			c0.5,0.1,0.5-0.1,0.5-0.2l0,0c0.1-0.4-0.4-0.4-0.3-0.9l0,0C46.8,65.4,47,64.7,48.2,65.1z M49.4,58.6c0.4,0.2,0.5,1.4,0.2,3.2l0,0
			c0,0.3-0.1,0.7-0.2,1l0,0c-0.1,0.5-0.3,0.6-0.9,0.5l0,0c-0.6-0.2-0.7-0.3-0.6-1.3l0,0C48,61.3,48.8,58.5,49.4,58.6z"/>
		<path class="st0" d="M95.9,71.6c-2.2,0.1-3.3-2.3-3.5-4.4l0,0c-0.1-0.9-0.1-1.8-0.2-2.6l0,0c-0.1-1.9,0.1-4.8,2.4-5.3l0,0
			c1.3-0.2,1.4,0.1,2.1,0.4l0,0c0,0,0.3-0.4,1.7-0.8l0,0c0.4,0.1,0.5,0.2,0.5,0.4l0,0c0.1,0.2-0.1,0.3,0,1.3l0,0
			c0,0.9,0.1,0.7,0.2,1.2l0,0c0,0.6-0.4,0.7-0.5,0.7l0,0c-0.4,0-0.7-0.1-0.9-0.2l0,0c-0.3-0.2-0.6-0.3-1.2-0.2l0,0
			c-1.1,0.1-1.4,0.6-1.2,2.5l0,0c0,0.6,0.1,1.1,0.1,1.7l0,0c0.2,1.4,0.2,3,2,2.8l0,0c0.6-0.1,0.9-0.3,1.2-0.5l0,0
			c0.2-0.1,0.3-0.3,0.5-0.3l0,0c0.3,0,0.3,0.2,0.4,0.3l0,0c0,0.3,0,0.6,0,0.9l0,0c0.1,0.3,0.1,0.6,0.1,0.9l0,0c0.1,0.3,0,0.7-0.8,1
			l0,0c-0.5,0-1-0.1-1.4-0.3l0,0C97.4,71,96.7,71.5,95.9,71.6z"/>
		<path class="st0" d="M120.5,65.9c0,0-0.1,0.2-0.6,0.5l0,0c-0.5,0.2-0.6,0.2-1,0.4l0,0c-0.2,0.1-0.4,0.1-0.5-0.2l0,0
			c0-0.2,0.1-0.4,0.2-0.9l0,0c0-0.8-0.1-1.6-0.2-2.1l0,0c-0.1-0.7-0.3-1.3-0.4-2l0,0c-0.1-0.1-0.1-0.3,0-0.4l0,0
			c-0.1-0.1,0-0.2,0-0.3l0,0c0-0.1,0-0.1-0.1-0.1l0,0c-0.2,0.1-0.4,0.3-1.2,2l0,0c-0.4,0.7-0.7,1.5-0.6,2.3l0,0
			c0.1,0.3,0.3,0.8,0.5,1.1l0,0c0.3,0.4,0.6,0.5,0.6,0.7l0,0c0.1,0.1-0.1,0.3-0.4,0.5l0,0c-0.5,0.1-0.4,0.1-0.8,0.2l0,0
			c-0.3,0-0.6,0-0.9,0l0,0c0,0-0.1,0.2-0.7,0.5l0,0c-0.3,0.1-0.6,0.2-0.9,0.3l0,0c-0.1,0-0.4,0.2-0.5-0.2l0,0
			c-0.1-0.2,0.1-0.4,0.1-1l0,0c0-0.4,0-1.2-0.3-2.6l0,0c-0.4-1.8-0.8-3.5-1.2-5.4l0,0c-0.2-0.7-0.3-1.3-0.7-1.9l0,0
			c-0.3-0.2-0.3-0.5-0.4-0.7l0,0c0-0.2,0.3-0.3,0.4-0.3l0,0c0.4-0.1,0.3-0.1,0.8-0.2l0,0c0.3,0,0.8,0,1.2,0l0,0c0,0,0.2-0.3,0.9-0.6
			l0,0c0.2-0.1,0.4-0.2,0.6-0.2l0,0c0.3-0.1,0.4,0,0.5,0.1l0,0c0.1,0.2-0.2,0.6-0.2,1l0,0c-0.1,0.5,0,1.1,0.1,1.7l0,0
			c0.1,0.5,0.2,1,0.4,1.6l0,0c0.1,0.4,0.8-0.9,1-1.4l0,0c0.7-1.2,1-1.7,0.9-2.3l0,0c-0.1-0.3-0.2-0.4-0.4-0.6l0,0
			c-0.2-0.2-0.4-0.2-0.4-0.4l0,0c0-0.2,0.2-0.3,0.4-0.3l0,0c0.1,0,0.2-0.1,0.4-0.1l0,0c0.5,0,1-0.1,1.5,0l0,0c0,0,0.2-0.3,1.2-0.8
			l0,0c0.2-0.1,0.4-0.1,0.5-0.2l0,0c0.1,0,0.3-0.1,0.4,0.1l0,0c0,0.2,0,0.4-0.1,1.1l0,0c-0.1,0.6,0,1.4,0.2,2.2l0,0
			c0.3,1.6,0.7,3.1,1,4.8l0,0c0.2,0.9,0.4,1.8,0.7,2.4l0,0c0.3,0.4,0.5,0.7,0.5,1l0,0c0,0.1,0,0.2-0.3,0.3l0,0
			c-0.3,0.1-0.5,0.1-0.7,0.2l0,0C121.1,66,120.8,66,120.5,65.9z"/>
		<path class="st0" d="M110.5,67.8c0.5,0.6,0.6,0.8,0.7,1l0,0c0,0.1,0.1,0.4-0.2,0.4l0,0c-0.1,0-0.2,0-0.4,0l0,0
			c-0.4,0-0.8,0-1.2-0.2l0,0c0,0-0.2,0.3-1.2,0.6l0,0c-0.1,0-0.1,0-0.2,0l0,0c-0.9,0.1-0.8-0.4-1.7-3l0,0c-0.6-1.8-1-3.5-1.5-3.5
			l0,0c-0.5,0.1-0.4,1.1-0.3,1.6l0,0c0.1,0.6,0.1,1.1,0.2,1.7l0,0c0,0.5,0.3,1.5,0.6,2.2l0,0c0.4,0.7,0.6,0.8,0.7,1l0,0
			c0,0.1,0,0.3-0.4,0.3l0,0c0,0-0.1,0-0.1,0l0,0c-0.5,0-0.9,0-1.4-0.2l0,0c0,0-0.2,0.2-0.8,0.5l0,0c-0.1,0-0.1,0-0.2,0l0,0
			c-0.3,0.1-0.5,0.2-0.8,0.2l0,0c-0.1,0-0.3,0-0.4-0.4l0,0c-0.1-0.5,0-0.9-0.1-2.1l0,0c-0.3-2.3-0.6-4.5-0.9-6.9l0,0
			c-0.2-1.9-0.6-1.4-0.7-2.5l0,0c-0.1-0.4,0.3-0.4,0.5-0.5l0,0c0.1,0,0.3,0,0.4-0.1l0,0c0,0,0.1,0,0.1,0l0,0c0.4,0,0.8,0.1,1.1,0.2
			l0,0c0,0,0.2-0.2,0.9-0.5l0,0c0.1,0,0.1,0,0.2,0l0,0c0.2-0.1,0.3-0.1,0.5-0.1l0,0c0.1,0,0.4,0,0.4,0.2l0,0c0,0.7-0.5,0.7-0.4,1.6
			l0,0c0.1,0.6,0.5,0.8,1.2,0.7l0,0c0.8-0.2,0.9-0.7,0.9-1.1l0,0c0-0.2-0.2-0.5-0.7-1l0,0c-0.3-0.3-0.3-0.7,0.3-0.8l0,0
			c0.1,0,0.3,0,0.4-0.1l0,0c0.3,0,0.8,0.1,1.1,0.2l0,0c0,0,0.2-0.3,1-0.5l0,0c0.1,0,0.2,0,0.3-0.1l0,0c0.3-0.1,0.7,0,0.8,0.8l0,0
			c0.1,1.1-0.4,1.7-1.1,2.8l0,0c-0.3,0.4-0.4,0.6-0.4,1.1l0,0c0.1,0.7,0.8,2.5,1.1,3.1l0,0C109.2,66,109.9,66.9,110.5,67.8z"/>
		<path class="st0" d="M128.9,49.7c0.1,0.1,0.1,0.1,0.1,0.2l0,0c0.1,0.6-1.1,1.3-2.7,1.8l0,0c-1.6,0.4-2.8,0.3-3-0.2l0,0
			c0-0.1,0-0.2,0.1-0.3l0,0c0.9-0.2,2-0.2,2.9-0.1l0,0C126.4,51.1,126.8,50.5,128.9,49.7z M131.5,62.9c0,0-0.2,0.2-0.7,0.5l0,0
			c-0.5,0.2-0.6,0.2-1,0.3l0,0c-0.2,0.1-0.4,0.1-0.5-0.2l0,0c0-0.2,0.1-0.4,0.2-0.9l0,0c0.1-0.8,0-1.6-0.1-2.1l0,0
			c-0.1-0.7-0.2-1.4-0.3-2l0,0c0-0.1,0-0.3,0-0.4l0,0c-0.1-0.1,0-0.2,0-0.3l0,0c0-0.1,0-0.1-0.1-0.1l0,0c-0.1,0.1-0.4,0.4-1.3,2l0,0
			c-0.3,0.7-0.8,1.5-0.7,2.3l0,0c0.1,0.3,0.2,0.9,0.5,1.2l0,0c0.3,0.4,0.5,0.5,0.6,0.7l0,0c0,0.2,0,0.3-0.4,0.5l0,0
			c-0.4,0.1-0.4,0.1-0.8,0.2l0,0c-0.3,0-0.6,0-0.9,0l0,0c0,0-0.1,0.2-0.7,0.5l0,0c-0.3,0.1-0.6,0.2-0.9,0.3l0,0
			c-0.1,0-0.4,0.2-0.5-0.2l0,0c0-0.2,0.1-0.4,0.1-1l0,0c0-0.5,0-1.2-0.2-2.6l0,0c-0.3-1.8-0.6-3.6-1-5.4l0,0
			c-0.1-0.7-0.2-1.3-0.7-1.9l0,0c-0.2-0.2-0.4-0.5-0.4-0.7l0,0c0-0.2,0.3-0.3,0.4-0.3l0,0c0.4-0.1,0.4-0.1,0.8-0.2l0,0
			c0.4,0,0.8,0,1.2,0l0,0c0,0,0.2-0.3,1-0.6l0,0c0.2-0.1,0.4-0.2,0.7-0.2l0,0c0.4-0.1,0.5,0,0.5,0.1l0,0c0,0.3-0.2,0.5-0.3,1l0,0
			c-0.2,0.5-0.1,1.2,0,1.7l0,0c0.1,0.5,0.2,1.1,0.3,1.6l0,0c0.1,0.5,0.9-0.9,1.1-1.4l0,0c0.7-1.2,1.1-1.6,1-2.3l0,0
			c0-0.3-0.1-0.4-0.3-0.6l0,0c-0.2-0.2-0.3-0.3-0.4-0.4l0,0c0-0.2,0.2-0.3,0.4-0.3l0,0c0.1,0,0.2-0.1,0.4-0.1l0,0c0.5,0,1-0.1,1.5,0
			l0,0c0,0,0.3-0.3,1.3-0.7l0,0c0.2,0,0.4-0.1,0.6-0.2l0,0c0.1,0,0.3-0.1,0.4,0.1l0,0c0,0.2,0,0.4-0.1,1.1l0,0
			c-0.1,0.6,0,1.4,0.1,2.2l0,0c0.2,1.6,0.5,3.2,0.7,4.8l0,0c0.1,0.9,0.3,1.8,0.6,2.5l0,0c0.3,0.4,0.4,0.7,0.5,1l0,0
			c0,0.1,0,0.3-0.4,0.3l0,0c-0.3,0.1-0.5,0.1-0.7,0.2l0,0C132.2,63,131.8,63,131.5,62.9z"/>
	</g>
	<path class="st0" d="M141,70.9c0,0-2.1,1.6-5.3,1c-2.7-0.6-6.1-1.8-8.9-0.1c0,0,3-0.8,6.2,0.3C135.6,73,139.1,73.5,141,70.9z"/>
	<path class="st1" d="M67.8,49.9c0.3,0,0.8,0.1,1.3,0.1c0.5,0,1.1-0.1,1.4-0.1c-0.1,0.2-0.2,0.5-0.3,0.7c-0.6,0-0.8,0-1.2,0
		c-0.2,0-0.7,0-1.6,0C67.6,50.4,67.7,50.1,67.8,49.9z"/>
	<path class="st1" d="M72.6,48.3c0.9-0.3,2.1-0.9,2.7-1.3h0.1c-0.2,1.1-0.2,3.7-0.2,4.2c0,0.9,0,1.2,0.1,1.4
		c0.2,0.4,0.5,0.4,0.8,0.4h0.2v0.3h-0.2c-0.4,0-0.5,0-0.8-0.1c-0.2,0-0.4-0.1-0.7-0.1c-0.2,0-0.5,0-0.7,0.1c-0.2,0-0.4,0.1-0.6,0.1
		h-0.4V53h0.4c0.3,0,0.5,0,0.7-0.4c0.1-0.2,0.1-0.5,0.1-2.3c0-1.2,0-0.8,0-1.5c0-0.1,0-0.4-0.2-0.4c-0.1,0-0.2,0-0.2,0
		c-0.4,0.1-0.5,0.2-1,0.4V48.3z"/>
	<path class="st1" d="M80,49.7c-0.9-0.5-1.3-1-1.3-1.4c0-0.5,0.3-0.9,1-0.9c0.7,0,1.1,0.5,1.1,1C80.9,48.9,80.5,49.4,80,49.7z
		 M79.1,50.1c-0.6,0.2-1.6,0.7-1.6,1.7c0,0.9,0.8,1.6,2.2,1.6c1.6,0,2.4-0.9,2.4-1.8c0-0.9-0.8-1.4-1.6-1.8c0.7-0.3,1.4-0.7,1.4-1.5
		c0-0.6-0.5-1.3-1.9-1.3c-1.4,0-2.2,0.6-2.2,1.4C77.6,49.3,78.3,49.8,79.1,50.1z M79.5,50.3c1,0.5,1.3,1.2,1.3,1.8
		c0,0.5-0.5,1.1-1.2,1.1c-0.6,0-1.4-0.4-1.4-1.2C78.2,50.9,79.3,50.4,79.5,50.3z"/>
	<path class="st1" d="M84.3,50c0-0.2,0-0.4,0-0.5c0.2-1.8,0.9-2,1.4-2c0.8,0,1.4,1.2,1.4,3.2c0,2.1-0.7,2.5-1.2,2.5
		C85.3,53.1,84.3,52.3,84.3,50z M83.1,50.3c0,2.1,1.3,3.2,2.7,3.2c1.4,0,2.6-1.1,2.6-3.2c0-1.8-1.1-3.2-2.6-3.2
		C84.6,47.1,83.1,48,83.1,50.3z"/>
	<path class="st1" d="M92.3,48c-0.1,0.4-0.1,0.9-0.1,2.6v0.2c-0.7,0-1,0-1.3,0c-0.2,0-0.5,0-0.7,0H90C90.3,50.2,91.7,48.6,92.3,48
		L92.3,48z M94.3,53.3V53h-0.3c-0.4,0-0.7,0.1-0.8-1.2c0-0.1,0-0.2,0-0.3h0.9c0.1-0.3,0.2-0.5,0.3-0.8c-0.3,0.1-0.6,0.1-1.1,0.1
		v-0.3c0-2,0.1-2.7,0.1-3.4c-0.2,0-0.4-0.1-0.6-0.2c-1,0.9-1.5,1.5-2.1,2.2c-1.1,1.3-1.3,1.5-1.6,2v0.2c0.6,0,1.1,0,1.7,0
		c0.6,0,0.9,0,1.4,0v0.2c0,1.4-0.3,1.3-0.9,1.3h-0.2v0.3h0.5c0.2,0,0.4,0,0.5,0c0.2,0,0.4-0.1,0.6-0.1c0.2,0,0.3,0,0.5,0
		c0.2,0,0.4,0.1,0.7,0.1H94.3z"/>
	<path class="st1" d="M95.8,49.9c0.3,0,0.8,0.1,1.3,0.1c0.5,0,1.1-0.1,1.4-0.1c-0.1,0.2-0.2,0.5-0.3,0.7c-0.6,0-0.8,0-1.2,0
		c-0.2,0-0.6,0-1.6,0C95.6,50.4,95.7,50.1,95.8,49.9z"/>
</g>
</svg>
