<?xml version="1.0" encoding="utf-8"?>
<!-- Generator: Adobe Illustrator 19.2.1, SVG Export Plug-In . SVG Version: 6.00 Build 0)  -->
<svg version="1.1" id="Слой_1" xmlns="http://www.w3.org/2000/svg" xmlns:xlink="http://www.w3.org/1999/xlink" x="0px" y="0px"
	 viewBox="0 0 172 80" style="enable-background:new 0 0 172 80;" xml:space="preserve">
<style type="text/css">
	.st0{fill:#DA2128;}
	.st1{fill:#FFE592;stroke:#DA2128;stroke-width:0.3858;}
	.st2{fill:#FFE592;}
</style>
<g>
	<path class="st0" d="M85.5,77.5c-40.2,0-72.8-16.8-72.8-37.6c0-20.8,32.6-37.6,72.8-37.6c40.2,0,72.8,16.9,72.8,37.6
		C158.4,60.6,125.7,77.5,85.5,77.5z"/>
	<path class="st1" d="M85.6,0.8c-40.7,0-73.7,17.5-73.7,39c0,21.5,33,39,73.7,39c40.7,0,73.7-17.5,73.7-39
		C159.3,18.3,126.3,0.8,85.6,0.8z M85.6,73.7c-39.6,0-71.8-15.2-71.8-33.9C13.8,21.1,45.9,6,85.6,6c39.6,0,71.8,15.2,71.8,33.9
		C157.4,58.5,125.2,73.7,85.6,73.7z"/>
	<path class="st2" d="M66.1,29.4c1-0.4,1.7-0.5,1.7-0.5c-0.7,1.6-1.6,3.7-1.4,5.3c0.3,2.7,2.5,2.6,4.5,1.5c0,0,0.6-0.4,1.1-0.7
		c0.3,2,2.3,2,6.3-1.5c0.3,3.1,2.4,2.9,2.9,2.9c1.3,0,4-1.1,5.8-2.6l-1.1,2.6h2.5c0-0.1,2.2-5.2,2.2-5.2c0.4,0,2.7,0,2.7,0
		c-0.6,1.5-0.8,1.9-1.2,2.9c-0.7,1.8,0.3,2.4,0.9,2.4c1.6,0,2.6-0.7,4.2-1.9c-0.1,2.6,3.8,2.2,5.5,1.2c0,0,3.2-1.5,3.8-5.5
		c0,0,1.4-0.2,2-1.1l-2,4.6c-1.7,4.3,2.4,2.6,4.1,1.5c0.6-0.4,1.2-0.9,1.2-0.9c-0.8,4.1,4.7,1.1,5.5,0c0,0-0.6,2.3,1.2,2.1
		c1.8-0.2,3.4-1.1,5.1-3l-0.3-0.3c-2.1,2.2-4.5,3.1-3.6,0.8l3.5-8.5l-2.3,0l-3.3,7.8c-0.7,0.9-1,1.1-2.1,1.8
		c-0.9,0.5-1.7,0.4-0.9-1.6l3.3-8l-2.3,0l-3.2,7.7c-1,1-1.9,1.5-2.5,1.8c-1.2,0.6-1.9,0.8-0.9-1.5l3.3-8l-2.3,0l-0.5,1.2
		c-0.8,2.4-2.9,2.8-2.9,2.8c0.3-1.5-0.5-4-2.7-3.9c-0.9,0-1.4,0.8-1.5,1l2.2-5.3c-20-9.1-40.1-3.8-56.1,4l3.3-7.7
		c-0.3,0-16.8-0.1-16.8-0.1l-1.8,2.5l14.7,0l-2.6,6.4l-0.9,0.5c-0.1,0.1-12.6,6.3-13.6,15.7c-0.5,5.4,3.8,5,6.5,3
		c1.8-1.3,4.3-4.1,6.1-8.2c2.2-5.1,4.4-10.4,4.4-10.4s0.5-0.2,1.5-0.2c1.4,0,0,2.5-0.2,2.8c-1,2.2-1.1,2.5-2,4.6
		c-0.9,2.1,1.2,3.1,3.9,1.5c0.1-0.1-4.4,3.9-4.9,7.8c-0.3,2.2,0.4,3,0.6,3.2c1.5,1.4,4.7-0.3,6.6-4.8c0.9-2.2,5.6-13.3,5.6-13.3
		s0.9-2.2,1.6-3c1-1.3,2.1-1.1,2.3-1c1.5,0.7,0.6,4.9,0.6,4.9c-2.1,1-4.9,2.4-5.4,4.4c-0.1,0.4-0.5,3.1,2.6,2.5
		C64.8,35.5,66.1,29.4,66.1,29.4z M39,40.5c-3.2,6.3-5.4,6-6.4,5.5c-0.8-0.4-2-2.2,0.4-6.5c1.3-2.4,2.5-4.2,4.9-6.5
		C41.2,29.8,45,27,45,27S41.5,35.6,39,40.5z M72.1,34c0,0-0.5,0.5-1.1,0.9c-0.7,0.4-1.4,0.6-2,0.3c-0.3-0.2-0.8-1.1,0-3.2
		c0,0,0.8-2.5,1.7-3.8c1.2-2,3.2-2.8,4.2-1.2C74.8,27,72,33.9,72.1,34z M103,26.6c0.3-0.3,0.9-0.6,1.3-0.3c1.3,0.9,0.5,3.1,0.5,3.1
		s-1.5,0-1.9-0.9C102.6,27.9,102.6,27,103,26.6z M104.6,30c0,0-1.1,3.4-3.4,5.2c-1.3,1-2.4,0.8-2-0.8c0.1-0.5,2.4-5.8,2.9-7
		C101.7,29.9,104.6,30,104.6,30z M63.5,23.6c-3.5-0.7-6,2.5-7.5,6.1c-2.6,6.3-2.4,6.1-6.1,14.5c-0.7,1.6-1.6,2.4-2.4,2.1
		c-0.9-0.4-0.3-2.3,0.8-4.7c1.2-2.5,2.3-4.2,5.2-8.5l-0.3-0.3C51.5,35,48.8,36,50,33.5c0.8-1.8,1.2-2.8,2.1-4.8
		c1.1-2.5-0.9-3.1-4.1-2.3l0.2-0.3c18.2-8.2,36.9-9.2,54.1-4.8c-1.4,3.4-4.3,10.5-4.3,10.5c-0.3,0.6-0.6,1.8-0.6,1.8
		c-1.9,1.7-3.4,2.5-2.9,0.5l3.6-8.8h-2.3l-2.1,5.1h-2.8l2.1-5.1c-0.6,0-2.3,0-2.3,0l-3.2,7.5c-1.3,1.2-3.9,2.4-5.1,2.5
		c-1,0-2.2-0.4-1.7-3c0.3-1.3,0.8-2.9,1.8-4.9c1.1-2.3,1.7-3,2.6-4.1c2.2-2.7,4.5-1.2,2.6,1.1c-0.3,0.4-0.7,0.8-1,1.1l1.6,1.6
		c2-2.1,2.4-5.8-0.5-5.9c-3.2-0.2-5.9,2.8-7.3,5.2c-1,1.8-1.9,4.5-2,6.5c0,0-0.8,0.8-1.8,1.5c-1.8,1.3-2.5,0.6-1.7-1.5l3.1-7.4h-2.3
		l-0.5,1.2c-0.2-0.3-0.3-0.4-0.6-0.6c-1.4-1.3-4.5-0.7-6.2,2.2c0,0-0.6,0.1-1.3,0.3c-0.5,0.2-0.9,0.2-0.9,0.2
		C66.4,26.9,65.6,24.1,63.5,23.6z M59.2,35.1c0,0-0.5-0.4-0.2-1.4c0.5-1.8,4.4-3.6,4.4-3.6c-0.3,1.2-1.1,2.7-1.5,3.5
		C61.3,34.6,60.1,35.7,59.2,35.1z"/>
	<path class="st2" d="M123.3,23.7c1.8-0.5,2.6-2.5,1.6-4.4c-0.1,1.5-1.2,2.7-2.1,2.9c-0.7,0.2-1.4,0.6-3.4,0
		C120.2,23.3,121.5,24.2,123.3,23.7z"/>
	<path class="st2" d="M142,52.2c0.4-4.8-3.1-5.3-4.3-3.6l3.5-8.6l-20.7-0.1c-1.2,0-3.3,0.1-3.7,1.9c-0.4,1.9,0.3,3.9,0.9,6
		c0.5,1.6-0.2,4.6-0.3,5.2c-0.8,3.2-2,4.4-2.3,4.6c-0.6,0.5-3,1.4-2.5-2.3c0,0.1,0.3-1.5,0.5-2.5c0.5-1.4,1.4-4.5,3.9-4.7l-0.2-0.5
		c-2.3-0.2-4.1,1.2-4.8,2.3c-2,2.9-1.3,6-1.3,6s-5.2,3.8-3.1-0.8l3.4-8h-2.4l-2,4.9c-3.7,1.1-2.8-2.4-2.8-2.4
		c0.4-2.7,2.2-5.7,4.8-5.3c0.8,0.1,1.1,0.4,1.7,1.1l0.7-0.3c-0.6-0.7-1.9-1.6-3.6-2.1c-6-1.8-9.5-1.4-12.7-0.8
		c-6.5,1.3-11.5,4.7-16,8.1l1.2-2.9c-3.3,1.2-4.5,1.1-4.5,1.1c0.5-2.3,0.6-6.3-2.3-6.8c-2.1-0.4-3.6,1.1-4.1,2.1
		c-0.8,2-0.6,5,3.4,5.5c-1.1,4-2.3,6.1-3.1,7.2c-1.6,2.1-2.7,2.5-4.2,2.2c-2-0.5-2.1-2.3-2.1-5c0-2,2-11.3,7-13.5
		c2.3-1,3.5-0.5,4.4,0.1c0.5,0.3,0.8,0.8,1.1,1l0.3-0.4c0,0-0.9-2.1-3.3-2.5c-0.7-0.1-2.1,0-3.1,0.3c-3.3,1-6.4,3.4-8.1,8.9
		c-0.2,0.8-1.2,3.9-0.4,7.9c0.6,2.7,2.3,3.3,3,3.6c0.8,0.4,4.1,1,7.1-2c1-1,2.2-2.6,3.3-5c0.7-1.5,0.9-2.7,0.9-2.7s1.5-0.1,1.7-0.3
		c0,0-2.8,6.8-3.9,9.3h2.3l2.4-5.7c0,0,2.4-1,1.8,0.7c-0.7,2-0.5,1.2-1.2,3.2c-0.8,2.3,1.9,2.3,5,0.1l-0.6,1.6h2.1
		c-0.1,0,3.5-8.1,3.5-8.1s0.5-0.4,1.4-0.7c0.6-0.2,2-0.9,1.4,0.5l-3.5,8.4c0.7,0,2.4,0,2.4,0l3.2-7.8c3.5-1.9,2.6-0.3,2.5,0.1
		L93.3,56c-1.1,2.5,0.1,3.4,3.1,2c0.5-0.2,0.7-0.4,0.7-0.4c0.6,2.7,5.6-0.8,8.5-4.5c0,0,0.3,0,0.6-0.1l-1.2,3
		c-0.9,3.2,1.3,3.4,5.9,0.9c0,0,0.6,1.8,3,1.8c1.6,0.1,3.4-1.3,4-2.2c0,0,0.9-0.1-0.5,1.9c-1.3,1.8-2.5,2.7-3.4,4.4
		c-2,4-0.6,6.4,0.3,6.5c1.6,0.2,3.4-0.2,5.9-5.5c0,0,5-11.3,6.5-15c1.1-2.6,2.6-2.5,3-2.3c1.5,0.8,0.5,5,0.5,5
		c-7.2,2.4-6.7,8-2.9,6.9c1.3-0.4,4.2-2.5,5.4-6.9c0,0,1.2-0.3,1.7-0.4c0,0-0.4,1.1-1.2,2.9c-1.2,2.7-0.4,4.5,1.6,4.6
		c5.4,0.3,7.1-5.8,7.1-5.8c0.1,0,1.5,0,2.6-1l-0.4-0.4C143.4,52.2,142.1,52.2,142,52.2z M72.8,48.4c0,0-0.2,0-1.2-0.3
		c-1.9-0.5-2.2-2.8-1.3-4.1c0.8-1.2,1.9-0.7,2.3-0.2C73.5,45.1,72.8,48.4,72.8,48.4z M83.6,55.9c-0.3,0.4-4.4,3.2-3.3,0.6
		c0.6-1.3,0.7-1.6,1.1-2.7c1.5-3.4-3.4-1.8-3.4-1.8c-0.1,0,0.2-0.5,0.2-0.5c2.6-1.8,7.8-4.6,9.3-5.2L83.6,55.9z M100.5,57
		c-0.4,0.3-1.9,0.5-0.7-2.2c0.1,0-2.3,0-2.3,0c-0.3,0.6-0.5,1.2-0.5,2c0,0-0.6,0.5-1.2,0.7c-0.3,0.1-1.2,0.3-0.5-1.3l2.5-5.9
		c1.1-2.4-0.8-2.4-2.4-1.8c-1.1,0.4-1.9,1-1.9,1s0.9-1.8-0.8-1.8c-1.1,0-2.9,0.4-4.3,1.5l1.6-3.8c0,0,6-2.8,16.6-1.6
		c-1.8,0.1-3.7,0.9-4.9,3.7c-0.6,1.5-0.5,4.1,0.6,5.1c0.7,0.6,2.1,0.6,2.1,0.6S102.5,55.7,100.5,57z M128.4,56
		c-0.5,0.8-1.4,2.1-2.4,1.8c-0.6-0.2-0.6-1.1-0.6-1.1c0.1-2.4,4.7-4.3,4.7-4.3C129.4,54.4,128.7,55.4,128.4,56z M132.8,50.8
		c0.3-2.7-1.2-5.1-3.1-5.2c-3.7-0.1-5.5,3.2-7,6.6c-2.5,5.9-6.3,14.9-6.3,14.9c-0.7,1.7-1.6,1.8-2,1.5c-0.3-0.2-0.6-0.7-0.3-2.1
		c0.2-1.2,0.9-3.5,4.2-7.9c1-1.4,1.9-3,0.5-3.2c0,0,1.3-2.1,1.4-4.3c0.1-2.1-0.7-3.8-1-4.7c-1.5-3.4-2-4.5,1.8-4.5
		c3.7,0,17.7,0,17.7,0c-0.1,0.1-3.6,8.2-3.6,8.2C134,50.4,132.8,50.8,132.8,50.8z M135.1,57.8c-1.2-0.1-0.6-1.8-0.4-2.3
		c0.8-1.7,1.7-3.9,2.7-6.1c-0.4,1.9,1.4,2.9,2.4,3.1C139.8,52.5,137.6,58,135.1,57.8z M140,51.9c0,0-2.1-0.5-2-2.2
		c0.1-1,1.1-1.3,1.5-1C140.6,49.6,140,51.9,140,51.9z"/>
	<path class="st2" d="M130.8,29.7c1.8,0,3.2-1.4,3.2-3.2c0-1.8-1.4-3.2-3.2-3.2c-1.8,0-3.3,1.4-3.3,3.2
		C127.5,28.3,129,29.7,130.8,29.7z M130.8,23.7c1.6,0,2.9,1.3,2.9,2.8c0,1.6-1.3,2.8-2.9,2.8c-1.6,0-2.9-1.3-2.9-2.8
		C127.9,25,129.2,23.7,130.8,23.7z"/>
	<path class="st2" d="M130,26.8l0.8,0l0.5,1.6c0,0,0.8,0,0.9,0c0,0-0.6-1.6-0.6-1.6c0.1,0,0.7-0.3,0.7-1c0-0.9-0.6-1.2-1.2-1.2h-1.9
		v3.9h0.8L130,26.8z M130,25.2l1,0c0,0,0.5,0,0.5,0.5c0,0.5-0.6,0.5-0.6,0.5H130V25.2z"/>
</g>
</svg>
