<?xml version="1.0" encoding="utf-8"?>
<!-- Generator: Adobe Illustrator 19.2.1, SVG Export Plug-In . SVG Version: 6.00 Build 0)  -->
<svg version="1.1" id="Слой_1" xmlns="http://www.w3.org/2000/svg" xmlns:xlink="http://www.w3.org/1999/xlink" x="0px" y="0px"
	 viewBox="0 0 170 69.8" style="enable-background:new 0 0 170 69.8;" xml:space="preserve">
<style type="text/css">
	.st0{fill:#8D734A;}
</style>
<path class="st0" d="M19.3,44.3c1.1,0,2.4,0.6,2.6,1.2C22,45.9,22,46,22.1,46c0.2,0,0.3,0,0.4-1.8c-1-0.4-2-0.7-3.1-0.7
	c-3.8,0-7.3,2.8-7.3,7.2c0,4.2,2.6,6.3,6.2,6.3c1.4,0,3.1-0.3,4.3-1c0.1-1.3,0.1-1.8,0.1-1.9c0-0.1-0.1-0.2-0.2-0.2
	c-0.2,0-0.2,0.2-0.3,0.4c-0.2,1.4-2.4,2-3.4,2c-2.9,0-4.5-2.8-4.5-5.8C14.4,47,16.2,44.3,19.3,44.3z M29.8,56.2h-0.5v0.5h3.6v-0.5
	h-0.5c-0.4,0-0.6-0.4-1.2-1.9l-2.9-7.9c0-0.1-0.1-0.2-0.2-0.2c-0.1,0-0.2,0.1-0.2,0.3l-3.6,9.3c-0.1,0.3-0.1,0.4-0.3,0.4h-0.6v0.5
	h2.8v-0.5h-0.8c-0.2,0-0.4,0-0.4-0.2c0-0.4,0.3-1.4,0.7-2.2l1.9-4.5l2,5.5c0.4,1.1,0.5,1.4,0.5,1.5C30.1,56.2,30,56.2,29.8,56.2z
	 M40.5,56.2h-0.7v0.5h3.7v-0.5h-0.3c-0.5,0-0.6-0.2-1.1-1.5c-0.8-2.4-2.4-7.1-2.4-7.7c0-0.3,0.3-0.4,0.3-0.6c0-0.1,0-0.2-0.1-0.2
	c-0.2,0-0.9,0.2-1.2,0.3c-1.5,3.8-3,7.6-3.6,9.4c-0.1,0.2-0.2,0.3-0.4,0.3h-0.5v0.5h3v-0.5h-0.8c-0.2,0-0.4,0-0.4-0.4
	c0-0.5,0.5-1.9,0.8-2.8h3.1l0.9,2.8C40.8,56.1,40.8,56.2,40.5,56.2z M37,52.4c0.4-1.3,0.9-2.5,1.4-3.8l1.2,3.8H37z M52.5,54.3
	l-3-7.9c-0.1-0.1-0.1-0.2-0.2-0.2c-0.1,0-0.2,0.1-0.2,0.3l-3.3,8.8c-0.2,0.6-0.6,0.9-0.8,0.9h-0.1c-0.3,1.1-0.4,1.5-0.4,1.6
	c0,0.1,0.1,0.2,0.2,0.2c0.1,0,0.2-0.1,0.2-0.2c0.5-1.1,2.5-1.1,3.3-1.1h2.4c2.2,0,2.8,0.4,2.8,0.9c0,0.2,0,0.4,0.2,0.4
	c0.1,0,0.1-0.1,0.4-1.8h-0.3C53.3,56.2,53.2,56,52.5,54.3z M51.1,56.1h-4.4c-0.4,0-0.4,0-0.4-0.2c0-0.4,0.5-1.7,0.6-2.1l1.7-4.5
	l2.1,5.5c0.3,0.8,0.5,1.3,0.5,1.4C51.4,56.1,51.3,56.1,51.1,56.1z M58.7,52l2.5,3.8c0.6,0.9,0.7,0.9,1.3,0.9h2v-0.5
	c-0.6,0-0.8-0.1-1-0.4c-0.4-0.4-2.3-3.1-3.6-5c1-1.1,2.1-2.1,3-3.2c0.5-0.6,0.5-0.6,1.1-0.6v-0.5h-3.2V47h0.9c0.1,0,0.3,0,0.3,0.2
	c0,0.1-0.5,0.8-0.7,1c-1.1,1.3-2.2,2.5-3.4,3.8v-4.6c0-0.2,0-0.3,0.2-0.3h0.7v-0.5H55V47h0.7c0.5,0,0.5,0.1,0.5,2.2v6.7
	c0,0.2,0,0.3-0.2,0.3h-0.7v0.5h3.8v-0.5h-0.7c-0.5,0-0.6-0.1-0.6-2.2v-1.2L58.7,52z M72.3,56.2h-0.7v0.5h3.8v-0.5h-0.7
	c-0.5,0-0.6-0.1-0.6-2.2v-6.7c0-0.2,0-0.3,0.2-0.3H75v-0.5h-3.8V47h0.7c0.4,0,0.5,0,0.5,1.1l-4.1,5.7h0v-6.5c0-0.2,0-0.3,0.2-0.3
	h0.7v-0.5h-3.8V47h0.7c0.5,0,0.6,0.1,0.6,2.2v6.7c0,0.2,0,0.3-0.2,0.3h-0.6v0.5h3.8v-0.5h-0.7c-0.4,0-0.5,0-0.6-1.4l4.1-5.7h0v6.8
	C72.5,56.1,72.4,56.2,72.3,56.2z M83.6,43.3c0-0.2-0.1-0.3-0.2-0.3c-0.1,0-0.1,0.1-0.3,0.3c0,1-0.3,1.3-1.3,1.3
	c-0.4,0-1.1-0.2-1.1-0.7c0-0.1,0-0.3-0.2-0.3c-0.1,0-0.2,0.3-0.3,0.5L80.1,45c0.4,0.3,0.9,0.5,1.3,0.5
	C82.6,45.5,83.6,44.6,83.6,43.3z M83.7,56.2h-0.7v0.5h3.8v-0.5h-0.7c-0.5,0-0.5-0.1-0.5-2.2v-6.7c0-0.2,0-0.3,0.2-0.3h0.7v-0.5h-3.8
	V47h0.7c0.4,0,0.5,0,0.5,1.1l-4.1,5.7h0v-6.5c0-0.2,0-0.3,0.2-0.3h0.7v-0.5h-3.8V47h0.7c0.5,0,0.5,0.1,0.5,2.2v6.7
	c0,0.2,0,0.3-0.2,0.3h-0.7v0.5H81v-0.5h-0.7c-0.4,0-0.5,0-0.6-1.4l4.1-5.7h0v6.8C83.9,56.1,83.9,56.2,83.7,56.2z M99.5,57
	c3,0,5-2.5,5-5.7c0-3.1-1.9-5.1-4.7-5.1c-3,0-5,2.5-5,5.7C94.7,55,96.6,57,99.5,57z M99.3,46.8c1.3,0,3.4,1.3,3.4,5.4
	c0,4.1-2.4,4.2-2.9,4.2c-1.3,0-3.4-1.3-3.4-5.4C96.4,46.9,98.9,46.8,99.3,46.8z M109.3,52.1c1.7,0,3.2-1.1,3.2-2.8
	c0-1.1-0.6-2.8-3.2-2.8h-4.2V47h0.7c0.5,0,0.5,0.1,0.5,2.2v6.7c0,0.2,0,0.3-0.2,0.3h-0.7v0.5h3.8v-0.5h-0.7c-0.5,0-0.6-0.1-0.6-2.2
	v-2.1C108.4,52,108.9,52.1,109.3,52.1z M108,47.3c0-0.2,0-0.2,0.2-0.2h0.4c1.7,0,2.2,1.5,2.2,2.4c0,1.2-0.8,2-1.9,2
	c-0.3,0-0.7-0.1-0.9-0.2V47.3z M116.8,47.1h1.1c1.7,0,2.4,0.4,2.5,0.7c0,0.2,0,0.4,0.2,0.4c0.1,0,0.2-0.1,0.3-1.6h-7.2V47h0.7
	c0.5,0,0.6,0.1,0.6,2.2v6.7c0,0.2,0,0.3-0.2,0.3H114v0.5h6.9c0.3-1.1,0.4-1.4,0.4-1.5c0-0.1-0.1-0.2-0.2-0.2c-0.1,0-0.2,0.1-0.2,0.2
	c-0.4,0.9-2.4,0.9-3.2,0.9h-0.5c-0.5,0-0.6,0-0.6-3.5v-1.2h1.4c1.6,0,1.6,0.2,1.6,0.4v0.6h0.4v-2.8h-0.4v0.6c0,0.5-0.1,0.7-1.6,0.7
	h-1.4v-3.5C116.6,47.2,116.7,47.1,116.8,47.1z M125.4,47h0.7v-0.5h-3.8V47h0.6c0.5,0,0.6,0.1,0.6,2.2v6.7c0,0.2,0,0.3-0.2,0.3h-0.6
	v0.5h14.5v-0.5h-0.7c-0.5,0-0.6-0.1-0.6-2.2v-6.7c0-0.2,0-0.3,0.2-0.3h0.7v-0.5H133V47h0.7c0.5,0,0.6,0.1,0.6,2.2v6.6
	c0,0.2,0,0.3-0.2,0.3h-2.9c-0.5,0-0.5-0.1-0.5-2.2v-6.6c0-0.2,0-0.3,0.2-0.3h0.7v-0.5h-3.8V47h0.7c0.5,0,0.6,0.1,0.6,2.2v6.6
	c0,0.2,0,0.3-0.2,0.3h-2.9c-0.5,0-0.6-0.1-0.6-2.2v-6.6C125.2,47.1,125.2,47,125.4,47z M142.1,47.1h1.1c1.7,0,2.4,0.4,2.5,0.7
	c0,0.2,0.1,0.4,0.2,0.4c0.1,0,0.2-0.1,0.3-1.6H139V47h0.7c0.5,0,0.6,0.1,0.6,2.2v6.7c0,0.2,0,0.3-0.2,0.3h-0.7v0.5h6.9
	c0.3-1.1,0.4-1.4,0.4-1.5c0-0.1-0.1-0.2-0.2-0.2c-0.1,0-0.1,0.1-0.2,0.2c-0.5,0.9-2.4,0.9-3.2,0.9h-0.5c-0.5,0-0.6,0-0.6-3.5v-1.2
	h1.4c1.5,0,1.6,0.2,1.6,0.4v0.6h0.4v-2.8h-0.4v0.6c0,0.5-0.1,0.7-1.6,0.7h-1.4v-3.5C141.9,47.2,142,47.1,142.1,47.1z M151.4,47h0.6
	v-0.5h-3.8V47h0.7c0.5,0,0.6,0.1,0.6,2.2v6.7c0,0.2,0,0.3-0.2,0.3h-0.7v0.5h3.8v-0.5h-0.7c-0.5,0-0.5-0.1-0.5-2.2v-1.2L152,52
	l2.5,3.8c0.6,0.9,0.7,0.9,1.3,0.9h2v-0.5c-0.6,0-0.8-0.1-1.1-0.4c-0.4-0.4-2.3-3.1-3.6-5c1-1.1,2-2.1,3-3.2c0.5-0.6,0.6-0.6,1.1-0.6
	v-0.5H154V47h0.9c0.1,0,0.3,0,0.3,0.2c0,0.1-0.5,0.8-0.7,1c-1.1,1.3-2.2,2.5-3.4,3.8v-4.6C151.2,47.1,151.2,47,151.4,47z M153,35.4
	c0.4-0.3,0.8-0.5,1-0.7c1.5-1,0.7-1.6-0.2-1.5c-0.9,0.1-2.2,0.5-4.9-0.2c-2.7-0.7-3.3-1.4-5.7-2.9c-2.4-1.5-8.5-6.1-21.7-6.1
	c-15.2,0-22,15.9-22,15.9s9.9,0,12.7,0c2.8,0,3.5-2.2,2.8-3.9c-0.7-1.7-2.4-1.3-3.2-1c-0.8,0.3-1,1.6-2.2,2.3
	c-1.2,0.7-2.3,0.2-3-0.4c-0.8-0.6-0.5-1.9,0.4-3c0.9-1,2.6-2.4,7.9-2.4c5.3,0,7.6,3.6,9.3,6.4c1.7,2.8,5.4,2.8,7,2.8h31.8v21.5H7.3
	V40.8h31.8c1.7,0,5.3,0,7-2.8c1.8-2.8,4-6.4,9.3-6.4c5.3,0,7,1.4,7.9,2.4c0.9,1.1,1.1,2.4,0.4,3c-0.8,0.6-1.8,1.1-3,0.4
	c-1.2-0.7-1.4-2-2.2-2.3c-0.8-0.3-2.5-0.7-3.2,1c-0.7,1.7,0,3.9,2.8,3.9c2.8,0,12.7,0,12.7,0s-6.8-15.9-22-15.9
	c-13.2,0-19.3,4.6-21.7,6.1c-2.5,1.5-3,2.2-5.7,2.9c-2.7,0.7-4,0.3-4.9,0.2c-0.9-0.1-1.7,0.5-0.2,1.5c0.2,0.1,0.6,0.4,1,0.7H1.9
	v32.3H168V35.4H153z M167.3,67.1H2.6v-31h15.8c1.7,1.1,4.5,2.4,8.6,3.4H6v24.2h158.3V39.5h-21c4.1-1,6.9-2.4,8.6-3.4h15.4V67.1z
	 M84,41.2c10.3,0,14.2-4.4,16.5-8.3c2.1-3.6,2.6-8.4,1.3-12.8c-1.4-4.4-4.8-7.4-5.8-8.2L89,6.5l-0.9-0.8l-0.7-0.7
	c-1-0.9-1.6-1.5-2.6-1.2c-0.7,0.2-1.7,1-2.5,1.7c0,0-2.2,2-3.3,2.7c-0.1,0-6.3,4-8.8,7.4c-1.4,2-2.5,5.1-2.8,7.9
	c-0.3,3.3,1.1,6.7,1.8,8C72.3,38.1,77.2,41.2,84,41.2z M96,18.8C96,18.8,96,18.7,96,18.8c0.1,0,0.2,0,0.2,0.1
	C96.2,18.9,96.1,18.8,96,18.8z M69.3,20.5c0.5-1.8,1.2-3.2,1.8-4.1c1.7-2.6,4.2-4.8,8.2-7.3c2.1-1.3,3.2-2.3,4-3
	C84,5.5,84.4,5,85.1,4.9c0.4-0.1,0.9,0.3,1.5,0.9l0.7,0.7l0.9,0.8c0,0,4,3,4,3l3.1,2.4c0.9,0.7,3.9,3.2,5.2,6.8
	c0.1,0.3,0.2,0.8,0.2,1.4c0,0.8-0.1,1.7-0.6,2.4c-0.1,0-0.3,0.2-0.3,0.2c0,0,0,0,0,0c-0.1-0.4-0.6-2.2-1.3-3.1
	c-0.8-0.9-1.7-1.6-2.5-1.8c0,0-0.1,0-0.1,0c0,0-0.1,0.1-0.1,0.1l0,0.7c0,0.1,0.1,1.1,0.1,1.1l-0.2,1.5c-0.3,1.5-1.4,3.8-1.4,3.8
	c0,0,0,0.1-0.1,0c0,0-0.1,0-0.1-0.1c0,0-0.5-4-1.6-5.9c-1.3-2.2-2.6-3.9-3.3-4.3c-0.3-0.2-0.6-0.2-0.8-0.1c-0.3,0.2-0.7,0.8-0.8,2.6
	l-0.5,4c-1,4.4-3.3,6-3.3,6c0,0-0.1,0-0.1,0c-0.2-0.2-2.1-1.8-3.2-5.2c-0.3-1.1-0.5-2.7-0.6-4.1c-0.1-1.8-0.2-3.1-0.6-3.3
	c0,0-0.2,0-0.2,0c0,0-1.1,0.4-2.6,1.9c-1.5,1.5-3.4,4.1-4.1,5.9c0,0-1.3,3.8-1.3,3.8c0,0,0,0.1-0.1,0.1L70.7,27
	c-0.2-0.3-0.9-1.7-1.4-2.9C69,23.3,69.2,21.1,69.3,20.5z"/>
</svg>
