<?xml version="1.0" encoding="utf-8"?>
<!-- Generator: Adobe Illustrator 19.2.1, SVG Export Plug-In . SVG Version: 6.00 Build 0)  -->
<svg version="1.1" id="Слой_1" xmlns="http://www.w3.org/2000/svg" xmlns:xlink="http://www.w3.org/1999/xlink" x="0px" y="0px"
	 viewBox="0 0 172 80" style="enable-background:new 0 0 172 80;" xml:space="preserve">
<style type="text/css">
	.st0{fill:#FFFFFF;}
	.st1{fill:none;}
	.st2{clip-path:url(#SVGID_4_);}
	.st3{fill:#CCCCCC;}
	.st4{fill:#2E3191;}
</style>
<g>
	<g>
		<path class="st0" d="M117.4,31.7c-4.3-16-18.8-27.1-35.7-27.1c-13.9,0-26.7,7.8-33,20c-0.6-0.1-1.3-0.1-1.9-0.1
			c-10.1,0-16.1,8.4-16.1,16.5c0,7.6,6.5,15.7,16.1,15.7c0.5,0,0.9,0,1.4-0.1c6.1,12.8,19.1,21,33.5,21c14.7,0,27.9-8.5,33.8-21.7
			c0.3,0,13.2,0,13.2,0V31.7H117.4z M81.6,76.1c-19.6,0-35.5-15.7-35.5-35.1C46.2,21.7,62,6,81.6,6c19.6,0,35.5,15.7,35.5,35.1
			C117.1,60.4,101.2,76.1,81.6,76.1z"/>
	</g>
	<g>
		<g>
			<defs>
				<ellipse id="SVGID_1_" cx="81.6" cy="41.1" rx="35.5" ry="35.1"/>
			</defs>
			<use xlink:href="#SVGID_1_"  style="overflow:visible;fill:#F6921E;"/>
			<clipPath id="SVGID_2_">
				<use xlink:href="#SVGID_1_"  style="overflow:visible;"/>
			</clipPath>
			<g style="clip-path:url(#SVGID_2_);">
				<image style="overflow:visible;" width="84" height="36" xlink:href="9FB1D37E.png"  transform="matrix(1 0 0 1 39 41)">
				</image>
			</g>
			<g style="clip-path:url(#SVGID_2_);">
				<image style="overflow:visible;" width="83" height="40" xlink:href="9FB1D379.png"  transform="matrix(1 0 0 1 40 40)">
				</image>
			</g>
			<g style="clip-path:url(#SVGID_2_);">
				<image style="overflow:visible;" width="84" height="36" xlink:href="9FB1D37B.png"  transform="matrix(1 0 0 1 39 2)">
				</image>
			</g>
		</g>
		<polygon class="st1" points="120.1,50.7 120.1,50.5 120.1,50.5 		"/>
		<g>
			<defs>
				<ellipse id="SVGID_3_" cx="81.6" cy="41.1" rx="35.5" ry="35.1"/>
			</defs>
			<clipPath id="SVGID_4_">
				<use xlink:href="#SVGID_3_"  style="overflow:visible;"/>
			</clipPath>
			<g class="st2">
				<path class="st3" d="M51.4,56.1h21.3v5h10.4v-5c0.2,0,2,0.4,5.6-1.1V56h12.1v-0.8c0.6,0.3,2.1,0.8,5.3,0.8h4.5v-0.8
					c0.1,0,2.1,0.7,5.7,0.7h10.8V45.8H32.6C34.4,52.8,42,58.9,51.4,56.1z"/>
			</g>
		</g>
		<circle class="st1" cx="46.7" cy="40.6" r="11.6"/>
		<path class="st4" d="M116.4,33.2c-2.3,0-4.5,0-5.7,0.8v-0.8h-3.4v-4.5c0,0-6.7,0-7.7,0c-1-1-2.3-1.6-3.9-1.6c-3,0-5.4,2.4-5.4,5.4
			c0,1.2,0.4,2.4,1.1,3.3c0,0,0,0.1,0,0.1c-1.8-1.6-4.2-2.6-6.8-2.6c-0.1,0-7.5,0-7.5,0h0c0-0.3,0.1-0.6,0.1-0.9
			c0-2.9-2.4-5.2-5.3-5.2c-2.9,0-5.3,2.3-5.3,5.2c0,1,0.3,1.9,0.7,2.7c-1.5-1.1-3.4-1.8-5.4-1.8c-0.2,0-0.4,0-0.6,0v-6.4h-9.8
			c-1.5-0.5-3-0.8-4.7-0.8c-8,0-14.6,6.5-14.6,14.6c0,8,6.5,14.6,14.6,14.6c1.5,0,2.9-0.2,4.3-0.6h21.8v5h10.4v-5
			c0.2,0,2.9,0.2,5.6-1.1v1.1h12.1v-0.8c0.6,0.3,2.1,0.8,5.3,0.8h4.5v-0.8c0.1,0,2.1,0.7,5.7,0.7h10.8V33.2
			C127.2,33.2,116.4,33.2,116.4,33.2z"/>
		<g>
			<path class="st0" d="M67.4,40.5c-0.1-0.4-0.2-0.7-0.3-1c-0.1-0.3-0.3-0.6-0.5-0.9c-0.6-0.8-1.3-1.4-2.2-1.9
				c-0.9-0.5-1.9-0.7-2.9-0.7c-0.6,0-1.1,0.1-1.6,0.2c-0.5,0.1-1,0.4-1.7,0.7v-7.2h-4.4v21.7h4.3v-8.4c0-0.7,0.1-1.3,0.3-1.7
				c0.2-0.4,0.5-0.7,1-1c0.9-0.5,1.9-0.5,2.7,0c0.4,0.2,0.7,0.6,0.9,1c0.2,0.4,0.3,1.1,0.3,1.8v8.4h4.3v-8.4c0-0.6,0-1.1-0.1-1.5
				C67.5,41.2,67.5,40.8,67.4,40.5z"/>
			<path class="st0" d="M47.1,33.4c1.4,0,2.8,0.4,4,1.3l0.1,0.1l1.2-4.5c-1.6-0.8-3.3-1.2-5.2-1.2c-6.7,0-12,5.1-12,11.6
				c0,6.4,5.3,11.6,11.9,11.6c1.8,0,3.6-0.4,5.3-1.3l-1.2-4.3l0,0L51,46.6c-1.2,0.8-2.6,1.2-4,1.2c-4,0-7.3-3.2-7.3-7.2
				C39.7,36.5,43,33.4,47.1,33.4z"/>
			<rect x="69.6" y="36.3" class="st0" width="4.3" height="15.2"/>
			<path class="st0" d="M120.1,36.3l0,0.9c-0.2-0.1-0.3-0.2-0.5-0.3c-0.7-0.4-1.5-0.7-2.4-0.8c-0.4-0.1-0.8-0.1-1.2-0.1
				c-4.3,0-7.8,3.5-7.8,7.8c0,2.3,1,4.4,2.6,5.8c0.4,0.4,0.9,0.7,1.4,1c1.1,0.6,2.4,1,3.8,1c0.1,0,0.3,0,0.4,0
				c0.8,0,1.6-0.2,2.3-0.5c0.4-0.2,0.9-0.4,1.3-0.6l0,0.8h4V36.3H120.1z M119.7,45.4c-0.2,0.4-0.5,0.8-0.8,1.2
				c-0.3,0.3-0.7,0.6-1.2,0.8c-0.9,0.4-2,0.4-2.9,0c-0.5-0.2-0.9-0.5-1.2-0.8c-0.3-0.3-0.6-0.7-0.8-1.2c-0.2-0.4-0.3-0.9-0.3-1.5
				c0-0.5,0.1-1,0.3-1.5c0.2-0.5,0.5-0.9,0.8-1.2c0.3-0.3,0.7-0.6,1.2-0.8c0.5-0.2,1-0.3,1.5-0.3c0.5,0,1,0.1,1.4,0.3
				c0.4,0.2,0.8,0.5,1.2,0.8c0.3,0.4,0.6,0.8,0.8,1.2c0.2,0.5,0.3,1,0.3,1.6C120,44.5,119.9,44.9,119.7,45.4z"/>
			<path class="st0" d="M89.5,38.4c-0.7-0.7-1.5-1.3-2.5-1.6c-2-0.8-4.5-0.8-6.5,0.2c-0.1,0.1-0.3,0.1-0.4,0.2v-0.8h-4v20.4h4.1
				v-6.1c1.2,0.6,2.4,1,3.8,1c1.1,0,2.1-0.2,3.1-0.6c0.9-0.4,1.8-1,2.5-1.7c0.7-0.7,1.2-1.5,1.7-2.4c0.4-0.9,0.6-2,0.6-3
				c0-1.1-0.2-2.1-0.6-3C90.7,39.9,90.2,39.1,89.5,38.4z M87.3,45.3c-0.2,0.5-0.5,0.9-0.8,1.2c-0.3,0.3-0.7,0.6-1.2,0.8
				c-0.9,0.4-2,0.4-2.9,0c-0.5-0.2-0.9-0.5-1.2-0.8c-0.3-0.3-0.6-0.7-0.8-1.2c-0.2-0.5-0.3-1-0.3-1.5c0-0.5,0.1-1,0.3-1.4
				c0.2-0.5,0.5-0.8,0.8-1.2c0.3-0.3,0.7-0.6,1.2-0.8c0.5-0.2,0.9-0.3,1.5-0.3c0.5,0,1,0.1,1.4,0.3c0.5,0.2,0.9,0.5,1.2,0.8
				c0.3,0.3,0.6,0.7,0.8,1.2c0.2,0.5,0.3,1,0.3,1.5C87.6,44.4,87.5,44.9,87.3,45.3z"/>
			<ellipse class="st0" cx="71.8" cy="32.3" rx="2.4" ry="2.4"/>
			<rect x="93.5" y="36.3" class="st0" width="4.3" height="15.2"/>
			<ellipse class="st0" cx="95.6" cy="32.3" rx="2.4" ry="2.4"/>
			<path class="st0" d="M104.1,31.7h-4.3V46c0,1.6,0.6,3,1.8,4.1c0.6,0.5,1.3,0.9,1.9,1.1c0.7,0.2,1.5,0.3,2.6,0.3h1.4v-3.9h-1.2
				c-0.8,0-1.4-0.2-1.7-0.5c-0.3-0.3-0.5-0.8-0.5-1.5v-5.1h3.4v-4.2h-3.4V31.7z"/>
		</g>
	</g>
</g>
</svg>
