<?xml version="1.0" encoding="utf-8"?>
<!-- Generator: Adobe Illustrator 19.2.1, SVG Export Plug-In . SVG Version: 6.00 Build 0)  -->
<svg version="1.1" id="Слой_1" xmlns="http://www.w3.org/2000/svg" xmlns:xlink="http://www.w3.org/1999/xlink" x="0px" y="0px"
	 viewBox="0 0 172 80" style="enable-background:new 0 0 172 80;" xml:space="preserve">
<style type="text/css">
	.st0{fill:#A62128;}
	.st1{fill-rule:evenodd;clip-rule:evenodd;fill:#A62128;}
	.st2{fill-rule:evenodd;clip-rule:evenodd;fill:#D55158;}
</style>
<g>
	<rect x="52.7" y="75.7" class="st0" width="1" height="0.6"/>
	<polygon class="st0" points="55.7,72.9 55.7,74.5 55.7,74.7 55.7,74.7 55.7,74.5 56.3,72.9 57.1,72.9 56.4,74.5 57.1,77.9 
		56.4,77.9 55.9,75.7 55.9,75.6 55.9,75.6 55.8,75.7 55.7,76.1 55.7,77.9 54.9,77.9 54.9,72.9 	"/>
	<path class="st0" d="M59.1,77.9c-1,0-1-1.1-1-1.1v-2.9c0,0,0-1.1,1-1.1c1,0,1,1.1,1,1.1v2.9C60.1,76.8,60.1,77.9,59.1,77.9
		 M59.1,73.5c-0.3,0-0.2,0.4-0.2,0.4v2.9c0,0,0,0.4,0.2,0.4c0.3,0,0.2-0.4,0.2-0.4v-2.9C59.4,73.9,59.4,73.5,59.1,73.5"/>
	<polygon class="st0" points="62.6,75.7 62.1,75.7 62.1,77.9 61.3,77.9 61.3,72.9 62.1,72.9 62.1,74.9 62.6,74.9 62.6,72.9 
		63.4,72.9 63.4,77.9 62.6,77.9 	"/>
	<path class="st0" d="M65.1,78.7h-0.7v-1.6h0.1c0.1,0,0.3-0.1,0.3-0.4l0.1-3.9h1.8v4.3H67v1.6h-0.7v-0.8h-1.2V78.7z M65.4,77.1h0.6
		v-3.5h-0.3l-0.1,2.9C65.5,76.7,65.5,76.9,65.4,77.1"/>
	<polygon class="st0" points="68.7,77.9 68.1,77.9 68.1,72.9 68.7,72.9 68.7,75.5 68.7,75.7 68.8,75.7 68.8,75.5 69.5,72.9 
		70.2,72.9 70.2,77.9 69.5,77.9 69.5,75.3 69.5,75 69.5,75 69.4,75.3 	"/>
	<polygon class="st0" points="71.2,73.6 71.2,72.9 73.3,72.9 73.3,73.6 72.6,73.6 72.6,77.9 71.9,77.9 71.9,73.6 	"/>
	<polygon class="st0" points="74.3,72.9 76,72.9 76,73.6 75.1,73.6 75.1,74.9 75.8,74.9 75.8,75.7 75.1,75.7 75.1,77.1 76,77.1 
		76,77.9 74.3,77.9 	"/>
	<path class="st0" d="M77.1,72.9h0.7c0.6,0,1.3,0.3,1.3,1.5c0,1.2-0.7,1.5-1.3,1.5v2h-0.7V72.9z M77.9,75.1c0.5,0,0.6-0.2,0.6-0.7
		c0-0.6-0.1-0.8-0.6-0.8V75.1z"/>
	<path class="st0" d="M82.2,76.1v0.7c0,0,0,1.1-1,1.1c-1,0-1-1.1-1-1.1v-2.9c0,0,0-1.1,1-1.1c1,0,1,1.1,1,1.1v0.7h-0.7v-0.7
		c0,0,0-0.4-0.3-0.4c-0.3,0-0.3,0.4-0.3,0.4v2.9c0,0,0,0.4,0.3,0.4c0.3,0,0.3-0.4,0.3-0.4v-0.7H82.2z"/>
	<polygon class="st0" points="84,72.9 84,74.5 84,74.7 84.1,74.7 84.1,74.5 84.7,72.9 85.4,72.9 84.8,74.5 85.5,77.9 84.8,77.9 
		84.3,75.7 84.3,75.6 84.3,75.6 84.2,75.7 84,76.1 84,77.9 83.3,77.9 83.3,72.9 	"/>
	<path class="st0" d="M86.4,77.9l0.8-5H88l0.8,5h-0.7l-0.1-1h-0.7l-0.1,1H86.4z M87.6,74.5l0-0.3h0L87.6,74.5l-0.3,1.6h0.5
		L87.6,74.5z"/>
	<path class="st0" d="M89.8,77.9l0.5-2.4c-0.3-0.2-0.4-0.6-0.4-1.1c0-0.9,0.4-1.4,1.3-1.4h0.7v5h-0.7v-2.1h-0.2l-0.4,2.1H89.8z
		 M91.1,75.1v-1.5c-0.2,0-0.5,0-0.5,0.7C90.5,75,90.9,75.1,91.1,75.1"/>
	<path class="st0" d="M96.1,76.7c-0.6,0-1.3-0.4-1.3-1.5c0-1.2,0.7-1.5,1.3-1.5h0v-0.8h0.7v0.8h0c0.6,0,1.3,0.3,1.3,1.5
		c0,1.2-0.7,1.5-1.3,1.5v1.2h-0.7V76.7z M96.1,74.4c-0.5,0-0.5,0.2-0.5,0.8c0,0.6,0.1,0.7,0.5,0.7V74.4z M96.9,75.9
		c0.5,0,0.6-0.2,0.6-0.7c0-0.6-0.1-0.8-0.6-0.8V75.9z"/>
	<polygon class="st0" points="99.9,77.9 99.3,77.9 99.3,72.9 100,72.9 100,75.5 100,75.7 100,75.7 100.1,75.5 100.8,72.9 
		101.4,72.9 101.4,77.9 100.8,77.9 100.8,75.3 100.8,75 100.7,75 100.7,75.3 	"/>
	<path class="st0" d="M102.7,72.9h0.7c0.6,0,1.3,0.3,1.3,1.5c0,1.2-0.7,1.5-1.3,1.5v2h-0.7V72.9z M103.4,75.1c0.5,0,0.6-0.2,0.6-0.7
		c0-0.6-0.1-0.8-0.6-0.8V75.1z"/>
	<polygon class="st0" points="107,77.9 106.5,74.7 106.5,74.5 106.5,74.5 106.5,74.7 106.5,77.9 105.8,77.9 105.8,72.9 106.7,72.9 
		107.1,75.1 107.2,75.4 107.2,75.4 107.2,75.1 107.6,72.9 108.5,72.9 108.5,77.9 107.9,77.9 107.9,74.7 107.9,74.5 107.8,74.5 
		107.8,74.7 107.3,77.9 	"/>
	<path class="st0" d="M109.6,77.9l0.8-5h0.9l0.8,5h-0.7l-0.1-1h-0.7l-0.1,1H109.6z M110.8,74.5l0-0.3h0L110.8,74.5l-0.3,1.6h0.5
		L110.8,74.5z"/>
	<rect x="113" y="75.7" class="st0" width="1" height="0.6"/>
	<path class="st0" d="M72.7,4.2c-0.1,0.1-0.2,0.2-0.2,0.3c-0.1,0.1-0.2,0.2-0.3,0.2c-0.1,0.1-0.2,0.1-0.2,0.2
		c-0.1,0-0.1,0.1-0.2,0.1c-0.5,0-0.9,0-1.1-0.1c-0.3-0.1-0.4-0.2-0.4-0.3c0-0.1,0-0.1,0.2-0.1c0.1,0,0.3-0.1,0.5-0.1
		c0.1,0,0.1,0,0.3-0.1c0.1-0.1,0.3-0.2,0.4-0.3c0.1-0.1,0.3-0.3,0.5-0.4c0.2-0.1,0.4-0.3,0.6-0.4c0.2-0.1,0.4-0.2,0.6-0.3
		c0.2-0.1,0.4-0.1,0.6-0.1c0.3,0,0.5,0,0.6,0.1c0.1,0,0.1,0.1,0.1,0.2c0,0.1,0,0.2,0,0.3c0,0.1,0,0.3,0,0.4c0,0,0,0.1,0,0.3
		c0,0.2-0.1,0.4-0.1,0.7c0,0.3-0.1,0.7-0.2,1.1c-0.1,0.4-0.1,0.8-0.2,1.2C74,7.2,73.9,7.6,73.9,8c-0.1,0.4-0.1,0.7-0.2,1
		c0,0.1,0,0.1,0,0.2c0,0.1,0,0.2-0.1,0.3c0,0.1-0.1,0.3-0.1,0.4c-0.1,0.2-0.1,0.3-0.2,0.4c-0.1,0.1-0.2,0.2-0.3,0.3
		c-0.1,0.1-0.2,0.1-0.4,0.1c-0.2,0-0.3,0-0.5,0c-0.2,0-0.3-0.1-0.4-0.1c-0.1-0.1-0.2-0.1-0.3-0.2c-0.1-0.1-0.1-0.1-0.1-0.2v-0.1
		c0,0,0-0.1,0.1-0.2c0.1-0.3,0.2-0.6,0.2-0.9c0.1-0.3,0.1-0.7,0.2-1c0.1-0.3,0.1-0.7,0.2-1c0.1-0.3,0.1-0.6,0.2-0.9
		C72.4,5.5,72.6,4.8,72.7,4.2 M78.9,6.8C79,6.7,79,6.7,79.1,6.7c0,0,0.1,0,0.1,0v0.1c0,0.2,0,0.3-0.1,0.5c-0.1,0.2-0.2,0.3-0.3,0.5
		c-0.1,0.2-0.3,0.3-0.5,0.4c-0.2,0.1-0.4,0.1-0.6,0.1c-0.3,0-0.6-0.1-0.9-0.2c-0.2-0.1-0.5-0.3-0.6-0.6c-0.2-0.2-0.3-0.5-0.4-0.8
		c-0.1-0.3-0.1-0.6-0.1-0.9c0-0.3,0-0.6,0.1-0.8c0.1-0.3,0.2-0.6,0.3-0.8c0.1-0.3,0.3-0.5,0.5-0.8C76.7,3.3,77,3,77.2,2.9
		c0.2-0.2,0.5-0.3,0.8-0.4c0.3-0.1,0.7-0.1,1-0.1c0.3,0,0.7,0.1,1,0.2c0.4,0.1,0.7,0.3,1,0.6c0.3,0.3,0.5,0.6,0.7,1
		c0.2,0.4,0.3,0.9,0.3,1.5c0,0.8-0.1,1.6-0.4,2.3c-0.2,0.7-0.6,1.3-1,1.8c-0.4,0.5-0.9,1-1.5,1.4c-0.6,0.4-1.2,0.8-1.8,1
		c-0.1,0-0.2,0.1-0.3,0.1c-0.1,0-0.2,0.1-0.3,0.1c-0.2,0-0.4-0.1-0.6-0.1c-0.1-0.1-0.2-0.2-0.2-0.4c0-0.1,0-0.2,0.1-0.4
		c0.1-0.1,0.2-0.3,0.4-0.4c0.5-0.3,1-0.6,1.4-0.9c0.4-0.3,0.8-0.7,1.1-1.1c0.3-0.4,0.5-0.9,0.7-1.4C80,7,80.1,6.4,80.1,5.8
		c0-0.3,0-0.5-0.1-0.7c0-0.2-0.1-0.4-0.2-0.6c-0.1-0.2-0.2-0.3-0.3-0.4c-0.1-0.1-0.3-0.2-0.5-0.2c-0.2,0-0.4,0.1-0.6,0.2
		c-0.2,0.1-0.3,0.3-0.5,0.5c-0.1,0.2-0.2,0.4-0.3,0.7c-0.1,0.3-0.1,0.5-0.1,0.8c0,0.2,0,0.4,0.1,0.5c0,0.1,0.1,0.3,0.2,0.4
		C77.9,7,78,7,78.1,7.1c0.1,0.1,0.2,0.1,0.3,0.1c0.1,0,0.2,0,0.3-0.1C78.7,7,78.8,7,78.9,6.8 M88.5,11.1c-0.2,0-0.5,0-0.7,0
		c-0.2,0-0.5,0-0.7,0c-0.2,0-0.3,0-0.4,0c-0.1,0-0.2-0.1-0.3-0.1c-0.1-0.1-0.1-0.2-0.2-0.3c0-0.1-0.1-0.3-0.1-0.5
		c0-0.2,0-0.5,0.1-0.7c0-0.3,0.1-0.6,0.2-0.9c-0.3,0-0.6,0-0.9,0.1C85.3,8.9,85,8.9,84.8,9c-0.2,0.1-0.5,0.2-0.7,0.2
		c-0.2,0.1-0.4,0.1-0.6,0.1c-0.1,0-0.2,0-0.2-0.1c-0.1-0.1-0.1-0.2-0.1-0.3c0-0.1,0-0.3,0.1-0.5c0.1-0.2,0.2-0.4,0.3-0.6
		c0.1-0.2,0.2-0.5,0.3-0.8c0.1-0.3,0.2-0.5,0.2-0.8c0.1-0.2,0.1-0.5,0.2-0.7c0.1-0.2,0.1-0.5,0.2-0.9c0.1-0.4,0.1-0.7,0.2-1
		c0.1-0.3,0.1-0.6,0.2-1c0-0.1,0.1-0.1,0.2-0.2c0.1-0.1,0.2-0.1,0.4-0.1c0.1,0,0.3-0.1,0.4-0.1c0.2,0,0.3,0,0.5,0c0.1,0,0.2,0,0.4,0
		c0.1,0,0.2,0,0.3,0.1c0.1,0,0.1,0,0.2,0.1c0,0,0.1,0.1,0.1,0.1C87.2,3.8,87,4.4,87,4.4S87,4.6,86.8,5.1c-0.2,0.5-0.3,0.9-0.5,1.4
		c-0.2,0.4-0.4,0.8-0.6,1.3c0.2,0,0.4,0,0.5,0h0.4h0.1c0.1-0.3,0.2-0.7,0.3-1c0.1-0.3,0.2-0.6,0.3-0.9c0-0.1,0.1-0.3,0.2-0.4
		c0.1-0.1,0.2-0.2,0.3-0.2c0.1-0.1,0.2-0.1,0.3-0.1c0.1,0,0.2,0,0.3,0c0.2,0,0.4,0,0.5,0.1c0.1,0.1,0.1,0.2,0.1,0.3
		c0,0.1,0,0.2,0,0.3c0,0.1-0.1,0.3-0.1,0.5c-0.1,0.2-0.1,0.4-0.2,0.6c-0.1,0.2-0.2,0.4-0.2,0.7c0.3,0,0.5-0.1,0.7-0.1
		c0.2,0,0.4,0,0.5,0c0.1,0,0.1,0,0.1,0.1c0,0,0,0.1,0,0.1c0,0.2,0,0.4,0,0.5c0,0.1-0.1,0.2-0.1,0.3c0,0.1-0.1,0.1-0.2,0.2
		c0,0-0.1,0-0.1,0c-0.2,0-0.4,0-0.6,0c-0.2,0-0.4,0-0.7,0c0,0.2-0.1,0.3-0.1,0.5c0,0.2,0,0.3-0.1,0.5v0.1c0,0.1,0,0.2,0.1,0.3
		c0.1,0.1,0.2,0.2,0.3,0.4c0.1,0.1,0.2,0.2,0.2,0.3c0.1,0.1,0.1,0.2,0.1,0.2C88.7,11.1,88.6,11.1,88.5,11.1
		C88.6,11.1,88.6,11.1,88.5,11.1 M94.7,7.5c0-0.3,0-0.6-0.2-0.8c-0.1-0.2-0.3-0.3-0.5-0.3c-0.1,0-0.2,0-0.3,0.1
		c-0.1,0.1-0.2,0.1-0.2,0.2c-0.1,0.1-0.1,0.2-0.2,0.3c0,0.1-0.1,0.2-0.1,0.3c0,0.1-0.1,0.2-0.1,0.2c0,0.1-0.1,0.1-0.2,0.1
		c0,0,0-0.1-0.1-0.2c0-0.1-0.1-0.3-0.1-0.5c0-0.3,0.1-0.5,0.2-0.8C93,6,93.2,5.8,93.4,5.7c0.2-0.2,0.4-0.3,0.6-0.4
		c0.2-0.1,0.5-0.1,0.7-0.1c0.2,0,0.5,0,0.7,0.1c0.2,0.1,0.4,0.2,0.6,0.4c0.2,0.2,0.3,0.4,0.4,0.7c0.1,0.3,0.2,0.6,0.2,1
		c0,0.4-0.1,0.8-0.2,1.3C96.2,9,96,9.4,95.7,9.7c-0.3,0.3-0.7,0.6-1.1,0.8c-0.4,0.2-0.9,0.3-1.5,0.3c-0.4,0-0.7-0.1-1.1-0.2
		c-0.4-0.1-0.7-0.3-1-0.6c-0.3-0.2-0.5-0.6-0.7-1c-0.2-0.4-0.3-0.9-0.3-1.4c0-0.6,0.1-1.3,0.4-1.9c0.2-0.6,0.6-1.2,1-1.7
		c0.4-0.6,0.9-1,1.5-1.5c0.6-0.5,1.2-0.8,1.8-1.1c0.1,0,0.2-0.1,0.3-0.1c0.1,0,0.2,0,0.3,0c0.2,0,0.4,0.1,0.5,0.2
		c0.1,0.1,0.2,0.3,0.2,0.4c0,0.1,0,0.2-0.1,0.4c-0.1,0.1-0.2,0.2-0.4,0.4c-0.5,0.3-0.9,0.6-1.3,1c-0.5,0.4-0.8,0.8-1.2,1.3
		c-0.3,0.5-0.6,1-0.8,1.5C92.1,7,92,7.5,92,8c0,0.2,0,0.4,0,0.6c0,0.2,0.1,0.3,0.2,0.5c0.1,0.1,0.2,0.3,0.4,0.3
		c0.1,0.1,0.3,0.1,0.5,0.1c0.2,0,0.4-0.1,0.6-0.2c0.2-0.1,0.4-0.3,0.5-0.5c0.1-0.2,0.2-0.4,0.3-0.7C94.7,8,94.7,7.7,94.7,7.5"/>
	<path class="st1" d="M64.6,6h1.6C66.6,6,67,6.3,67,6.7c0,0.4-0.3,0.7-0.7,0.7h-1.6c-0.4,0-0.7-0.3-0.7-0.7C63.9,6.3,64.2,6,64.6,6"
		/>
	<path class="st1" d="M100.5,6h1.6c0.4,0,0.7,0.3,0.7,0.7c0,0.4-0.3,0.7-0.7,0.7h-1.6c-0.4,0-0.7-0.3-0.7-0.7
		C99.8,6.3,100.1,6,100.5,6"/>
	<path class="st1" d="M128.1,38.4c5.2-2.9,5.9-6.8,4.7-9.9c-1.1-2.8-4.2-3.2-6.7-3.3c-1.6,0.1-4.2-6.5-1.8-7
		c10.7-2.4,19.6,11.7,8.5,20.4c-1.3,1-4.2,2.6-6,3.3c0.2,3,0.7,5.2,0.2,8.4c-0.6,3.6-2.1,6.1-5.4,3.7c0.9-4.2,0.5-6.9,0-11
		c-2.8,1.2-9.2-0.3-11.4-3c-5.8-6.8-1.7-16.6,6.6-20.2c2.2-1,3.6-0.7,4.6,0.1c3.1,2.3,4.2,11.4,4.8,14.9
		C126.9,39,127.6,38.6,128.1,38.4 M121.1,40.2c-2.9,1.1-6.9,0.3-7.8-3.8c-1-4.4,0-8,2.8-9.4C119.4,25.2,121.2,38.2,121.1,40.2"/>
	<path class="st1" d="M26,37.6c3.3,10.4,19.5,3.2,19.1-5.5h0c-4.4,5.2-9.5,5.6-10.2,3C34,31.8,43.7,28,46.1,27
		c13.1-5.6,28.5-3.5,32.2-3.1c2.7-10.4-24.1-7.5-30.9-5.6c-3.1,0.8-6.2,1.7-9.1,3C30.7,24.6,24.1,31.1,26,37.6"/>
	<path class="st1" d="M60.6,30.1c0.7-1.5-5.6-4.7-6.8-4.5c-3.6,0.7-5.6,8.9-5.4,16.5c0,1.5,1.4,19.5,9.5,13.4
		C54.5,50,56.6,37.1,60.6,30.1"/>
	<path class="st1" d="M122.7,60.4c-2.6,0.8-3.7-3-14.8-2.9c-12.1-0.1-24,4.8-33.2,7.2c-12.4,3.5-21.4,2.1-22.2-4
		c18.1,0.6,44.1-13,60-8.1C115.1,53.6,122.1,55.8,122.7,60.4"/>
	<path class="st1" d="M84.4,31.4c0.6-1.1-3.3-4-4.3-3.9c-2.7,0.4-4.6,5.8-4.9,11.3c-0.4,3.9,0,7.8,1.4,10.4
		c-7.7,3.3-10.7-2.9-9.7-6.7c1.2-4.5,3.6-4.8,5.9-6.4c1.1-0.8,1.7-1.9,3.1-5.7c1.6-4-10.4-1.7-13.9,7.1c-3.1,7.8-0.6,15,4.9,16.4
		c3.4,0.8,7.9-1.2,10.4-3.1c0.8,0.8,1.9,1.3,3.1,1.3c4,0,6.4-3.9,6.1-5.1c-3.8,3.7-5.6,0.7-5.7-3.2c0-0.6,0-1.3,0.1-1.9
		c0-0.1,0-0.2,0-0.4c0.1-0.5,0.1-1.1,0.2-1.6C81.9,36.8,83,33.7,84.4,31.4"/>
	<path class="st1" d="M108.9,41.2c-0.7,1.6-2.6,4.3-7.7-1.6c-4.2-4.5-0.9-4.8,2.7-8.6c9.3-10.5-3.1-11.9-4.2-6.6
		c2,2.2,0.7,6.1-2.5,9c-1.3,1.2-3,2.3-4,3.4c0-5.9,0.9-12.3,2.6-16.6c0.5-1.7-3.4-5.8-4.3-5.6c-2.8,0.6-4.3,9.8-4,18.5
		c0,1.7,1.3,22.3,7.6,15.8c-0.8-2-1.4-4.7-1.6-7.8c0.7,1,1.1,1.1,2,2.4c1.8,2.3,5.3,5.3,9.3,4.4C108.4,47.1,109.6,45,108.9,41.2"/>
	<path class="st2" d="M119.4,41c-2.8,0.8-6.2-0.8-7.1-4.9c-0.8-3.7,0.5-7.1,2.4-9.2c-2.3,1.9-3.9,5.4-3,9.6c1,4.5,4.8,6.2,7.7,5
		C119.4,41.3,119.4,41.2,119.4,41"/>
	<path class="st2" d="M34.9,32.4c-1,1-1.6,2-1.3,3.1c0.8,2.7,5,3,9.4-0.5c-4.7,4.3-9.5,4.2-10.3,1.2C32.4,34.9,33.4,33.6,34.9,32.4"
		/>
	<path class="st2" d="M76.4,23.5l0.6,0c2.1-6.5-10.1-6.6-16.9-6.2c-9.1,0.5-20.8,3.1-28.3,9c7.4-5.4,19-8,27.7-8.4
		C66,17.6,77.9,17.6,76.4,23.5"/>
	<path class="st2" d="M93.3,49.3c0.3-0.2,0.6-0.4,0.8-0.7c-0.7-1.6-1.2-3.7-1.4-6.1c-0.3-0.3-0.6-0.6-1-1.1
		C92,44.5,92.5,47.2,93.3,49.3C93.3,49.2,93.3,49.3,93.3,49.3"/>
	<path class="st2" d="M92.7,35.6c0-5.3,0.8-11.1,2.3-15c0.5-1.5-3.1-5.3-3.9-5.1c-0.4,0.1-0.7,0.3-1,0.7c0.1-0.1,0.2-0.1,0.3-0.1
		c0.9-0.2,4.4,3.6,3.9,5.1c-1.5,3.9-2.3,9.7-2.3,15C92.2,36.1,92.4,35.8,92.7,35.6"/>
	<path class="st2" d="M96.3,34.2c-1,0.8-2,1.5-2.7,2.3C94.4,35.8,95.4,35,96.3,34.2"/>
	<path class="st2" d="M101.8,32.2c0.6-0.5,1.2-1,1.8-1.7c7.1-8-0.4-9.9-2.9-7.1c2.9-1.9,8.8,0.2,2.3,7.6
		C102.5,31.5,102.2,31.9,101.8,32.2"/>
	<path class="st2" d="M108,43.3c-1.7,1.1-4.3,0.9-7.5-2.7c-2.8-3.1-2.4-4.2-0.7-5.8c-2.3,1.9-3.4,3-0.1,6.5
		C103.5,45.6,106.4,44.9,108,43.3"/>
	<path class="st2" d="M59.8,30.3c0.6-1.3-5.1-4.3-6.2-4.1c-0.6,0.1-1.2,0.5-1.7,1c0.3-0.2,0.6-0.4,1-0.4c1.1-0.2,6.8,2.7,6.2,4.1
		c-3.6,6.4-5.7,19.6-2.7,24.7c0.2-0.1,0.3-0.2,0.6-0.4C53.9,50.1,56.1,36.7,59.8,30.3"/>
	<path class="st2" d="M120.2,59.9c-1.9-3.2-7-4.9-9.1-5.8c-14.9-4.9-39.2,8-56.6,8c0-0.2-0.1-0.5-0.1-0.7c17.4,0.6,42.4-12.9,57.6-8
		c2.3,0.9,8,2.8,9.5,6.5C121.4,60.4,120.8,60.1,120.2,59.9"/>
	<path class="st2" d="M72.4,35.9L72.4,35.9c1-0.8,1.5-1.8,2.7-5.2c1-2.8-5.3-1.7-9.5,2.6c4.2-3.8,9.8-4.6,8.9-2
		C73.5,33.9,73,35.1,72.4,35.9"/>
	<path class="st2" d="M76.2,50c-7.5,2.9-11.1-2.9-10.4-6.7c0.4-1.9,1-3.1,1.8-4c-1.1,0.9-2.1,2.3-2.5,4.7c-0.8,4,3.2,10.1,11.3,6.3
		C76.3,50.2,76.2,50.1,76.2,50"/>
	<path class="st2" d="M83.5,31.7c0.6-1-2.9-3.6-3.8-3.4c-0.6,0.1-1.1,0.5-1.6,1c0.3-0.2,0.6-0.3,0.9-0.4c0.9-0.1,4.4,2.4,3.8,3.4
		c-1.3,2.1-2.3,4.9-2.7,7.8c0,0.5-0.1,1-0.2,1.5c0,0.1,0,0.2,0,0.3c-0.1,0.6-0.1,1.2-0.1,1.8c0,3.6,1.6,8.8,5.1,5.4l0,0
		c-3.5,2.2-4.3-2.2-4.4-5.6c0-0.6,0-1.7,0.1-2.3c0-0.1,0-0.2,0-0.3c0.1-0.5,0.1-1,0.2-1.5C81.3,36.6,82.2,33.8,83.5,31.7"/>
	<path class="st2" d="M119.3,43.4c0.3-0.2,0.5-0.5,0.8-0.7l0,0.1C119.8,43,119.6,43.2,119.3,43.4"/>
	<path class="st2" d="M126.2,42.2c0,0.1,0,0.2,0,0.3c0.4,4.3,0.7,6.4-0.5,10.2c-0.7,2.1-1.6,1.9-2.9,1.2c1.7,0.1,1.9,0.1,2.3-1.8
		c0.3-1.4,0.6-3,0.6-4.3c0-1.8-0.2-3.3-0.4-4.8c0-0.2,0-0.4,0-0.5C125.6,42.3,125.9,42.3,126.2,42.2"/>
	<path class="st2" d="M124.4,19.8c0-1,1.3-1.4,3.9-0.9c9.8,1.9,11.8,14.1,3.4,19.8c7.5-6,5.2-17.4-4.3-19.3
		C125.4,19.1,124.9,19,124.4,19.8"/>
	<path class="st2" d="M127.3,39.2c0.7-0.4,1.4-0.8,1.9-1.3c-0.7,0.7-1.6,1.3-2.8,2c-0.5,0.2-1.2,0.6-1.8-3.5
		c-0.6-3.5-1.5-12.7-4.6-15c-0.9-0.8-2.4-1-4.6-0.1c-1.4,0.6-2.7,1.4-3.9,2.3c1.3-1.2,2.9-2.3,4.7-3c2.2-1,3.7-0.7,4.6,0.1
		c0.3,0.2,0.6,0.5,0.8,0.8c0.7,1,1.3,2.4,1.7,3.6c1.2,3.6,1.7,8.3,2.1,10.6C126.1,39.8,126.9,39.4,127.3,39.2"/>
</g>
</svg>
