<?xml version="1.0" encoding="utf-8"?>
<!-- Generator: Adobe Illustrator 19.2.1, SVG Export Plug-In . SVG Version: 6.00 Build 0)  -->
<svg version="1.1" id="Слой_1" xmlns="http://www.w3.org/2000/svg" xmlns:xlink="http://www.w3.org/1999/xlink" x="0px" y="0px"
	 viewBox="0 0 172 80" style="enable-background:new 0 0 172 80;" xml:space="preserve">
<style type="text/css">
	.st0{clip-path:url(#SVGID_2_);}
	.st1{clip-path:url(#SVGID_4_);fill:#33006F;}
	.st2{opacity:0.5;clip-path:url(#SVGID_4_);fill:#FFFFFF;}
	.st3{clip-path:url(#SVGID_4_);fill:#FFFFFF;}
	.st4{clip-path:url(#SVGID_4_);fill:none;stroke:#FFFFFF;stroke-width:0.2001;stroke-miterlimit:11.4737;}
</style>
<g>
	<defs>
		<rect id="SVGID_1_" x="47.3" y="1.7" width="75.3" height="75.3"/>
	</defs>
	<clipPath id="SVGID_2_">
		<use xlink:href="#SVGID_1_"  style="overflow:visible;"/>
	</clipPath>
	<g class="st0">
		<defs>
			<rect id="SVGID_3_" x="47.3" y="1.6" width="75.5" height="75.5"/>
		</defs>
		<clipPath id="SVGID_4_">
			<use xlink:href="#SVGID_3_"  style="overflow:visible;"/>
		</clipPath>
		<path class="st1" d="M98,11.5c0.7-2.3-2.6-3.8-3.2-4.2C89.2,4,85,2.1,85,2.1S68.1,9.7,57.1,20.9C74.7,12.4,94.6,18.6,98,11.5"/>
		<path class="st1" d="M59.5,21.3c15.3-4.9,39.7,5,45.4-3.2c0.8-1.2,0.8-2.7-0.1-3.8c-0.8-1.1-2.1-1.9-2.8-2.4c0,0-0.1,0-0.1-0.1
			C99.9,22.5,76.2,13.9,59.5,21.3"/>
		<path class="st1" d="M109.7,17.9c-7.8,15.9-40.2-4.4-56.9,8.1c-3.1,4.2-5,8.7-5,13.5C47.7,60,85,76.7,85,76.7s37.3-16.7,37.3-37.3
			C122.3,31.4,116.6,23.9,109.7,17.9"/>
		<path class="st2" d="M67.5,33.6c0,0.5,0,0.5,0.4,0.6c0.3,0.1,0.3,0.2,0.3,0.5c0,1,0,2.1,0,3.1c0,0.1,0,0.1,0,0.2
			c-1.1,0-2.1,0-3.2,0c0,0,0-0.1,0-0.1c0-1.1,0-2.2,0-3.3c0-0.2,0.1-0.3,0.3-0.4c0.1,0,0.3-0.1,0.4-0.1c0-0.3,0-0.6,0-0.8
			c-1.2,0-2.3,0-3.5,0c0,0.3,0,0.6,0,0.8c0.1,0,0.3,0.1,0.4,0.1c0.2,0.1,0.3,0.2,0.3,0.4c0,2.8,0,5.6,0,8.4c0,0.3-0.1,0.4-0.3,0.4
			c-0.1,0-0.3,0.1-0.4,0.1c0,0.3,0,0.6,0,0.8c1.2,0,2.3,0,3.5,0c0-0.3,0-0.5,0-0.8c-0.1,0-0.2-0.1-0.3-0.1c-0.3-0.1-0.3-0.1-0.3-0.5
			c0-1.1,0-2.3,0-3.4c0-0.1,0-0.2,0-0.2c1.1,0,2.1,0,3.2,0c0,0.1,0,0.2,0,0.3c0,1,0,2,0,3.1c0,0.7,0,0.7-0.5,0.9
			c0,0-0.1,0.1-0.1,0.1c0,0.3,0,0.5,0,0.8c1.2,0,2.3,0,3.5,0c0-0.3,0-0.6,0-0.8c-0.1,0-0.3-0.1-0.4-0.1c-0.2-0.1-0.3-0.2-0.3-0.4
			c0-2.8,0-5.6,0-8.4c0-0.3,0.1-0.4,0.3-0.4c0.1,0,0.3-0.1,0.4-0.1c0-0.3,0-0.6,0-0.8c-1.2,0-2.4,0-3.5,0
			C67.5,33.5,67.5,33.5,67.5,33.6"/>
		<path class="st2" d="M60.7,43.2c-0.1-0.2-0.2-0.4-0.3-0.6c-0.7-1.5-1.4-2.9-2.2-4.4c0-0.1-0.1-0.2,0-0.3c0.8-1.2,1.5-2.3,2.3-3.5
			c0-0.1,0.1-0.1,0.2-0.1c0.2,0,0.4-0.1,0.6-0.1c0-0.3,0-0.5,0-0.8c-1,0-2,0-3,0c0,0.3,0,0.5,0,0.8c0.2,0,0.4,0,0.6,0.1
			c0.1,0,0.1,0.1,0.2,0.1c0,0.1-0.1,0.2-0.1,0.2c-0.9,1.4-1.7,2.7-2.6,4.1c-0.1,0.2-0.2,0.2-0.4,0.1c0-1.4,0-2.8,0-4.2
			c0-0.2,0.1-0.3,0.3-0.4c0.1,0,0.3-0.1,0.4-0.1c0-0.3,0-0.5,0-0.8c-1.2,0-2.4,0-3.5,0c0,0.3,0,0.6,0,0.8c0.1,0,0.3,0.1,0.4,0.1
			c0.2,0.1,0.3,0.2,0.3,0.4c0,2.8,0,5.6,0,8.4c0,0.3-0.1,0.4-0.3,0.4c-0.1,0-0.3,0.1-0.4,0.1c0,0.3,0,0.6,0,0.8c1.2,0,2.3,0,3.5,0
			c0-0.3,0-0.5,0-0.8c-0.1,0-0.2-0.1-0.3-0.1c-0.3-0.1-0.3-0.2-0.3-0.6c0-1,0-1.9,0-2.9c0-0.1,0-0.2,0-0.3c0.2,0,0.4,0,0.5,0
			c0.1,0,0.2,0.1,0.3,0.2c0.5,1,1,2.1,1.6,3.1c0.2,0.4,0.4,0.7,0.3,1.2c0,0,0,0,0,0c0.9,0,1.9,0,2.8,0c0-0.3,0-0.6,0-0.8
			c-0.1,0-0.3-0.1-0.4-0.1C61,43.6,60.8,43.5,60.7,43.2"/>
		<path class="st2" d="M74.5,39.6L74.5,39.6c0.3-1.2,0.7-2.4,1-3.6c0.3,1.2,0.7,2.4,1,3.6C75.8,39.6,75.2,39.6,74.5,39.6 M79.6,43
			c-0.9-3.2-1.8-6.5-2.7-9.7c-0.1-0.2-0.1-0.2-0.3-0.2c-0.4,0-0.7,0-1.1,0c-0.1,0-0.2,0.1-0.2,0.2c-0.9,3.3-1.8,6.6-2.8,10
			c-0.1,0.2-0.1,0.3-0.3,0.3c-0.2,0-0.3,0.1-0.5,0.1c0,0.3,0,0.6,0,0.8c0.9,0,1.8,0,2.8,0c0-0.3,0-0.5,0-0.8c-0.2,0-0.4-0.1-0.7-0.1
			c-0.2,0-0.3-0.2-0.2-0.4c0.2-0.7,0.4-1.4,0.6-2.1c0-0.1,0.1-0.1,0.2-0.1c0.8,0,1.7,0,2.5,0c0.1,0,0.1,0,0.2,0.2
			c0.2,0.7,0.4,1.4,0.6,2.1c0.1,0.2,0,0.3-0.2,0.4c-0.2,0-0.3,0.1-0.5,0.1c0,0.3,0,0.5,0,0.8c1.2,0,2.4,0,3.6,0c0-0.2,0-0.4,0-0.6
			c0-0.1,0-0.2,0-0.3c-0.1,0-0.2-0.1-0.3-0.1C79.8,43.6,79.7,43.3,79.6,43z"/>
		<path class="st2" d="M93.1,34.9c0,2.2,0,4.4,0,6.6c0,0.5,0,1,0,1.6c0,0.3-0.1,0.4-0.3,0.5c-0.1,0-0.2,0.1-0.4,0.1
			c0,0.3,0,0.5,0,0.8c1.2,0,2.4,0,3.6,0c0-0.3,0-0.6,0-0.8c-0.2,0-0.3-0.1-0.4-0.1c-0.3-0.1-0.3-0.1-0.3-0.5c0-1.1,0-2.1,0-3.2
			c0-0.1,0-0.2,0-0.2c0,0,0.1,0,0.1,0c0.4,0,0.9,0,1.3,0c0.2,0,0.2,0.1,0.3,0.3c0,0.2,0.1,0.4,0.1,0.6c0.3,0,0.5,0,0.8,0
			c0-1.1,0-2.1,0-3.2c-0.2,0-0.5,0-0.7,0c0,0-0.1,0.1-0.1,0.1c0,0.2-0.1,0.3-0.1,0.5c0,0.2-0.1,0.3-0.3,0.3c-0.3,0-0.6,0-0.9,0
			c-0.1,0-0.3,0-0.4,0c0-1.2,0-2.4,0-3.7c0.7,0,1.5,0,2.2,0c0.1,0,0.2,0.1,0.2,0.2c0.1,0.2,0.1,0.4,0.2,0.7c0,0.1,0.1,0.1,0.1,0.1
			c0.3,0,0.6,0,0.9,0c0-0.8,0-1.6,0-2.3c-2.1,0-4.2,0-6.4,0c0,0.3,0,0.5,0,0.8c0.1,0,0.2,0,0.3,0.1C93,34.3,93.1,34.4,93.1,34.9"/>
		<path class="st2" d="M84.1,34.3c0.1,0,0.3-0.1,0.4-0.1c0-0.3,0-0.6,0-0.8c-1.2,0-2.3,0-3.5,0c0,0.3,0,0.6,0,0.8
			c0.1,0,0.2,0,0.3,0.1c0.3,0.1,0.4,0.2,0.4,0.6c0,2.6,0,5.3,0,7.9c0,0.7,0,0.7-0.5,0.9c0,0-0.1,0-0.1,0c0,0-0.1,0.1-0.1,0.1
			c0,0.2,0,0.5,0,0.7c2.2,0,4.3,0,6.5,0c0-0.9,0-1.8,0-2.7c-0.4,0-0.7,0-1,0c-0.1,0.4-0.1,0.7-0.2,1c-0.1,0.3-0.2,0.4-0.4,0.4
			c-0.7,0-1.3,0-2,0c0,0-0.1,0-0.1,0c0,0,0-0.1,0-0.1c0-2.8,0-5.6,0-8.4C83.8,34.4,83.9,34.3,84.1,34.3"/>
		<path class="st2" d="M88.9,34.8c0,0.5,0,1.1,0,1.6c0,2.2,0,4.4,0,6.6c0,0.4,0,0.5-0.3,0.6c-0.1,0-0.2,0.1-0.3,0.1
			c0,0.3,0,0.5,0,0.8c1.2,0,2.3,0,3.5,0c0-0.2,0-0.3,0-0.4c0-0.1,0-0.3,0-0.4c-0.1,0-0.2,0-0.3-0.1c-0.4-0.1-0.4-0.2-0.4-0.6
			c0-2.6,0-5.1,0-7.7c0-0.2,0-0.4,0-0.6c0-0.3,0.1-0.4,0.3-0.4c0.1,0,0.3-0.1,0.4-0.1c0-0.3,0-0.5,0-0.8c-1.2,0-2.4,0-3.5,0
			c0,0.3,0,0.6,0,0.8c0.1,0,0.3,0.1,0.4,0.1C88.9,34.3,88.9,34.4,88.9,34.8"/>
		<path class="st2" d="M101.3,39.6L101.3,39.6c0.3-1.2,0.7-2.4,1-3.6c0.3,1.2,0.7,2.4,1,3.6C102.7,39.6,102,39.6,101.3,39.6
			 M106.4,43c-0.9-3.2-1.8-6.5-2.7-9.7c-0.1-0.2-0.1-0.2-0.3-0.2c-0.4,0-0.7,0-1.1,0c-0.1,0-0.2,0.1-0.2,0.2
			c-0.9,3.3-1.8,6.6-2.8,10c-0.1,0.2-0.1,0.3-0.3,0.3c-0.2,0-0.3,0.1-0.5,0.1c0,0.3,0,0.6,0,0.8c0.9,0,1.8,0,2.8,0
			c0-0.3,0-0.5,0-0.8c-0.2,0-0.4-0.1-0.7-0.1c-0.2,0-0.3-0.2-0.2-0.4c0.2-0.7,0.4-1.4,0.6-2.1c0-0.1,0.1-0.1,0.2-0.1
			c0.8,0,1.7,0,2.5,0c0.1,0,0.1,0,0.2,0.2c0.2,0.7,0.4,1.4,0.6,2.1c0.1,0.2,0,0.3-0.2,0.4c-0.2,0-0.3,0.1-0.5,0.1c0,0.3,0,0.5,0,0.8
			c1.2,0,2.4,0,3.6,0c0-0.2,0-0.4,0-0.6c0-0.1,0-0.2,0-0.3c-0.1,0-0.2-0.1-0.3-0.1C106.6,43.6,106.5,43.3,106.4,43z"/>
		<path class="st2" d="M113,33.6c0,0.5,0,0.5,0.4,0.6c0.3,0.1,0.3,0.2,0.3,0.5c0,1,0,2.1,0,3.1c0,0.1,0,0.1,0,0.2
			c-1.1,0-2.1,0-3.2,0c0,0,0-0.1,0-0.1c0-1.1,0-2.2,0-3.3c0-0.2,0.1-0.3,0.3-0.4c0.1,0,0.3-0.1,0.4-0.1c0-0.3,0-0.6,0-0.8
			c-1.2,0-2.3,0-3.5,0c0,0.3,0,0.6,0,0.8c0.1,0,0.3,0.1,0.4,0.1c0.2,0.1,0.3,0.2,0.3,0.4c0,2.8,0,5.6,0,8.4c0,0.3-0.1,0.4-0.3,0.4
			c-0.1,0-0.3,0.1-0.4,0.1c0,0.3,0,0.6,0,0.8c1.2,0,2.3,0,3.5,0c0-0.3,0-0.5,0-0.8c-0.1,0-0.2-0.1-0.3-0.1c-0.3-0.1-0.3-0.1-0.3-0.5
			c0-1.1,0-2.3,0-3.4c0-0.1,0-0.2,0-0.2c1.1,0,2.1,0,3.2,0c0,0.1,0,0.2,0,0.3c0,1,0,2,0,3.1c0,0.7,0,0.7-0.5,0.9
			c0,0-0.1,0.1-0.1,0.1c0,0.3,0,0.5,0,0.8c1.2,0,2.3,0,3.5,0c0-0.3,0-0.6,0-0.8c-0.1,0-0.3-0.1-0.4-0.1c-0.2-0.1-0.3-0.2-0.3-0.4
			c0-2.8,0-5.6,0-8.4c0-0.3,0.1-0.4,0.3-0.4c0.1,0,0.3-0.1,0.4-0.1c0-0.3,0-0.6,0-0.8c-1.2,0-2.4,0-3.5,0
			C113,33.5,113,33.5,113,33.6"/>
		<rect x="53.3" y="30.7" class="st2" width="63.2" height="0.8"/>
		<rect x="53.3" y="46.1" class="st2" width="63.2" height="0.8"/>
		<path class="st3" d="M75.6,55.1v-0.4l0.4,0c0,0,0.1,0,0.1-0.1c0,0,0-0.1,0-0.1v-1.8H74v1.8c0,0,0,0.1,0,0.1c0,0,0.1,0,0.1,0.1
			l0.4,0v0.4h-2.2v-0.4l0.4,0c0,0,0.1,0,0.1-0.1c0,0,0-0.1,0-0.1v-3.9c0,0,0-0.1,0-0.1c0,0-0.1,0-0.1-0.1l-0.4,0V50h2.2v0.4l-0.4,0
			c0,0-0.1,0-0.1,0.1c0,0,0,0.1,0,0.1v1.6h2.1v-1.6c0-0.1,0-0.1,0-0.1c0,0-0.1,0-0.1-0.1l-0.4,0V50h2.2v0.4l-0.4,0
			c0,0-0.1,0-0.1,0.1c0,0-0.1,0.1-0.1,0.1v3.9c0,0,0,0.1,0,0.1c0,0,0.1,0,0.1,0.1l0.4,0v0.4H75.6z"/>
		<path class="st3" d="M81,55.1v-0.4l0.4-0.1c0,0,0,0,0.1,0c0,0,0-0.1,0-0.1l-0.4-1.2h-1.6l-0.4,1.2c0,0,0,0.1,0,0.1
			c0,0,0.1,0,0.1,0.1l0.4,0.1v0.4H78v-0.4l0.4-0.1l1.7-4.7H81l1.7,4.6c0,0,0,0.1,0.1,0.1c0,0,0.1,0,0.1,0l0.3,0.1v0.4H81z
			 M80.3,51.1l-0.6,1.8h1.3L80.3,51.1z"/>
		<path class="st3" d="M83.3,55.1v-0.4l0.4,0c0,0,0.1,0,0.1-0.1c0,0,0-0.1,0-0.1v-3.9c0,0,0-0.1,0-0.1c0,0-0.1,0-0.1-0.1l-0.4,0V50
			h2.2v0.4l-0.4,0c0,0-0.1,0-0.1,0.1c0,0,0,0.1,0,0.1v4h1.3c0,0,0.1,0,0.1,0c0,0,0,0,0.1,0c0,0,0,0,0-0.1c0,0,0,0,0-0.1l0.1-0.9h0.6
			v1.5H83.3z"/>
		<path class="st3" d="M92.1,50.5l-1.7,4.7h-0.7l-1.8-4.7l-0.5-0.1V50h2.1v0.4l-0.4,0.1c0,0-0.1,0-0.1,0.1c0,0,0,0.1,0,0.1l1.2,3.3
			l1.2-3.3c0,0,0-0.1,0-0.1c0,0,0-0.1-0.1-0.1l-0.4-0.1V50h1.7v0.4L92.1,50.5z"/>
		<path class="st3" d="M95.7,55.1v-0.4l0.4-0.1c0,0,0,0,0.1,0c0,0,0-0.1,0-0.1l-0.4-1.2h-1.6l-0.4,1.2c0,0,0,0.1,0,0.1
			c0,0,0.1,0,0.1,0.1l0.4,0.1v0.4h-1.6v-0.4l0.4-0.1l1.7-4.7h0.9l1.7,4.6c0,0,0,0.1,0.1,0.1c0,0,0.1,0,0.1,0l0.3,0.1v0.4H95.7z
			 M95,51.1l-0.6,1.8h1.3L95,51.1z"/>
		<path class="st4" d="M75.6,55.1v-0.4l0.4,0c0,0,0.1,0,0.1-0.1c0,0,0-0.1,0-0.1v-1.8H74v1.8c0,0,0,0.1,0,0.1c0,0,0.1,0,0.1,0.1
			l0.4,0v0.4h-2.2v-0.4l0.4,0c0,0,0.1,0,0.1-0.1c0,0,0-0.1,0-0.1v-3.9c0,0,0-0.1,0-0.1c0,0-0.1,0-0.1-0.1l-0.4,0V50h2.2v0.4l-0.4,0
			c0,0-0.1,0-0.1,0.1c0,0,0,0.1,0,0.1v1.6h2.1v-1.6c0-0.1,0-0.1,0-0.1c0,0-0.1,0-0.1-0.1l-0.4,0V50h2.2v0.4l-0.4,0
			c0,0-0.1,0-0.1,0.1c0,0-0.1,0.1-0.1,0.1v3.9c0,0,0,0.1,0,0.1c0,0,0.1,0,0.1,0.1l0.4,0v0.4H75.6z"/>
		<path class="st4" d="M81,55.1v-0.4l0.4-0.1c0,0,0,0,0.1,0c0,0,0-0.1,0-0.1l-0.4-1.2h-1.6l-0.4,1.2c0,0,0,0.1,0,0.1
			c0,0,0.1,0,0.1,0.1l0.4,0.1v0.4H78v-0.4l0.4-0.1l1.7-4.7H81l1.7,4.6c0,0,0,0.1,0.1,0.1c0,0,0.1,0,0.1,0l0.3,0.1v0.4H81z
			 M80.3,51.1l-0.6,1.8h1.3L80.3,51.1z"/>
		<path class="st4" d="M83.3,55.1v-0.4l0.4,0c0,0,0.1,0,0.1-0.1c0,0,0-0.1,0-0.1v-3.9c0,0,0-0.1,0-0.1c0,0-0.1,0-0.1-0.1l-0.4,0V50
			h2.2v0.4l-0.4,0c0,0-0.1,0-0.1,0.1c0,0,0,0.1,0,0.1v4h1.3c0,0,0.1,0,0.1,0c0,0,0,0,0.1,0c0,0,0,0,0-0.1c0,0,0,0,0-0.1l0.1-0.9h0.6
			v1.5H83.3z"/>
		<path class="st4" d="M92.1,50.5l-1.7,4.7h-0.7l-1.8-4.7l-0.5-0.1V50h2.1v0.4l-0.4,0.1c0,0-0.1,0-0.1,0.1c0,0,0,0.1,0,0.1l1.2,3.3
			l1.2-3.3c0,0,0-0.1,0-0.1c0,0,0-0.1-0.1-0.1l-0.4-0.1V50h1.7v0.4L92.1,50.5z"/>
		<path class="st4" d="M95.7,55.1v-0.4l0.4-0.1c0,0,0,0,0.1,0c0,0,0-0.1,0-0.1l-0.4-1.2h-1.6l-0.4,1.2c0,0,0,0.1,0,0.1
			c0,0,0.1,0,0.1,0.1l0.4,0.1v0.4h-1.6v-0.4l0.4-0.1l1.7-4.7h0.9l1.7,4.6c0,0,0,0.1,0.1,0.1c0,0,0.1,0,0.1,0l0.3,0.1v0.4H95.7z
			 M95,51.1l-0.6,1.8h1.3L95,51.1z"/>
	</g>
</g>
</svg>
