<?xml version="1.0" encoding="utf-8"?>
<!-- Generator: Adobe Illustrator 19.2.1, SVG Export Plug-In . SVG Version: 6.00 Build 0)  -->
<svg version="1.1" id="Слой_1" xmlns="http://www.w3.org/2000/svg" xmlns:xlink="http://www.w3.org/1999/xlink" x="0px" y="0px"
	 viewBox="0 0 172 80" style="enable-background:new 0 0 172 80;" xml:space="preserve">
<style type="text/css">
	.st0{fill:#A81E22;}
</style>
<g>
	<path class="st0" d="M46.4,27.5c-12.4,0-19.8,7.4-19.8,16.5c0,9.1,7.4,16.5,19.8,16.5c12.4,0,19.8-7.4,19.8-16.5
		C66.2,34.8,58.8,27.5,46.4,27.5 M46.4,56.8c-5.7,0-10.1-5.8-10.1-12.9c0-7.1,4.3-12.9,10.1-12.9c5.7,0,10.1,5.8,10.1,12.9
		C56.5,51,52.1,56.8,46.4,56.8"/>
	<polygon class="st0" points="101.1,28.7 66.6,28.7 66.6,32.3 78.9,32.3 78.9,59 88.7,59 88.7,32.3 101.1,32.3 	"/>
	<polygon class="st0" points="138.8,28.7 104.2,28.7 104.2,32.3 116.6,32.3 116.6,59 126.4,59 126.4,32.3 138.8,32.3 	"/>
	<path class="st0" d="M154.7,32.2H171l0-3.6h-24.4c-2.2,0.1-4.6,0.9-4.6,4.9v20.6c0,3.9,2.4,4.8,4.6,4.9H171l0-3.6h-16.3
		c-2.1-0.1-2.9-1-2.9-3.4l0-8.2h19v-3.5h-19v-4.6C151.7,33.2,152.6,32.4,154.7,32.2"/>
	<path class="st0" d="M12.7,55.4c-2.1-0.1-2.9-0.9-2.9-3.4V28.7H0v25.5c0,3.9,2.4,4.8,4.6,4.9h22.2v-3.6H12.7z"/>
</g>
</svg>
